<?xml version="1.0" encoding="UTF-8"?><svg id="Ebene_2" xmlns="http://www.w3.org/2000/svg" viewBox="0 0 1560.59 622.23"><defs><style>.cls-1{fill:#e00;stroke:#000;stroke-miterlimit:10;stroke-width:8px;}</style></defs><g id="Ebene_2-2"><g id="Favicon"><g id="Variante4"><path class="cls-1" d="M1364.03,142.78L1502.81,4h-753.89c-80.63,0-158.07,31.52-215.78,87.83L9.76,606.45l221.46.28,405.97-405.97c36.46-36.46,85.88-56.97,137.43-57.05l589.41-.92Z"/><path class="cls-1" d="M788.33,170.67c-51.56.08-100.98,20.6-137.43,57.05l-378.72,378.72,425.68-223.66,56.95-56.95c13.08-13.08,30.81-20.43,49.3-20.43l393.75-.17,135.47-135.47-545,.92Z"/></g><path class="cls-1" d="M883.87,433.86c-2.16-4.75-3.37-10.01-3.37-15.57v-88.21s-138.78,138.78-138.78,138.78v57.08c0,14.41,3.8,27.93,10.42,39.64l131.73-131.73Z"/><path class="cls-1" d="M1528.15,23.34l-141.83,141.83c2.12,4.71,3.31,9.93,3.31,15.44v237.7c0,20.81-16.87,37.68-37.68,37.68h-433.78c-4.97,0-9.7-.97-14.04-2.71l-134.06,134.06c14.08,12.01,32.32,19.27,52.28,19.27h653.6c44.53,0,80.63-36.1,80.63-80.63V84.77c0-24.62-11.05-46.65-28.44-61.44Z"/></g></g></svg>