<?xml version="1.0" encoding="UTF-8"?><svg id="Ebene_2" xmlns="http://www.w3.org/2000/svg" viewBox="0 0 4157.46 626.69"><defs><style>.cls-1{fill:#fff;stroke:#000;stroke-miterlimit:10;stroke-width:8px;}</style></defs><g id="Ebene_2-2"><g id="Variante4"><g id="Variante4-2"><path class="cls-1" d="M1364.03,147.24L1502.81,8.46h-753.89c-80.63,0-158.07,31.52-215.78,87.83L9.76,610.91l221.46.28,405.97-405.97c36.46-36.46,85.88-56.97,137.43-57.05l589.41-.92Z"/><path class="cls-1" d="M788.33,175.13l545-.92-135.47,135.47-393.75.17c-18.49,0-36.22,7.36-49.3,20.43l-56.95,56.95-425.68,223.66,378.72-378.72"/><path class="cls-1" d="M650.9,232.18c36.46-36.46,85.88-56.97,137.43-57.05"/><path class="cls-1" d="M2325.06,287.46l-74.03-85.19c-6.2-7.19-10.54-14.26-13.02-21.2-2.48-6.94-3.72-13.14-3.72-18.6,0-12.15,3.72-21.39,11.16-27.71,7.44-6.32,17.48-9.49,30.13-9.49h36.83c8.18,0,14.26-2.29,18.23-6.88,3.97-4.59,5.95-10.35,5.95-17.3v-12.28c0-7.44-1.92-13.14-5.77-17.11-3.84-3.97-10.23-5.95-19.16-5.95h-96.72v221.71h-74.4V8.46h163.68c35.96,0,62.5,5.95,79.61,17.86s25.67,31.12,25.67,57.66v16c0,11.66-2.36,22.01-7.07,31.06-4.71,9.05-10.97,16.68-18.79,22.88s-16.99,10.97-27.53,14.32c-10.54,3.35-21.64,5.02-33.29,5.02h-8.93l94.49,114.2h-83.33Z"/><path class="cls-1" d="M2449.31,88.07c2.48-29.76,10.6-51.21,24.37-64.35,13.76-13.14,31.19-19.72,52.26-19.72,22.57,0,40.49,6.88,53.75,20.65,13.27,13.76,21.76,32.55,25.48,56.36l21.95,138.75c.5,2.98,1.3,5.21,2.42,6.7,1.12,1.49,2.91,2.23,5.39,2.23s4.34-.87,5.58-2.6c1.24-1.74,1.98-4.09,2.23-7.07l21.2-138.38c3.47-23.56,11.84-42.22,25.11-55.99,13.27-13.76,31.06-20.65,53.38-20.65,23.56,0,41.11,6.63,52.64,19.9,11.53,13.27,18.54,34.66,21.02,64.17l17.48,199.39h-71.79l-14.88-210.18c-.25-2.48-.68-4.59-1.3-6.32-.62-1.74-2.17-2.6-4.65-2.6-1.98,0-3.6.81-4.84,2.42s-1.98,3.53-2.23,5.77l-24.92,149.17c-3.22,19.84-11.22,35.83-23.99,47.99-12.77,12.15-29.57,18.23-50.41,18.23s-38.81-6.26-51.71-18.79c-12.9-12.52-20.96-28.46-24.18-47.8l-26.04-148.43c-.5-2.73-1.36-4.84-2.6-6.32-1.24-1.49-2.85-2.23-4.84-2.23-2.48,0-4.15.87-5.02,2.6s-1.43,3.97-1.67,6.7l-14.88,209.8h-71.79l17.48-199.39Z"/><path class="cls-1" d="M2897.57,264.4c-17.86-18.6-26.79-44.52-26.79-77.75V8.46h74.4v185.25c0,13.39,3.04,23.25,9.11,29.57s16.55,9.49,31.43,9.49h42.41c13.89,0,23.99-3.16,30.32-9.49s9.49-16.18,9.49-29.57V8.46h74.4v178.19c0,16.62-1.92,31.5-5.77,44.64s-10.17,24.24-18.97,33.29c-8.8,9.05-20.64,15.93-35.53,20.65-14.88,4.71-33.23,7.07-55.05,7.07h-40.18c-41.66,0-71.42-9.3-89.28-27.9Z"/><path class="cls-1" d="M3188.84,8.46h74.4v217.62h141.73v61.38h-216.13V8.46Z"/><path class="cls-1" d="M3646.02,229.06h-130.57l-22.32,58.4h-75.14l92.63-225.06c7.19-17.61,16.06-31.74,26.6-42.41,10.54-10.66,25.11-16,43.71-16s34.53,5.27,45.57,15.81c11.04,10.54,20.03,24.49,26.97,41.85l91.88,225.8h-77.38l-21.95-58.4ZM3537.77,171.4h86.3l-36.08-95.6c-.74-1.74-1.55-3.29-2.42-4.65-.87-1.36-2.29-2.05-4.28-2.05-1.73,0-3.1.62-4.09,1.86-.99,1.24-1.86,2.85-2.6,4.84l-36.83,95.6Z"/><path class="cls-1" d="M2281.91,540.88c.74,2.73,1.67,4.9,2.79,6.51,1.12,1.61,2.79,2.42,5.02,2.42,2.48,0,4.28-.74,5.39-2.23,1.12-1.49,2.17-3.84,3.16-7.07l61.01-212.04h75.14l-69.19,217.62c-6.45,20.09-15.38,35.96-26.78,47.61-11.41,11.66-27.53,17.48-48.36,17.48-22.57,0-39.49-5.46-50.78-16.37-11.28-10.91-20.4-27.16-27.34-48.73l-71.42-217.62h81.84l59.52,212.41Z"/><path class="cls-1" d="M2462.33,328.47h232.87v61.38h-160.33v48.36h160.33v59.52h-160.33v48.36h160.33v61.38h-232.87v-279Z"/><path class="cls-1" d="M2729.42,607.46v-139.13c0-6.94,2.23-12.52,6.7-16.74s9.8-6.32,16-6.32h138.75c10.17,0,17.17-1.61,21.02-4.84,3.84-3.22,5.77-10.66,5.77-22.32v-1.86c0-10.91-1.92-18.04-5.77-21.39-3.84-3.35-10.85-5.02-21.02-5.02h-161.44v-61.38h159.58c13.64,0,26.66,1.12,39.06,3.35,12.4,2.23,23.12,6.08,32.18,11.53s16.31,12.83,21.76,22.13,8.18,21.02,8.18,35.15v17.48c0,14.88-2.36,27.22-7.07,37.01-4.71,9.8-11.35,17.55-19.9,23.25-8.56,5.7-19.03,9.73-31.43,12.09-12.4,2.36-26.04,3.53-40.92,3.53h-4.09l103.04,113.46h-87.05l-102.67-111.97v111.97h-70.68Z"/><path class="cls-1" d="M3143.46,540.88c.74,2.73,1.67,4.9,2.79,6.51,1.12,1.61,2.79,2.42,5.02,2.42,2.48,0,4.28-.74,5.39-2.23,1.12-1.49,2.17-3.84,3.16-7.07l61.01-212.04h75.14l-69.19,217.62c-6.45,20.09-15.38,35.96-26.78,47.61-11.41,11.66-27.53,17.48-48.36,17.48-22.57,0-39.49-5.46-50.78-16.37-11.28-10.91-20.4-27.16-27.34-48.73l-71.42-217.62h81.84l59.52,212.41Z"/><path class="cls-1" d="M3325.74,328.47h74.4v279h-74.4v-279Z"/><path class="cls-1" d="M3450.35,328.47h232.87v61.38h-160.33v48.36h160.33v59.52h-160.33v48.36h160.33v61.38h-232.87v-279Z"/><path class="cls-1" d="M3816.4,540.88c.25,2.48.99,4.59,2.23,6.32,1.24,1.74,3.1,2.6,5.58,2.6,2.23,0,3.91-.81,5.02-2.42,1.12-1.61,1.8-3.53,2.05-5.77l23.81-140.99c3.97-23.06,12.09-41.6,24.37-55.61,12.28-14.01,30.19-21.02,53.75-21.02s41.11,7.07,51.89,21.2c10.79,14.14,18.17,32.49,22.13,55.06l23.81,140.99c.5,2.73,1.36,4.84,2.6,6.32,1.24,1.49,2.85,2.23,4.84,2.23,3.22,0,5.39-.87,6.51-2.6,1.12-1.74,1.8-3.97,2.05-6.7l31.25-212.04h74.4l-38.69,215.76c-3.97,21.82-11.72,38.44-23.25,49.85-11.53,11.41-27.96,17.11-49.29,17.11-23.81,0-42.28-6.32-55.43-18.97-13.14-12.65-21.45-29.76-24.92-51.33l-24.18-146.57c-.25-2.23-.87-3.97-1.86-5.21-.99-1.24-2.48-1.86-4.46-1.86s-3.47.62-4.46,1.86c-.99,1.24-1.61,2.98-1.86,5.21l-24.92,147.31c-3.72,21.58-11.47,38.56-23.25,50.96-11.78,12.4-28.95,18.6-51.52,18.6-23.81,0-41.73-6.76-53.75-20.27-12.03-13.52-19.9-30.69-23.62-51.52l-37.2-210.92h74.4l31.99,212.41Z"/></g><path class="cls-1" d="M1865.35,150.15L2002.23,13.27c-8.46-3.01-17.57-4.67-27.06-4.67h-432.69l-138.78,138.78h447.48c5.02,0,9.8.99,14.18,2.77Z"/><path class="cls-1" d="M1383.08,438.32c-2.16-4.75-3.37-10.01-3.37-15.57v-251.72s-138.78,138.78-138.78,138.78v220.59c0,14.41,3.8,27.93,10.42,39.64l131.73-131.73Z"/><path class="cls-1" d="M2027.36,27.8l-141.83,141.83c2.12,4.71,3.31,9.93,3.31,15.44v237.7c0,20.81-16.87,37.68-37.68,37.68h-433.78c-4.97,0-9.7-.97-14.04-2.71l-134.06,134.06c14.08,12.01,32.32,19.27,52.28,19.27h653.6c44.53,0,80.63-36.1,80.63-80.63V89.23c0-24.62-11.05-46.65-28.44-61.44Z"/></g></g></svg>