<svg width="1706" height="987" viewBox="0 0 1706 987" fill="none" xmlns="http://www.w3.org/2000/svg">
<path d="M315 16.3333C315 25.5333 314.467 32.3333 313.8 32.3333C313 32.3333 301.8 26.7333 288.733 19.8C275.667 12.8667 263.933 6.73333 262.6 6.19999C260.333 5.39999 260.2 9.93333 260.733 121.133C261.267 245.267 261.133 241.533 268.067 261.667C277.133 287.8 297.933 313.533 321.4 327.533C333.933 335 353.933 342.2 368.333 344.467C380.733 346.333 406.333 345.267 416.333 342.333C421.133 340.867 430.467 340.067 443.667 339.8C458.733 339.533 466.2 338.733 473.933 336.6C521.8 323.667 556.2 287.667 565.933 240.333C569.667 222.467 568.733 197.933 563.8 181.267C554.867 151.133 535.4 125.267 509.667 109.4C498.867 102.733 316.733 0.333328 315.667 0.333328C315.267 0.333328 315 7.53333 315 16.3333ZM310.333 52.7333L339.667 69L340.333 151L341 233L344.733 240.467C349.133 249.667 357.933 258.067 368.067 262.733C374.467 265.8 377.533 266.333 387 266.333C396.467 266.333 399.533 265.8 405.933 262.733C416.067 258.067 424.333 250.067 429.133 240.733C432.6 233.8 433 231.667 433 220.333C433 209.4 432.467 206.6 429.4 200.067C425 190.6 416.2 181.667 407.267 177.667L400.333 174.467V143.933V113.267L405.933 114.2C430.067 118.067 456.067 133.933 471.533 154.067C486.6 173.8 493.933 195.8 493.933 221C493.667 268.867 463.667 308.333 416.333 323.267C407.8 325.933 403.533 326.333 387 326.333C370.467 326.333 366.2 325.933 357.667 323.267C320.333 311.533 293.133 283.667 282.733 246.333C279.8 235.8 279.8 234.333 279.267 135.933C279 81.1333 279.4 36.3333 279.933 36.3333C280.467 36.3333 294.2 43.6667 310.333 52.7333Z" fill="white"/>
<path d="M631 204.333V339H716.067C808.867 339 810.067 338.867 825.4 331.133C841.133 323.133 855.133 306.733 860.467 289.8C864.333 277.533 864.333 259 860.467 246.867C854.867 229.4 840.6 212.6 824.6 204.867L816.6 201L824.733 193.667C856.733 164.6 857.133 116.333 825.533 87.8C817.267 80.2 802.867 73 792.467 71C788.2 70.2 754.733 69.6667 708.2 69.6667H631V204.333ZM746.733 138.467C751.133 141.533 753.667 147.4 753.667 154.333C753.667 157.667 752.733 162.2 751.667 164.333C748.067 171.4 745.133 172.333 728.733 172.333H713.667V154.333V136.333H728.733C740.2 136.333 744.467 136.867 746.733 138.467ZM760.333 242.333C765.4 244.867 769.667 253.267 769.667 260.333C769.667 263.267 768.467 268.2 767 271C762.733 279.4 759.533 280.333 735 280.333H713.667V260.333V240.333H735C751.667 240.333 757.4 240.733 760.333 242.333Z" fill="white"/>
<path d="M844.333 70.2C844.333 70.4667 865.4 130.867 891 204.333C916.733 277.8 937.667 338.2 937.667 338.467C937.667 338.867 956.067 338.867 978.467 338.733L1019.4 338.333L1036.47 273.8C1045.93 238.333 1053.8 209 1054.07 208.733C1054.33 208.467 1057.13 217.8 1060.2 229.267C1063.27 240.867 1071.13 270.067 1077.53 294.333L1089.27 338.333L1129.8 338.733L1170.47 339L1216.87 206.067C1242.47 132.867 1263.67 72.2 1263.93 71.2667C1264.47 70.0667 1254.07 69.6667 1214.87 69.6667H1165L1144.47 128.333C1133.13 160.6 1123.53 187 1123.13 187C1122.73 187 1116.07 163.4 1108.47 134.6C1100.87 105.933 1093.8 79.5333 1092.73 75.9333L1090.87 69.6667L1054.07 69.9333L1017.27 70.3333L1002.87 124.333C995 154.067 987.8 180.733 986.867 183.667C985.4 188.867 985.4 188.733 964.467 129.667L943.533 70.3333L893.933 69.9333C866.6 69.8 844.333 69.8 844.333 70.2Z" fill="white"/>
<path d="M1262.33 111.267C1254.33 134.2 1247.67 153.8 1247.27 154.6C1246.87 155.933 1252.07 156.333 1270.87 156.333H1295V247.667V339H1343.67H1392.33V247.667V156.333H1418.33H1444.33V113V69.6667H1360.47H1276.73L1262.33 111.267Z" fill="white"/>
<path d="M72.3333 539.133C37.5333 577.267 6.99998 610.867 4.59998 613.8L0.0666504 619H22.8667H45.5333L57.2667 605.667L69 592.333H136.467H204.067L215.667 605.667L227.267 619H249.933C262.333 619 272.333 618.467 272.067 617.933C271.4 616.2 137.133 469.667 136.333 469.667C135.933 469.8 107.133 501 72.3333 539.133ZM158.333 541.267L179.267 565L157.8 565.4C145.933 565.533 126.733 565.533 115.133 565.4L93.9333 565L114.733 541.4C126.333 528.333 136.067 517.667 136.467 517.667C136.867 517.667 146.733 528.333 158.333 541.267Z" fill="white"/>
<path d="M360.333 546.333V619L449.933 618.733L539.533 618.333L544.6 606.467C547.4 599.8 549.667 594.333 549.667 594.067C549.667 593.8 515.8 593.667 474.333 593.667H399V533.667V473.667H379.667H360.333V546.333Z" fill="white"/>
<path d="M633.667 546.333V619H653H672.333V595.133V571.133L746.733 570.6C812.6 570.2 821.933 569.8 829 567.8C844.867 563.133 855.267 555.4 861.4 543.8C864.733 537.667 865 535.667 865 522.333C865 509 864.733 507 861.4 500.867C855.8 490.333 846.467 482.733 833.4 478.2L822.333 474.333L728.067 473.933L633.667 473.533V546.333ZM809.8 501.8C816.733 503.933 821.8 509.533 823.133 516.6C825.4 528.867 819.933 538.333 808.6 542.333C803.4 544.067 792.6 544.333 737.4 544.333H672.333V522.333V500.333H738.467C784.333 500.333 806.2 500.867 809.8 501.8Z" fill="white"/>
<path d="M969.667 546.333V619H989.667H1009.67V546.333V473.667H989.667H969.667V546.333Z" fill="white"/>
<path d="M1135 546.333V619H1153H1171V565.533C1171 515.8 1171.13 512.067 1173.27 512.867C1174.47 513.4 1220.2 538.333 1274.73 568.333C1329.27 598.467 1374.07 623 1374.47 623C1374.73 623 1375 589.4 1375 548.333V473.667H1357H1339V518.333C1339 542.867 1338.47 563 1337.93 563C1337.27 563 1300.33 542.867 1255.8 518.333L1174.87 473.667H1154.87H1135V546.333Z" fill="white"/>
<path d="M1500.33 546.333V619H1599.67H1698.87L1700.33 613.267C1701.13 610.2 1702.73 604.733 1703.8 601.133C1704.87 597.533 1705.67 594.333 1705.67 594.067C1705.67 593.8 1668.47 593.667 1623 593.667H1540.33V576.333V559H1620.33H1700.33V545.667V532.333H1620.33H1540.33V516.333V500.333H1620.33H1700.33V487V473.667H1600.33H1500.33V546.333Z" fill="white"/>
<path d="M659.667 740.2C654.6 742.333 651.933 746.867 651.267 754.333C650.733 761.267 650.867 761.8 655.4 766.333C659.4 770.333 661 771 666.2 771C676.2 771 683 764.467 683 755C683 743.4 670.867 735.667 659.667 740.2ZM675.667 744.733C678.333 746.867 679.4 749.4 679.933 753.933C680.6 759.533 680.333 760.6 676.6 764.333C667.8 773 653.667 767.267 653.667 755C653.667 743.533 667.133 737.267 675.667 744.733Z" fill="white"/>
<path d="M660.333 755.667C660.333 760.6 660.867 764.333 661.667 764.333C662.467 764.333 663 762.467 663 760.333C663 755.133 664.6 755.267 668.867 760.6C672.733 765.533 675 764.867 671.667 759.8C669.533 756.733 669.533 756.2 671.533 754.333C672.733 753.133 673.667 751.667 673.667 751.133C673.667 748.867 670.067 747 665.4 747H660.333V755.667ZM669.4 751.267C669.8 753 669 753.667 666.467 753.667C663.8 753.667 663 753 663 750.867C663 748.867 663.667 748.2 665.933 748.6C667.667 748.867 669.133 750.067 669.4 751.267Z" fill="white"/>
<path d="M568.333 747V753.667H579.667H591V797V840.333H597.667H604.333L604.067 790.6L603.667 741L586.067 740.6L568.333 740.2V747Z" fill="white"/>
<path d="M455 791V840.333H461.667H468.333V818.333V796.333L492.067 796.067L515.667 795.667L516.067 789.933L516.467 784.333H492.467H468.333V769V753.667H495.667H523V747.667V741.667H489H455V791Z" fill="white"/>
<path d="M771 747.667V753.667H787H803V797V840.333H809.667H816.333V797V753.8L832.733 753.4L849 753L849.4 747.267L849.8 741.667H810.467H771V747.667Z" fill="white"/>
<path d="M900.333 791V840.333H934.333H968.333V835V829.667H940.333H912.333V812.333V795H937H961.667V789V783H937H912.333V768.333V753.667H939H965.667V747.667V741.667H933H900.333V791Z" fill="white"/>
<path d="M1027.27 789.933C1016.87 816.6 1008.33 838.867 1008.33 839.4C1008.33 839.933 1011.4 840.333 1015.13 840.067L1021.93 839.667L1027.27 825.267L1032.6 811H1054.2H1075.67L1081.13 825.4L1086.6 839.667L1094.33 840.067C1101.27 840.467 1101.93 840.2 1101.13 838.067C1100.6 836.733 1091.4 814.467 1080.6 788.733L1061 741.667H1053.67H1046.2L1027.27 789.933ZM1062.47 777.267C1067.13 789.533 1071 799.8 1071 799.933C1071 800.2 1063.27 800.333 1053.67 800.333H1036.33L1039.27 793.267C1040.73 789.533 1044.47 779.133 1047.53 770.2C1050.6 761.267 1053.27 754.2 1053.53 754.467C1053.8 754.733 1057.8 765 1062.47 777.267Z" fill="white"/>
<path d="M1149.67 791V840.333H1156.33H1163L1163.27 799.4L1163.67 758.467L1178.33 799.4L1193 840.333H1199.67H1206.33L1221.27 799.933L1236.2 759.667L1236.33 799.933V840.333H1243.67H1251V791V741.667H1241.13C1232.87 741.667 1231 742.067 1230.47 743.933C1230.07 745.267 1223.13 764.333 1215.13 786.333C1202.73 820.2 1200.33 825.8 1199.27 823C1198.6 821.133 1191.93 802.067 1184.33 780.6L1170.6 741.667H1160.07H1149.67V791Z" fill="white"/>
<path d="M713.133 973C704.333 979.267 696.6 984.867 695.8 985.667C694.867 986.6 712.2 987 748.467 987H802.333L818.333 975.533C827.133 969.267 834.867 963.667 835.533 962.867C836.333 962.2 816.733 961.667 782.867 961.667L729 961.8L713.133 973Z" fill="white"/>
<path d="M884.867 973.8C875.4 980.6 867.4 986.2 867.133 986.467C866.867 986.733 891.133 987 921.267 987H975.933L993.667 974.333L1011.4 961.667H956.867H902.2L884.867 973.8Z" fill="white"/>
</svg>
