<?xml version="1.0" standalone="no"?>
<!DOCTYPE svg PUBLIC "-//W3C//DTD SVG 20010904//EN"
 "http://www.w3.org/TR/2001/REC-SVG-20010904/DTD/svg10.dtd">
<svg version="1.0" xmlns="http://www.w3.org/2000/svg"
 width="1280.000000pt" height="741.000000pt" viewBox="0 0 1280.000000 741.000000"
 preserveAspectRatio="xMidYMid meet">

<g transform="translate(0.000000,741.000000) scale(0.100000,-0.100000)"
fill="#000000" stroke="none">
<path d="M2370 7280 c0 -69 -4 -120 -9 -120 -6 0 -90 42 -188 94 -98 52 -186
98 -196 102 -17 6 -18 -28 -14 -862 4 -931 3 -903 55 -1054 68 -196 224 -389
400 -494 94 -56 244 -110 352 -127 93 -14 285 -6 360 16 36 11 106 17 205 19
113 2 169 8 227 24 359 97 617 367 690 722 28 134 21 318 -16 443 -67 226
-213 420 -406 539 -81 50 -1447 818 -1455 818 -3 0 -5 -54 -5 -120z m-35 -273
l220 -122 5 -615 5 -615 28 -56 c33 -69 99 -132 175 -167 48 -23 71 -27 142
-27 71 0 94 4 142 27 76 35 138 95 174 165 26 52 29 68 29 153 0 82 -4 103
-27 152 -33 71 -99 138 -166 168 l-52 24 0 229 0 230 42 -7 c181 -29 376 -148
492 -299 113 -148 168 -313 168 -502 -2 -359 -227 -655 -582 -767 -64 -20 -96
-23 -220 -23 -124 0 -156 3 -220 23 -280 88 -484 297 -562 577 -22 79 -22 90
-26 828 -2 411 1 747 5 747 4 0 107 -55 228 -123z"/>
<path d="M4740 5870 l0 -1010 638 0 c696 0 705 1 820 59 118 60 223 183 263
310 29 92 29 231 0 322 -42 131 -149 257 -269 315 l-60 29 61 55 c240 218 243
580 6 794 -62 57 -170 111 -248 126 -32 6 -283 10 -632 10 l-579 0 0 -1010z
m868 494 c33 -23 52 -67 52 -119 0 -25 -7 -59 -15 -75 -27 -53 -49 -60 -172
-60 l-113 0 0 135 0 135 113 0 c86 0 118 -4 135 -16z m102 -779 c38 -19 70
-82 70 -135 0 -22 -9 -59 -20 -80 -32 -63 -56 -70 -240 -70 l-160 0 0 150 0
150 160 0 c125 0 168 -3 190 -15z"/>
<path d="M6340 6876 c0 -2 158 -455 350 -1006 193 -551 350 -1004 350 -1006 0
-3 138 -3 306 -2 l307 3 128 484 c71 266 130 486 132 488 2 2 23 -68 46 -154
23 -87 82 -306 130 -488 l88 -330 304 -3 305 -2 348 997 c192 549 351 1004
353 1011 4 9 -74 12 -368 12 l-374 0 -154 -440 c-85 -242 -157 -440 -160 -440
-3 0 -53 177 -110 393 -57 215 -110 413 -118 440 l-14 47 -276 -2 -276 -3
-108 -405 c-59 -223 -113 -423 -120 -445 -11 -39 -11 -38 -168 405 l-157 445
-372 3 c-205 1 -372 1 -372 -2z"/>
<path d="M9475 6568 c-60 -172 -110 -319 -113 -325 -3 -10 36 -13 177 -13
l181 0 0 -685 0 -685 365 0 365 0 0 685 0 685 195 0 195 0 0 325 0 325 -629 0
-628 0 -108 -312z"/>
<path d="M550 3359 c-261 -286 -490 -538 -508 -560 l-34 -39 171 0 170 0 88
100 88 100 506 0 507 0 87 -100 87 -100 170 0 c93 0 168 4 166 8 -5 13 -1012
1112 -1018 1112 -3 -1 -219 -235 -480 -521z m645 -16 l157 -178 -161 -3 c-89
-1 -233 -1 -320 0 l-159 3 156 177 c87 98 160 178 163 178 3 0 77 -80 164
-177z"/>
<path d="M2710 3305 l0 -545 672 2 672 3 38 89 c21 50 38 91 38 93 0 2 -254 3
-565 3 l-565 0 0 450 0 450 -145 0 -145 0 0 -545z"/>
<path d="M4760 3305 l0 -545 145 0 145 0 0 179 0 180 558 4 c494 3 564 6 617
21 119 35 197 93 243 180 25 46 27 61 27 161 0 100 -2 115 -27 161 -42 79
-112 136 -210 170 l-83 29 -707 3 -708 3 0 -546z m1321 334 c52 -16 90 -58
100 -111 17 -92 -24 -163 -109 -193 -39 -13 -120 -15 -534 -15 l-488 0 0 165
0 165 496 0 c344 0 508 -4 535 -11z"/>
<path d="M7280 3305 l0 -545 150 0 150 0 0 545 0 545 -150 0 -150 0 0 -545z"/>
<path d="M8520 3305 l0 -545 135 0 135 0 0 401 c0 373 1 401 17 395 9 -4 352
-191 761 -416 409 -226 745 -410 748 -410 2 0 4 252 4 560 l0 560 -135 0 -135
0 0 -335 c0 -184 -4 -335 -8 -335 -5 0 -282 151 -616 335 l-607 335 -150 0
-149 0 0 -545z"/>
<path d="M11260 3305 l0 -545 745 0 744 0 11 43 c6 23 18 64 26 91 8 27 14 51
14 53 0 2 -279 3 -620 3 l-620 0 0 130 0 130 600 0 600 0 0 100 0 100 -600 0
-600 0 0 120 0 120 600 0 600 0 0 100 0 100 -750 0 -750 0 0 -545z"/>
<path d="M4955 1851 c-38 -16 -58 -50 -63 -106 -4 -52 -3 -56 31 -90 30 -30
42 -35 81 -35 75 0 126 49 126 120 0 87 -91 145 -175 111z m120 -34 c20 -16
28 -35 32 -69 5 -42 3 -50 -25 -78 -66 -65 -172 -22 -172 70 0 86 101 133 165
77z"/>
<path d="M4960 1735 c0 -37 4 -65 10 -65 6 0 10 14 10 30 0 39 12 38 44 -2 29
-37 46 -32 21 6 -16 23 -16 27 -1 41 9 9 16 20 16 24 0 17 -27 31 -62 31 l-38
0 0 -65z m68 33 c3 -13 -3 -18 -22 -18 -20 0 -26 5 -26 21 0 15 5 20 22 17 13
-2 24 -11 26 -20z"/>
<path d="M4270 1800 l0 -50 85 0 85 0 0 -325 0 -325 50 0 50 0 -2 373 -3 372
-132 3 -133 3 0 -51z"/>
<path d="M3420 1470 l0 -370 50 0 50 0 0 165 0 165 178 2 177 3 3 43 3 42
-180 0 -181 0 0 115 0 115 205 0 205 0 0 45 0 45 -255 0 -255 0 0 -370z"/>
<path d="M5790 1795 l0 -45 120 0 120 0 0 -325 0 -325 50 0 50 0 0 325 0 324
123 3 122 3 3 43 3 42 -295 0 -296 0 0 -45z"/>
<path d="M6760 1470 l0 -370 255 0 255 0 0 40 0 40 -210 0 -210 0 0 130 0 130
185 0 185 0 0 45 0 45 -185 0 -185 0 0 110 0 110 200 0 200 0 0 45 0 45 -245
0 -245 0 0 -370z"/>
<path d="M7712 1478 c-78 -200 -142 -367 -142 -371 0 -4 23 -7 51 -5 l51 3 40
108 40 107 162 0 161 0 41 -108 41 -107 58 -3 c52 -3 57 -1 51 15 -4 10 -73
177 -154 370 l-147 353 -55 0 -56 0 -142 -362z m264 95 c35 -92 64 -169 64
-170 0 -2 -58 -3 -130 -3 l-130 0 22 53 c11 28 39 106 62 173 23 67 43 120 45
118 2 -2 32 -79 67 -171z"/>
<path d="M8630 1470 l0 -370 50 0 50 0 2 307 3 307 110 -307 110 -307 50 0 50
0 112 303 112 302 1 -302 0 -303 55 0 55 0 0 370 0 370 -74 0 c-62 0 -76 -3
-80 -17 -3 -10 -55 -153 -115 -318 -93 -254 -111 -296 -119 -275 -5 14 -55
157 -112 318 l-103 292 -79 0 -78 0 0 -370z"/>
<path d="M5356 105 c-66 -47 -124 -89 -130 -95 -7 -7 123 -10 395 -10 l404 0
120 86 c66 47 124 89 129 95 6 5 -141 9 -395 9 l-404 -1 -119 -84z"/>
<path d="M6644 99 c-71 -51 -131 -93 -133 -95 -2 -2 180 -4 406 -4 l410 0 133
95 133 95 -409 0 -410 0 -130 -91z"/>
</g>
</svg>
