<?xml version="1.0" standalone="no"?>
<!DOCTYPE svg PUBLIC "-//W3C//DTD SVG 20010904//EN"
 "http://www.w3.org/TR/2001/REC-SVG-20010904/DTD/svg10.dtd">
<svg version="1.0" xmlns="http://www.w3.org/2000/svg"
 width="488.000000pt" height="204.000000pt" viewBox="0 0 488.000000 204.000000"
 preserveAspectRatio="xMidYMid meet">

<g transform="translate(0.000000,204.000000) scale(0.100000,-0.100000)"
fill="#000000" stroke="none">
<path d="M2436 1493 c-8 -54 -5 -732 4 -768 4 -16 8 158 9 388 0 229 -1 417
-3 417 -2 0 -6 -17 -10 -37z"/>
<path d="M23 1314 c-28 -12 2 -94 33 -94 8 0 20 -11 26 -25 6 -14 16 -25 21
-25 5 0 24 -16 42 -36 30 -33 50 -41 216 -89 161 -48 186 -58 219 -90 32 -32
54 -40 201 -80 165 -45 213 -53 224 -36 3 5 23 24 45 41 l39 31 44 -40 c25
-23 54 -41 67 -41 21 0 163 35 309 77 36 10 65 27 85 49 27 29 52 40 216 88
157 46 189 59 210 83 14 17 33 33 43 36 9 4 22 17 28 31 6 13 20 26 29 29 10
3 25 18 34 35 14 28 14 32 0 46 -14 14 -70 16 -459 16 -469 0 -480 -1 -510
-47 -14 -21 -22 -23 -97 -23 -80 0 -82 1 -109 33 l-27 32 -458 2 c-253 1 -465
-1 -471 -3z m934 -35 c7 -6 13 -15 13 -20 0 -5 -204 -9 -464 -9 -415 0 -465 2
-470 16 -3 9 -4 19 -2 22 7 12 908 3 923 -9z m1183 7 c0 -2 -3 -11 -6 -20 -5
-14 -56 -16 -470 -16 -462 0 -465 0 -454 20 10 20 21 20 470 20 253 0 460 -2
460 -4z m-1555 -65 c7 -12 -47 -18 -279 -31 -162 -9 -181 -9 -198 6 -10 10
-18 21 -18 26 0 11 487 10 495 -1z m985 -66 l0 -75 -482 0 -483 0 2 72 c1 40
2 74 3 76 0 1 216 2 480 2 l480 0 0 -75z m510 67 c0 -5 -6 -16 -13 -26 -11
-16 -26 -16 -197 -6 -238 13 -292 19 -285 31 8 11 495 12 495 1z m-1492 -44
c-5 -13 -380 -60 -404 -51 -11 4 -27 31 -21 34 2 1 346 25 400 28 19 0 27 -3
25 -11z m1279 -7 c73 -4 136 -11 140 -14 4 -4 0 -14 -8 -22 -12 -12 -39 -12
-204 6 -210 23 -219 24 -210 39 3 6 35 7 78 4 40 -3 132 -9 204 -13z m53 -64
c8 -2 -4 -9 -26 -16 -36 -12 -58 -10 -169 8 -133 23 -149 27 -141 40 4 6 283
-20 336 -32z m-1330 25 c0 -5 -60 -19 -134 -31 -116 -19 -140 -21 -178 -10
-50 15 -53 14 111 34 129 15 201 18 201 7z m0 -46 c0 -10 -23 -20 -69 -30 -57
-13 -75 -14 -112 -3 l-44 13 90 16 c118 21 135 21 135 4z m1150 -10 l65 -12
-45 -12 c-39 -11 -54 -10 -109 5 -35 10 -66 24 -69 32 -5 14 25 12 158 -13z
m-1104 -42 c-40 -21 -57 -25 -93 -19 -25 3 -43 9 -40 12 11 10 104 31 142 32
l40 0 -49 -25z m99 -24 c-84 -61 -109 -69 -136 -44 -20 18 -19 19 53 56 47 24
87 37 113 38 l39 0 -69 -50z m83 -27 l-77 -77 -41 13 -41 12 88 64 c61 45 97
65 118 65 29 0 28 -2 -47 -77z m149 70 c-45 -83 -93 -156 -107 -163 -11 -6
-31 -5 -55 1 l-38 11 79 79 c53 54 86 79 102 79 13 0 21 -3 19 -7z m73 0 c0
-26 -64 -192 -75 -197 -7 -2 -29 0 -48 5 l-35 9 56 95 c45 74 62 94 80 95 12
0 22 -3 22 -7z m96 -75 c15 -46 29 -90 32 -98 3 -8 -11 0 -31 18 -21 17 -43
32 -48 32 -6 0 -28 -14 -49 -30 l-38 -30 31 95 c27 82 34 95 53 95 19 0 26
-12 50 -82z m84 10 c24 -40 51 -82 62 -94 18 -21 18 -21 -23 -33 -54 -16 -62
-9 -95 92 -15 45 -29 88 -32 95 -2 7 5 12 21 12 20 0 32 -13 67 -72z m103 -5
c40 -42 71 -79 69 -82 -4 -10 -56 -21 -74 -15 -10 3 -34 33 -54 67 -21 34 -44
72 -52 85 -14 21 -13 22 13 22 21 0 43 -18 98 -77z m99 15 c49 -34 85 -65 80
-69 -4 -4 -22 -10 -40 -14 -31 -6 -37 -2 -110 69 -75 74 -76 76 -47 76 21 0
57 -19 117 -62z m92 25 c65 -32 73 -39 65 -55 -16 -30 -51 -21 -127 33 -40 28
-72 52 -72 55 0 16 71 -2 134 -33z m91 26 c68 -17 73 -20 50 -29 -35 -15 -68
-10 -120 14 l-50 24 40 1 c22 1 58 -4 80 -10z"/>
<path d="M656 1160 c-20 -51 -20 -53 4 -38 15 10 22 10 32 0 6 -6 27 -12 45
-12 43 0 56 27 25 48 -25 16 -30 37 -7 28 8 -3 15 -1 15 4 0 16 -26 12 -41 -6
-12 -15 -11 -19 9 -32 29 -19 28 -32 -2 -32 -19 0 -27 8 -36 35 -16 49 -26 50
-44 5z m24 -5 c0 -8 -4 -15 -10 -15 -5 0 -7 7 -4 15 4 8 8 15 10 15 2 0 4 -7
4 -15z"/>
<path d="M793 1186 c10 -8 17 -26 17 -45 0 -17 5 -31 11 -31 6 0 9 16 8 38 -2
25 1 36 9 35 7 -2 12 2 12 7 0 6 -17 10 -37 10 -34 -1 -36 -2 -20 -14z"/>
<path d="M866 1184 c-19 -18 -20 -28 -6 -55 20 -37 80 -18 80 26 0 42 -44 59
-74 29z m49 -30 c0 -22 -5 -29 -20 -29 -23 0 -32 30 -14 51 18 22 34 11 34
-22z"/>
<path d="M959 1198 c-6 -32 -6 -88 1 -88 6 0 10 12 10 28 l1 27 24 -27 c13
-16 27 -28 30 -28 3 0 4 21 4 48 -2 44 -2 45 -8 13 l-6 -35 -27 33 c-16 18
-28 31 -29 29z"/>
<path d="M1087 1185 c-4 -9 -6 -31 -6 -48 2 -27 2 -28 6 -8 l5 25 19 -25 19
-24 6 23 c8 27 24 29 24 2 0 -11 4 -20 8 -20 7 0 6 56 -2 85 -2 6 -11 -5 -21
-24 l-17 -35 -18 33 c-14 27 -18 30 -23 16z"/>
<path d="M1207 1165 c-22 -46 -22 -58 2 -43 15 9 23 9 35 -1 9 -8 16 -9 16 -3
0 11 -29 82 -33 82 -2 0 -11 -16 -20 -35z m23 -10 c0 -8 -4 -15 -10 -15 -5 0
-7 7 -4 15 4 8 8 15 10 15 2 0 4 -7 4 -15z"/>
<path d="M1281 1153 c1 -26 3 -40 6 -30 6 21 19 22 27 2 3 -8 10 -15 16 -15 6
0 8 5 4 11 -4 7 -7 26 -8 43 -1 24 -6 32 -23 34 -21 3 -23 0 -22 -45z m39 16
c0 -5 -7 -9 -15 -9 -15 0 -20 12 -9 23 8 8 24 -1 24 -14z"/>
<path d="M1340 1190 c0 -5 7 -10 15 -10 10 0 15 -11 16 -37 l2 -38 6 40 c4 24
11 39 19 38 6 -2 12 2 12 7 0 6 -16 10 -35 10 -19 0 -35 -4 -35 -10z"/>
<path d="M1420 1155 c0 -25 5 -45 10 -45 6 0 10 20 10 45 0 25 -4 45 -10 45
-5 0 -10 -20 -10 -45z"/>
<path d="M1462 1155 c0 -31 3 -39 5 -21 l5 28 29 -28 29 -28 -1 50 c-2 45 -2
46 -8 14 l-6 -35 -27 35 -28 35 2 -50z"/>
<path d="M2820 1279 c-32 -13 -68 -47 -86 -81 -21 -40 -18 -136 6 -175 32 -53
71 -67 198 -71 l112 -4 0 118 c0 138 -14 178 -70 206 -38 20 -120 23 -160 7z
m114 -80 c24 -19 26 -26 26 -100 l0 -79 -35 0 c-63 0 -102 23 -116 69 -28 92
55 165 125 110z"/>
<path d="M3182 1270 c-64 -29 -82 -75 -82 -212 l0 -108 45 0 45 0 0 104 c0 96
2 107 24 133 21 24 31 28 69 26 42 -1 45 0 51 29 3 17 6 34 6 39 0 17 -114 9
-158 -11z"/>
<path d="M3432 1273 c-56 -27 -86 -76 -90 -147 -4 -73 18 -121 69 -151 28 -16
56 -21 153 -24 l118 -3 -4 118 c-4 134 -17 172 -71 204 -40 25 -128 26 -175 3z
m129 -72 c21 -17 24 -29 28 -101 l3 -83 -58 5 c-69 6 -104 37 -104 93 0 87 72
134 131 86z"/>
<path d="M3758 1278 l-28 -10 0 -159 0 -159 40 0 40 0 0 129 c0 139 1 141 55
141 47 0 55 -21 55 -151 l0 -119 46 0 46 0 -4 130 c-3 138 -3 140 46 140 46 0
56 -27 56 -154 l0 -117 43 3 42 3 3 75 c5 119 -6 197 -33 228 l-23 27 -179 2
c-98 0 -190 -3 -205 -9z"/>
<path d="M4319 1267 c-56 -37 -79 -81 -79 -149 0 -92 38 -146 119 -168 33 -9
55 -9 90 0 67 17 75 26 50 61 -17 24 -24 27 -39 19 -30 -16 -75 -12 -103 10
-34 27 -43 76 -23 123 22 53 70 68 136 43 10 -4 21 5 32 24 17 30 17 30 -12
45 -45 23 -130 19 -171 -8z"/>
<path d="M4635 1276 c-116 -52 -141 -209 -46 -289 86 -72 207 -51 262 46 28
52 24 138 -11 186 -42 61 -138 87 -205 57z m109 -77 c32 -15 59 -70 50 -104
-3 -14 -20 -37 -37 -51 -89 -75 -200 55 -118 137 31 31 64 36 105 18z"/>
<path d="M3024 398 c-4 -6 -3 -8 4 -4 5 3 13 0 15 -6 4 -10 6 -10 6 0 1 7 6
10 11 7 6 -3 10 -1 10 4 0 15 -37 14 -46 -1z"/>
<path d="M1143 381 c-47 -29 -62 -86 -37 -138 47 -96 194 -61 194 47 0 82 -89
134 -157 91z m102 -41 c18 -35 19 -64 4 -93 -36 -68 -112 -39 -112 43 0 77 76
112 108 50z"/>
<path d="M2474 390 c-36 -14 -64 -59 -64 -101 0 -90 110 -136 174 -73 20 21
26 36 26 71 0 57 -14 81 -55 99 -39 16 -51 16 -81 4z m80 -42 c35 -50 9 -138
-40 -138 -55 0 -86 85 -48 138 20 30 68 30 88 0z"/>
<path d="M950 290 c0 -93 1 -100 20 -100 17 0 20 7 20 45 0 45 0 45 35 45 19
0 35 5 35 10 0 6 -16 10 -35 10 -32 0 -35 2 -35 30 0 28 2 30 40 30 29 0 40 4
40 15 0 12 -13 15 -60 15 l-60 0 0 -100z"/>
<path d="M1340 290 c0 -82 3 -100 15 -100 11 0 15 11 15 40 0 22 4 40 9 40 5
0 24 -18 41 -40 17 -22 40 -40 51 -40 26 0 24 6 -11 47 l-30 34 20 26 c25 32
25 48 0 73 -14 14 -33 20 -65 20 l-45 0 0 -100z m83 59 c15 -24 1 -49 -28 -49
-22 0 -25 4 -25 36 0 31 3 35 21 32 12 -2 27 -10 32 -19z"/>
<path d="M1536 358 c-3 -18 -9 -64 -12 -102 -6 -57 -5 -68 7 -64 9 3 15 23 17
56 2 29 6 52 10 52 5 0 21 -26 36 -57 l28 -58 29 58 c16 31 34 57 39 57 6 0
10 -25 10 -55 0 -49 2 -55 21 -55 20 0 21 3 15 68 -10 98 -17 132 -27 132 -5
0 -24 -29 -41 -65 -18 -36 -35 -65 -38 -65 -3 0 -20 29 -38 65 -17 36 -36 65
-41 65 -5 0 -11 -15 -15 -32z"/>
<path d="M1780 312 c0 -69 3 -81 23 -100 30 -29 89 -30 117 -2 17 17 20 33 20
100 0 62 -3 80 -14 80 -10 0 -14 -18 -13 -76 0 -64 -3 -79 -18 -90 -24 -18
-36 -18 -61 0 -16 12 -19 26 -18 90 0 67 -2 76 -18 76 -16 0 -18 -9 -18 -78z"/>
<path d="M1990 290 l0 -100 60 0 c47 0 60 3 60 15 0 11 -11 15 -40 15 l-40 0
0 85 c0 78 -2 85 -20 85 -19 0 -20 -7 -20 -100z"/>
<path d="M2165 299 c-22 -50 -41 -95 -43 -100 -2 -5 4 -9 13 -9 9 0 21 13 26
30 10 26 16 30 48 30 32 0 38 -4 48 -30 8 -20 18 -30 32 -30 21 0 21 1 5 38
-8 20 -27 65 -42 100 -14 34 -30 62 -36 62 -6 0 -29 -41 -51 -91z m65 -16 c0
-7 -9 -13 -20 -13 -22 0 -23 3 -13 39 6 23 7 23 20 6 7 -11 13 -25 13 -32z"/>
<path d="M2650 290 c0 -82 3 -100 15 -100 12 0 15 14 15 68 l1 67 62 -68 c34
-37 65 -67 70 -67 4 0 7 45 7 100 0 82 -3 100 -15 100 -12 0 -15 -14 -15 -62
l0 -63 -61 63 c-34 34 -65 62 -70 62 -5 0 -9 -45 -9 -100z"/>
<path d="M2870 290 l0 -100 60 0 c47 0 60 3 60 15 0 11 -12 15 -45 15 -43 0
-45 1 -45 30 0 28 3 30 35 30 24 0 35 5 35 15 0 11 -11 15 -36 15 -33 0 -35 2
-32 28 3 25 6 27 41 24 28 -3 37 0 37 12 0 13 -12 16 -55 16 l-55 0 0 -100z"/>
<path d="M3180 375 c0 -10 10 -15 30 -15 l30 0 0 -86 c0 -76 2 -85 18 -82 14
3 17 16 20 86 l3 82 29 0 c20 0 30 5 30 15 0 12 -16 15 -80 15 -64 0 -80 -3
-80 -15z"/>
<path d="M3360 290 l0 -100 60 0 c47 0 60 3 60 15 0 11 -11 15 -40 15 -38 0
-40 2 -40 30 0 28 3 30 35 30 24 0 35 5 35 15 0 10 -11 15 -35 15 -31 0 -35 3
-35 25 0 23 4 25 40 25 29 0 40 4 40 15 0 12 -13 15 -60 15 l-60 0 0 -100z"/>
<path d="M3546 304 c-52 -119 -50 -114 -32 -114 10 0 22 13 27 30 9 25 16 30
45 30 27 0 36 -6 49 -30 9 -18 23 -30 35 -30 18 0 16 7 -17 83 -19 45 -38 90
-40 100 -11 35 -31 15 -67 -69z m64 -21 c0 -7 -11 -13 -24 -13 -24 0 -24 2
-14 32 10 29 12 30 25 13 7 -11 13 -25 13 -32z"/>
<path d="M3726 363 c-3 -16 -8 -53 -11 -83 -4 -30 -9 -63 -12 -73 -4 -14 0
-18 14 -15 14 2 19 15 23 63 l5 60 34 -65 34 -64 32 63 c28 57 33 62 38 40 4
-13 7 -41 7 -61 0 -32 3 -38 21 -38 20 0 21 4 15 58 -13 116 -18 142 -27 142
-5 0 -24 -29 -41 -65 -18 -36 -35 -65 -38 -65 -3 0 -20 29 -38 65 -17 36 -36
65 -41 65 -5 0 -12 -12 -15 -27z"/>
<path d="M3055 370 c-3 -5 -1 -10 4 -10 6 0 11 5 11 10 0 6 -2 10 -4 10 -3 0
-8 -4 -11 -10z"/>
</g>
</svg>
