<svg width="651" height="272" viewBox="0 0 651 272" fill="none" xmlns="http://www.w3.org/2000/svg">
<path d="M324.8 72.9333C323.733 80.1333 324.133 170.533 325.333 175.333C325.867 177.467 326.4 154.267 326.533 123.6C326.533 93.0667 326.4 68 326.133 68C325.867 68 325.333 70.2667 324.8 72.9333Z" fill="white"/>
<path d="M3.0666 96.8C-0.666736 98.4 3.33326 109.333 7.4666 109.333C8.53326 109.333 10.1333 110.8 10.9333 112.667C11.7333 114.533 13.0666 116 13.7333 116C14.3999 116 16.9333 118.133 19.3333 120.8C23.3333 125.2 25.9999 126.267 48.1333 132.667C69.5999 139.067 72.9333 140.4 77.3333 144.667C81.5999 148.933 84.5333 150 104.133 155.333C126.133 161.333 132.533 162.4 134 160.133C134.4 159.467 137.067 156.933 140 154.667L145.2 150.533L151.067 155.867C154.4 158.933 158.267 161.333 160 161.333C162.8 161.333 181.733 156.667 201.2 151.067C206 149.733 209.867 147.467 212.533 144.533C216.133 140.667 219.467 139.2 241.333 132.8C262.267 126.667 266.533 124.933 269.333 121.733C271.2 119.467 273.733 117.333 275.067 116.933C276.267 116.4 278 114.667 278.8 112.8C279.6 111.067 281.467 109.333 282.667 108.933C284 108.533 286 106.533 287.2 104.267C289.067 100.533 289.067 100 287.2 98.1333C285.333 96.2667 277.867 96 226 96C163.467 96 162 96.1333 158 102.267C156.133 105.067 155.067 105.333 145.067 105.333C134.4 105.333 134.133 105.2 130.533 100.933L126.933 96.6667L65.8666 96.4C32.1333 96.2667 3.8666 96.5333 3.0666 96.8ZM127.6 101.467C128.533 102.267 129.333 103.467 129.333 104.133C129.333 104.8 102.133 105.333 67.4666 105.333C12.1333 105.333 5.4666 105.067 4.79993 103.2C4.39993 102 4.2666 100.667 4.53326 100.267C5.4666 98.6667 125.6 99.8667 127.6 101.467ZM285.333 100.533C285.333 100.8 284.933 102 284.533 103.2C283.867 105.067 277.067 105.333 221.867 105.333C160.267 105.333 159.867 105.333 161.333 102.667C162.667 100 164.133 100 224 100C257.733 100 285.333 100.267 285.333 100.533ZM77.9999 109.2C78.9333 110.8 71.7333 111.6 40.7999 113.333C19.1999 114.533 16.6666 114.533 14.3999 112.533C13.0666 111.2 11.9999 109.733 11.9999 109.067C11.9999 107.6 76.9333 107.733 77.9999 109.2ZM209.333 118V128H145.067H80.6666L80.9333 118.4C81.0666 113.067 81.1999 108.533 81.3333 108.267C81.3333 108.133 110.133 108 145.333 108H209.333V118ZM277.333 109.067C277.333 109.733 276.533 111.2 275.6 112.533C274.133 114.667 272.133 114.667 249.333 113.333C217.6 111.6 210.4 110.8 211.333 109.2C212.4 107.733 277.333 107.6 277.333 109.067ZM78.3999 114.933C77.7333 116.667 27.7333 122.933 24.5333 121.733C23.0666 121.2 20.9333 117.6 21.7333 117.2C21.9999 117.067 67.8666 113.867 75.0666 113.467C77.5999 113.467 78.6666 113.867 78.3999 114.933ZM248.933 115.867C258.667 116.4 267.067 117.333 267.6 117.733C268.133 118.267 267.6 119.6 266.533 120.667C264.933 122.267 261.333 122.267 239.333 119.867C211.333 116.8 210.133 116.667 211.333 114.667C211.733 113.867 216 113.733 221.733 114.133C227.067 114.533 239.333 115.333 248.933 115.867ZM256 124.4C257.067 124.667 255.467 125.6 252.533 126.533C247.733 128.133 244.8 127.867 230 125.467C212.267 122.4 210.133 121.867 211.2 120.133C211.733 119.333 248.933 122.8 256 124.4ZM78.6666 121.067C78.6666 121.733 70.6666 123.6 60.7999 125.2C45.3333 127.733 42.1333 128 37.0666 126.533C30.3999 124.533 29.9999 124.667 51.8666 122C69.0666 120 78.6666 119.6 78.6666 121.067ZM78.6666 127.2C78.6666 128.533 75.5999 129.867 69.4666 131.2C61.8666 132.933 59.4666 133.067 54.5333 131.6L48.6666 129.867L60.6666 127.733C76.3999 124.933 78.6666 124.933 78.6666 127.2ZM232 128.533L240.667 130.133L234.667 131.733C229.467 133.2 227.467 133.067 220.133 131.067C215.467 129.733 211.333 127.867 210.933 126.8C210.267 124.933 214.267 125.2 232 128.533ZM84.7999 134.133C79.4666 136.933 77.1999 137.467 72.3999 136.667C69.0666 136.267 66.6666 135.467 67.0666 135.067C68.5333 133.733 80.9333 130.933 85.9999 130.8H91.3333L84.7999 134.133ZM97.9999 137.333C86.7999 145.467 83.4666 146.533 79.8666 143.2C77.1999 140.8 77.3333 140.667 86.9333 135.733C93.1999 132.533 98.5333 130.8 102 130.667H107.2L97.9999 137.333ZM109.067 140.933L98.7999 151.2L93.3333 149.467L87.8666 147.867L99.5999 139.333C107.733 133.333 112.533 130.667 115.333 130.667C119.2 130.667 119.067 130.933 109.067 140.933ZM128.933 131.6C122.933 142.667 116.533 152.4 114.667 153.333C113.2 154.133 110.533 154 107.333 153.2L102.267 151.733L112.8 141.2C119.867 134 124.267 130.667 126.4 130.667C128.133 130.667 129.2 131.067 128.933 131.6ZM138.667 131.6C138.667 135.067 130.133 157.2 128.667 157.867C127.733 158.133 124.8 157.867 122.267 157.2L117.6 156L125.067 143.333C131.067 133.467 133.333 130.8 135.733 130.667C137.333 130.667 138.667 131.067 138.667 131.6ZM151.467 141.6C153.467 147.733 155.333 153.6 155.733 154.667C156.133 155.733 154.267 154.667 151.6 152.267C148.8 150 145.867 148 145.2 148C144.4 148 141.467 149.867 138.667 152L133.6 156L137.733 143.333C141.333 132.4 142.267 130.667 144.8 130.667C147.333 130.667 148.267 132.267 151.467 141.6ZM162.667 140.267C165.867 145.6 169.467 151.2 170.933 152.8C173.333 155.6 173.333 155.6 167.867 157.2C160.667 159.333 159.6 158.4 155.2 144.933C153.2 138.933 151.333 133.2 150.933 132.267C150.667 131.333 151.6 130.667 153.733 130.667C156.4 130.667 158 132.4 162.667 140.267ZM176.4 140.933C181.733 146.533 185.867 151.467 185.6 151.867C185.067 153.2 178.133 154.667 175.733 153.867C174.4 153.467 171.2 149.467 168.533 144.933C165.733 140.4 162.667 135.333 161.6 133.6C159.733 130.8 159.867 130.667 163.333 130.667C166.133 130.667 169.067 133.067 176.4 140.933ZM189.6 138.933C196.133 143.467 200.933 147.6 200.267 148.133C199.733 148.667 197.333 149.467 194.933 150C190.8 150.8 190 150.267 180.267 140.8C170.267 130.933 170.133 130.667 174 130.667C176.8 130.667 181.6 133.2 189.6 138.933ZM201.867 135.6C210.533 139.867 211.6 140.8 210.533 142.933C208.4 146.933 203.733 145.733 193.6 138.533C188.267 134.8 184 131.6 184 131.2C184 129.067 193.467 131.467 201.867 135.6ZM214 132.133C223.067 134.4 223.733 134.8 220.667 136C216 138 211.6 137.333 204.667 134.133L198 130.933L203.333 130.8C206.267 130.667 211.067 131.333 214 132.133Z" fill="white"/>
<path d="M87.4666 117.333C84.7999 124.133 84.7999 124.4 87.9999 122.4C89.9999 121.067 90.9332 121.067 92.2666 122.4C93.0666 123.2 95.8666 124 98.2666 124C104 124 105.733 120.4 101.6 117.6C98.2666 115.467 97.5999 112.667 100.667 113.867C101.733 114.267 102.667 114 102.667 113.333C102.667 111.2 99.1999 111.733 97.1999 114.133C95.5999 116.133 95.7332 116.667 98.3999 118.4C102.267 120.933 102.133 122.667 98.1332 122.667C95.5999 122.667 94.5332 121.6 93.3332 118C91.1999 111.467 89.8666 111.333 87.4666 117.333ZM90.6666 118C90.6666 119.067 90.1332 120 89.3332 120C88.6666 120 88.3999 119.067 88.7999 118C89.3332 116.933 89.8666 116 90.1332 116C90.3999 116 90.6666 116.933 90.6666 118Z" fill="white"/>
<path d="M105.733 113.867C107.067 114.933 108 117.333 108 119.867C108 122.133 108.667 124 109.467 124C110.267 124 110.667 121.867 110.533 118.933C110.267 115.6 110.667 114.133 111.733 114.267C112.667 114.533 113.333 114 113.333 113.333C113.333 112.533 111.067 112 108.4 112C103.867 112.133 103.6 112.267 105.733 113.867Z" fill="white"/>
<path d="M115.467 114.133C112.933 116.533 112.8 117.867 114.667 121.467C117.333 126.4 125.333 123.867 125.333 118C125.333 112.4 119.467 110.133 115.467 114.133ZM122 118.133C122 121.067 121.333 122 119.333 122C116.267 122 115.067 118 117.467 115.2C119.867 112.267 122 113.733 122 118.133Z" fill="white"/>
<path d="M127.867 112.267C127.067 116.533 127.067 124 128 124C128.8 124 129.333 122.4 129.333 120.267L129.467 116.667L132.667 120.267C134.4 122.4 136.267 124 136.667 124C137.067 124 137.2 121.2 137.2 117.6C136.933 111.733 136.933 111.6 136.133 115.867L135.333 120.533L131.733 116.133C129.6 113.733 128 112 127.867 112.267Z" fill="white"/>
<path d="M144.933 114C144.4 115.2 144.133 118.133 144.133 120.4C144.4 124 144.4 124.133 144.933 121.467L145.6 118.133L148.133 121.467L150.667 124.667L151.467 121.6C152.533 118 154.667 117.733 154.667 121.333C154.667 122.8 155.2 124 155.733 124C156.667 124 156.533 116.533 155.467 112.667C155.2 111.867 154 113.333 152.667 115.867L150.4 120.533L148 116.133C146.133 112.533 145.6 112.133 144.933 114Z" fill="white"/>
<path d="M160.933 116.667C158 122.8 158 124.4 161.2 122.4C163.2 121.2 164.267 121.2 165.867 122.533C167.067 123.6 168 123.733 168 122.933C168 121.467 164.133 112 163.6 112C163.333 112 162.133 114.133 160.933 116.667ZM164 118C164 119.067 163.467 120 162.667 120C162 120 161.733 119.067 162.133 118C162.667 116.933 163.2 116 163.467 116C163.733 116 164 116.933 164 118Z" fill="white"/>
<path d="M170.8 118.267C170.933 121.733 171.2 123.6 171.6 122.267C172.4 119.467 174.133 119.333 175.2 122C175.6 123.067 176.533 124 177.333 124C178.133 124 178.4 123.333 177.867 122.533C177.333 121.6 176.933 119.067 176.8 116.8C176.667 113.6 176 112.533 173.733 112.267C170.933 111.867 170.667 112.267 170.8 118.267ZM176 116.133C176 116.8 175.067 117.333 174 117.333C172 117.333 171.333 115.733 172.8 114.267C173.867 113.2 176 114.4 176 116.133Z" fill="white"/>
<path d="M178.667 113.333C178.667 114 179.6 114.667 180.667 114.667C182 114.667 182.667 116.133 182.8 119.6L183.067 124.667L183.867 119.333C184.4 116.133 185.333 114.133 186.4 114.267C187.2 114.533 188 114 188 113.333C188 112.533 185.867 112 183.333 112C180.8 112 178.667 112.533 178.667 113.333Z" fill="white"/>
<path d="M189.333 118C189.333 121.333 190 124 190.667 124C191.467 124 192 121.333 192 118C192 114.667 191.467 112 190.667 112C190 112 189.333 114.667 189.333 118Z" fill="white"/>
<path d="M194.933 118C194.933 122.133 195.333 123.2 195.6 120.8L196.267 117.067L200.133 120.8L204 124.533L203.867 117.867C203.6 111.867 203.6 111.733 202.8 116L202 120.667L198.4 116L194.667 111.333L194.933 118Z" fill="white"/>
<path d="M376 101.467C371.733 103.2 366.933 107.733 364.533 112.267C361.733 117.6 362.133 130.4 365.333 135.6C369.6 142.667 374.8 144.533 391.733 145.067L406.667 145.6V129.867C406.667 111.467 404.8 106.133 397.333 102.4C392.267 99.7333 381.333 99.3333 376 101.467ZM391.2 112.133C394.4 114.667 394.667 115.6 394.667 125.467V136H390C381.6 136 376.4 132.933 374.533 126.8C370.8 114.533 381.867 104.8 391.2 112.133Z" fill="white"/>
<path d="M424.267 102.667C415.733 106.533 413.333 112.667 413.333 130.933V145.333H419.333H425.333V131.467C425.333 118.667 425.6 117.2 428.533 113.733C431.333 110.533 432.667 110 437.733 110.267C443.333 110.4 443.733 110.267 444.533 106.4C444.933 104.133 445.333 101.867 445.333 101.2C445.333 98.9333 430.133 100 424.267 102.667Z" fill="white"/>
<path d="M457.6 102.267C450.133 105.867 446.133 112.4 445.6 121.867C445.067 131.6 448 138 454.8 142C458.533 144.133 462.267 144.8 475.2 145.2L490.933 145.6L490.4 129.867C489.867 112 488.133 106.933 480.933 102.667C475.6 99.3333 463.867 99.2 457.6 102.267ZM474.8 111.867C477.6 114.133 478 115.733 478.533 125.333L478.933 136.4L471.2 135.733C462 134.933 457.333 130.8 457.333 123.333C457.333 111.733 466.933 105.467 474.8 111.867Z" fill="white"/>
<path d="M501.067 101.6L497.333 102.933V124.133V145.333H502.667H508V128.133C508 109.6 508.133 109.333 515.333 109.333C521.6 109.333 522.667 112.133 522.667 129.467V145.333H528.8H534.933L534.4 128C534 109.6 534 109.333 540.533 109.333C546.667 109.333 548 112.933 548 129.867V145.467L553.733 145.067L559.333 144.667L559.733 134.667C560.4 118.8 558.933 108.4 555.333 104.267L552.267 100.667L528.4 100.4C515.333 100.4 503.067 100.8 501.067 101.6Z" fill="white"/>
<path d="M575.867 103.067C568.4 108 565.333 113.867 565.333 122.933C565.333 135.2 570.4 142.4 581.2 145.333C585.6 146.533 588.533 146.533 593.2 145.333C602.133 143.067 603.2 141.867 599.867 137.2C597.6 134 596.667 133.6 594.667 134.667C590.667 136.8 584.667 136.267 580.933 133.333C576.4 129.733 575.2 123.2 577.867 116.933C580.8 109.867 587.2 107.867 596 111.2C597.333 111.733 598.8 110.533 600.267 108C602.533 104 602.533 104 598.667 102C592.667 98.9333 581.333 99.4667 575.867 103.067Z" fill="white"/>
<path d="M618 101.867C602.533 108.8 599.2 129.733 611.867 140.4C623.333 150 639.467 147.2 646.8 134.267C650.533 127.333 650 115.867 645.333 109.467C639.733 101.333 626.933 97.8667 618 101.867ZM632.533 112.133C636.8 114.133 640.4 121.467 639.2 126C638.8 127.867 636.533 130.933 634.267 132.8C622.4 142.8 607.6 125.467 618.533 114.533C622.667 110.4 627.067 109.733 632.533 112.133Z" fill="white"/>
<path d="M403.2 218.933C402.667 219.733 402.8 220 403.733 219.467C404.4 219.067 405.467 219.467 405.733 220.267C406.267 221.6 406.533 221.6 406.533 220.267C406.667 219.333 407.333 218.933 408 219.333C408.8 219.733 409.333 219.467 409.333 218.8C409.333 216.8 404.4 216.933 403.2 218.933Z" fill="white"/>
<path d="M152.4 221.2C146.133 225.067 144.133 232.667 147.467 239.6C153.733 252.4 173.333 247.733 173.333 233.333C173.333 222.4 161.467 215.467 152.4 221.2ZM166 226.667C168.4 231.333 168.533 235.2 166.533 239.067C161.733 248.133 151.6 244.267 151.6 233.333C151.6 223.067 161.733 218.4 166 226.667Z" fill="white"/>
<path d="M329.867 220C325.067 221.867 321.333 227.867 321.333 233.467C321.333 245.467 336 251.6 344.533 243.2C347.2 240.4 348 238.4 348 233.733C348 226.133 346.133 222.933 340.667 220.533C335.467 218.4 333.867 218.4 329.867 220ZM340.533 225.6C345.2 232.267 341.733 244 335.2 244C327.867 244 323.733 232.667 328.8 225.6C331.467 221.6 337.867 221.6 340.533 225.6Z" fill="white"/>
<path d="M126.667 233.333C126.667 245.733 126.8 246.667 129.333 246.667C131.6 246.667 132 245.733 132 240.667C132 234.667 132 234.667 136.667 234.667C139.2 234.667 141.333 234 141.333 233.333C141.333 232.533 139.2 232 136.667 232C132.4 232 132 231.733 132 228C132 224.267 132.267 224 137.333 224C141.2 224 142.667 223.467 142.667 222C142.667 220.4 140.933 220 134.667 220H126.667V233.333Z" fill="white"/>
<path d="M178.667 233.333C178.667 244.267 179.067 246.667 180.667 246.667C182.133 246.667 182.667 245.2 182.667 241.333C182.667 238.4 183.2 236 183.867 236C184.533 236 187.067 238.4 189.333 241.333C191.6 244.267 194.667 246.667 196.133 246.667C199.6 246.667 199.333 245.867 194.667 240.4L190.667 235.867L193.333 232.4C196.667 228.133 196.667 226 193.333 222.667C191.467 220.8 188.933 220 184.667 220H178.667V233.333ZM189.733 225.467C191.733 228.667 189.867 232 186 232C183.067 232 182.667 231.467 182.667 227.2C182.667 223.067 183.067 222.533 185.467 222.933C187.067 223.2 189.067 224.267 189.733 225.467Z" fill="white"/>
<path d="M204.8 224.267C204.4 226.667 203.6 232.8 203.2 237.867C202.4 245.467 202.533 246.933 204.133 246.4C205.333 246 206.133 243.333 206.4 238.933C206.667 235.067 207.2 232 207.733 232C208.4 232 210.533 235.467 212.533 239.6L216.267 247.333L220.133 239.6C222.267 235.467 224.667 232 225.333 232C226.133 232 226.667 235.333 226.667 239.333C226.667 245.867 226.933 246.667 229.467 246.667C232.133 246.667 232.267 246.267 231.467 237.6C230.133 224.533 229.2 220 227.867 220C227.2 220 224.667 223.867 222.4 228.667C220 233.467 217.733 237.333 217.333 237.333C216.933 237.333 214.667 233.467 212.267 228.667C210 223.867 207.467 220 206.8 220C206.133 220 205.333 222 204.8 224.267Z" fill="white"/>
<path d="M237.333 230.4C237.333 239.6 237.733 241.2 240.4 243.733C244.4 247.6 252.267 247.733 256 244C258.267 241.733 258.667 239.6 258.667 230.667C258.667 222.4 258.267 220 256.8 220C255.467 220 254.933 222.4 255.067 230.133C255.067 238.667 254.667 240.667 252.667 242.133C249.467 244.533 247.867 244.533 244.533 242.133C242.4 240.533 242 238.667 242.133 230.133C242.133 221.2 241.867 220 239.733 220C237.6 220 237.333 221.2 237.333 230.4Z" fill="white"/>
<path d="M265.333 233.333V246.667H273.333C279.6 246.667 281.333 246.267 281.333 244.667C281.333 243.2 279.867 242.667 276 242.667H270.667V231.333C270.667 220.933 270.4 220 268 220C265.467 220 265.333 220.933 265.333 233.333Z" fill="white"/>
<path d="M288.667 232.133C285.733 238.8 283.2 244.8 282.933 245.467C282.667 246.133 283.467 246.667 284.667 246.667C285.867 246.667 287.467 244.933 288.133 242.667C289.467 239.2 290.267 238.667 294.533 238.667C298.8 238.667 299.6 239.2 300.933 242.667C302 245.333 303.333 246.667 305.2 246.667C308 246.667 308 246.533 305.867 241.6C304.8 238.933 302.267 232.933 300.267 228.267C298.4 223.733 296.267 220 295.467 220C294.667 220 291.6 225.467 288.667 232.133ZM297.333 234.267C297.333 235.2 296.133 236 294.667 236C291.733 236 291.6 235.6 292.933 230.8C293.733 227.733 293.867 227.733 295.6 230C296.533 231.467 297.333 233.333 297.333 234.267Z" fill="white"/>
<path d="M353.333 233.333C353.333 244.267 353.733 246.667 355.333 246.667C356.933 246.667 357.333 244.8 357.333 237.6L357.467 228.667L365.733 237.733C370.267 242.667 374.4 246.667 375.067 246.667C375.6 246.667 376 240.667 376 233.333C376 222.4 375.6 220 374 220C372.4 220 372 221.867 372 228.267V236.667L363.867 228.267C359.333 223.733 355.2 220 354.533 220C353.867 220 353.333 226 353.333 233.333Z" fill="white"/>
<path d="M382.667 233.333V246.667H390.667C396.933 246.667 398.667 246.267 398.667 244.667C398.667 243.2 397.067 242.667 392.667 242.667C386.933 242.667 386.667 242.533 386.667 238.667C386.667 234.933 387.067 234.667 391.333 234.667C394.533 234.667 396 234 396 232.667C396 231.2 394.533 230.667 391.2 230.667C386.8 230.667 386.533 230.4 386.933 226.933C387.333 223.6 387.733 223.333 392.4 223.733C396.133 224.133 397.333 223.733 397.333 222.133C397.333 220.4 395.733 220 390 220H382.667V233.333Z" fill="white"/>
<path d="M424 222C424 223.333 425.333 224 428 224H432V235.467C432 245.6 432.267 246.8 434.4 246.4C436.267 246 436.667 244.267 437.067 234.933L437.467 224H441.333C444 224 445.333 223.333 445.333 222C445.333 220.4 443.2 220 434.667 220C426.133 220 424 220.4 424 222Z" fill="white"/>
<path d="M448 233.333V246.667H456C462.267 246.667 464 246.267 464 244.667C464 243.2 462.533 242.667 458.667 242.667C453.6 242.667 453.333 242.4 453.333 238.667C453.333 234.933 453.733 234.667 458 234.667C461.2 234.667 462.667 234 462.667 232.667C462.667 231.333 461.2 230.667 458 230.667C453.867 230.667 453.333 230.267 453.333 227.333C453.333 224.267 453.867 224 458.667 224C462.533 224 464 223.467 464 222C464 220.4 462.267 220 456 220H448V233.333Z" fill="white"/>
<path d="M472.8 231.467C465.867 247.333 466.133 246.667 468.533 246.667C469.867 246.667 471.467 244.933 472.133 242.667C473.333 239.333 474.267 238.667 478.133 238.667C481.733 238.667 482.933 239.467 484.667 242.667C485.867 245.067 487.733 246.667 489.333 246.667C491.733 246.667 491.467 245.733 487.067 235.6C484.533 229.6 482 223.6 481.733 222.267C480.267 217.6 477.6 220.267 472.8 231.467ZM481.333 234.267C481.333 235.2 479.867 236 478.133 236C474.933 236 474.933 235.733 476.267 231.733C477.6 227.867 477.867 227.733 479.6 230C480.533 231.467 481.333 233.333 481.333 234.267Z" fill="white"/>
<path d="M496.8 223.6C496.4 225.733 495.733 230.667 495.333 234.667C494.8 238.667 494.133 243.067 493.733 244.4C493.2 246.267 493.733 246.8 495.6 246.4C497.467 246.133 498.133 244.4 498.667 238L499.333 230L503.867 238.667L508.4 247.2L512.667 238.8C516.4 231.2 517.067 230.533 517.733 233.467C518.267 235.2 518.667 238.933 518.667 241.6C518.667 245.867 519.067 246.667 521.467 246.667C524.133 246.667 524.267 246.133 523.467 238.933C521.733 223.467 521.067 220 519.867 220C519.2 220 516.667 223.867 514.4 228.667C512 233.467 509.733 237.333 509.333 237.333C508.933 237.333 506.667 233.467 504.267 228.667C502 223.867 499.467 220 498.8 220C498.133 220 497.2 221.6 496.8 223.6Z" fill="white"/>
<path d="M407.333 222.667C406.933 223.333 407.2 224 407.867 224C408.667 224 409.333 223.333 409.333 222.667C409.333 221.867 409.067 221.333 408.8 221.333C408.4 221.333 407.733 221.867 407.333 222.667Z" fill="white"/>
</svg>
