<svg width="243" height="98" viewBox="0 0 243 98" fill="none" xmlns="http://www.w3.org/2000/svg">
<g clip-path="url(#clip0_1_225)">
<path d="M125.02 4.35001L91.4399 96.72H92.7599L126.34 4.35001H125.02Z" fill="white"/>
<path d="M0 8.93V10.76L35.76 4.68L71.51 10.77V8.93L35.76 2.31L0 8.93Z" fill="white"/>
<path d="M71.51 10.75L35.75 4.67L0 10.75L0.09 16.75C0.09 16.75 18.06 8.95 35.76 8.95C53.46 8.95 71.43 16.75 71.43 16.75L71.52 10.75H71.51Z" fill="#D02F28"/>
<path d="M35.76 8.71001C13.42 8.71001 0.0899658 16.61 0.0899658 16.61L0.359966 34.6C0.359966 42.86 3.05996 77.99 35.76 97.12C68.48 77.99 71.16 42.87 71.16 34.59L71.43 16.6C71.43 16.6 58.11 8.70001 35.76 8.70001V8.71001Z" fill="#1D1D1C"/>
<path d="M70.0801 17.9C70.0801 17.9 58.4601 10.5 35.7501 10.5C13.0401 10.5 1.43005 17.9 1.43005 17.9L1.79005 34.6C1.79005 41.14 3.04005 76.19 35.7601 95.21C68.4801 76.19 69.7301 41.15 69.7301 34.6L70.09 17.9H70.0801Z" fill="#FAEB53"/>
<path d="M34.95 13.27C34.95 13.27 34.91 13.66 34.82 13.88C34.74 14.09 34.51 14.23 34.52 14.37C34.54 14.51 34.68 14.67 34.91 14.79C35.13 14.91 35.22 15 35.45 15.05C35.66 15.1 35.93 15.26 36.01 15.08C36.09 14.9 35.97 14.68 35.84 14.47C35.62 14.1 35.5 14.02 35.17 13.51C35.1 13.4 35.04 13.28 34.94 13.27H34.95Z" fill="#1D1D1C"/>
<path d="M33.28 53.01C33.3 52.95 33.83 53.28 34.11 53.44C34.69 53.79 34.95 53.99 35.46 54.38C35.86 54.69 36.06 54.85 36.47 55.2C36.97 55.63 37.24 56 37.37 55.91C37.56 55.68 37.05 54.99 36.6 54.62C36.16 54.26 35.7 53.96 35.35 53.73C34.9 53.43 34.86 53.36 34.18 52.91C33.45 52.42 32.82 51.81 32.82 51.81L32.11 51.25L31 50.31L29.77 49.17L28.84 48.13C28.84 48.13 28.12 47.25 28 47.08C27.88 46.91 27.54 46.36 27.26 45.9C27.01 45.49 26.52 44.84 26.47 44.78C26.21 44.46 25.61 44.59 24.91 44.18C24.06 43.68 23.86 43.22 23.86 43.22C23.86 43.22 23.83 43.15 23.8 43.12C23.77 43.08 23.7 43.04 23.7 43.04L23.26 42.73L23 42.56C23 42.56 22.81 42.4 22.56 42.3C22.32 42.19 21.77 41.88 21.77 41.88L20.8 41.26C20.8 41.26 20.42 40.95 20.29 40.85C20.16 40.75 19.92 40.61 19.92 40.61C19.92 40.61 19.77 40.53 19.72 40.53C19.67 40.53 19.47 40.51 19.47 40.51C19.47 40.51 19.28 40.46 19.09 40.69C18.9 40.91 18.94 40.79 19.25 42.05C19.37 42.55 19.36 44.3 19.49 44.83C19.66 45.52 20.14 46.4 20.19 46.51C20.24 46.61 20.27 47 20.27 47C20.27 47 20.25 47.31 20.28 47.51C20.43 48.41 21.75 47.82 22.04 49.06C22.33 50.28 21.87 51.51 21.87 51.51C21.87 51.51 21.58 52.12 21.18 52.21C20.78 52.31 20.16 51.42 19.71 50.7C19.27 49.99 18.9 49.06 18.79 48.77C18.67 48.48 18.61 48.41 18.48 48.2C18.28 47.88 18.12 47.94 17.9 47.44C17.68 46.94 17.87 46.74 17.77 46.3C17.71 46.06 17.66 46.03 17.58 45.68C17.5 45.33 17.41 44.23 17.41 44.23L17.27 43.21C17.27 43.21 17.22 42.74 17.16 42.45C16.94 41.43 16.86 40.44 16.86 40.44L16.82 40.03L16.8 39.61C16.8 39.61 16.79 39.41 16.84 39.2C16.89 38.99 16.99 38.82 16.99 38.82C16.99 38.82 17.19 38.47 17.23 38.39C17.27 38.31 17.69 37.82 17.69 37.82C17.69 37.82 17.91 37.64 18.27 37.42C18.63 37.2 18.96 37.22 18.96 37.22C18.96 37.22 19.05 37.21 19.69 37.29C20.33 37.37 21.65 37.72 21.98 37.81C22.31 37.9 22.7 38.04 22.96 38.18C23.69 38.58 23.91 38.41 23.33 37.95C22.94 37.64 22.83 37.51 22.51 37.22C22.24 36.98 22.03 36.81 21.84 36.59C21.64 36.36 21.07 35.52 21.07 35.52L20.72 35C20.72 35 20.53 34.79 20.5 34.77C20.47 34.75 20.37 34.68 20.37 34.68C20.37 34.68 20.14 34.69 19.89 34.65C19.65 34.6 19.53 34.94 19.53 34.94C19.53 34.94 19 35.92 18.47 36.53C17.6 37.51 16.98 38.17 16.66 38.69C16.21 39.41 16.31 40.2 16.08 40.57C15.94 40.78 15.87 40.82 15.8 41C15.58 41.57 16.39 41.88 16.21 42.51C15.91 43.5 13.58 44.49 13.27 44.33C12.95 44.16 13.21 42.81 13.32 42.38C13.43 41.94 13.76 41.3 13.79 41.26C13.82 41.23 13.9 41.08 13.92 40.95C13.95 40.82 13.95 40.53 13.97 40.37C13.99 40.21 14.05 39.95 14.05 39.95C14.05 39.95 14.06 39.9 14.27 39.45C14.48 39 15.24 37.95 15.78 36.95C16.14 36.3 16.29 35.9 16.65 35.25C16.98 34.65 17.55 33.74 17.55 33.74C17.55 33.74 17.79 33.27 17.9 33.1C18.01 32.92 18.25 32.59 18.48 32.26C18.71 31.93 18.76 31.68 19.06 31.41C19.31 31.18 19.47 31.06 19.79 30.96C20.27 30.8 20.59 30.89 21.07 31.02C21.57 31.16 21.92 31.39 22.25 31.66C22.58 31.93 22.82 32.24 22.82 32.24L22.98 32.47L23.08 32.53L23.39 32.73L24.09 33.19C24.09 33.19 25.75 34.32 25.84 34.38C25.93 34.44 26.22 34.68 26.29 34.7C26.35 34.72 26.79 34.24 27.66 33.64C28.66 32.95 29.02 33 29.35 32.82C29.68 32.64 29.81 32.49 30.07 32.23C30.46 31.84 30.46 31.63 30.9 31.09C31.34 30.55 31.76 30.24 31.76 30.24C31.76 30.24 31.82 30.18 32.61 29.29C33.4 28.4 33.75 27.72 33.75 27.72L34.18 26.85C34.18 26.85 34.81 25.5 35.01 24.96C35.21 24.42 35.21 24.25 35.21 24.25C35.21 24.25 35.24 24.11 35.09 23.84C34.93 23.57 34.77 23.69 34.47 23.75C33.89 23.87 33.54 23.72 32.96 23.62C32.43 23.53 32.15 23.37 31.61 23.28C31.07 23.19 30.75 23.1 30.21 23.15C30.13 23.15 29.96 23.19 29.88 23.22C29.58 23.32 29.49 23.35 29.26 23.48C29 23.6 28.82 23.64 28.53 23.65C28.33 23.65 28.21 23.65 28.02 23.59C27.89 23.54 27.82 23.5 27.72 23.41C27.66 23.35 27.63 23.32 27.58 23.25C27.58 23.19 27.56 23.2 27.61 23.1C27.66 23.01 27.73 22.99 27.73 22.99L27.98 22.93C27.98 22.93 28.33 22.84 28.36 22.83C28.39 22.83 28.72 22.71 28.87 22.67C29.02 22.62 29.18 22.54 29.18 22.54C29.18 22.54 29.27 22.4 29.23 22.32C29.19 22.23 28.99 22.22 28.99 22.22C28.99 22.22 28.71 22.32 28.68 22.33C28.65 22.33 28.21 22.48 28.21 22.48C28.21 22.48 27.86 22.56 27.59 22.62C27.32 22.68 26.93 22.71 26.93 22.71L26.81 22.68C26.81 22.68 26.68 22.59 26.66 22.5C26.64 22.42 26.63 22.35 26.61 22.26C26.55 21.92 26.48 21.71 26.56 21.37C26.59 21.23 26.63 21.15 26.69 21.02C26.74 20.91 26.78 20.85 26.84 20.74L27.06 20.39L27.46 19.79C27.6 19.65 27.69 19.58 27.86 19.48C28.12 19.33 28.27 19.29 28.59 19.26C28.91 19.23 28.95 19.23 29.4 19.13C29.85 19.03 30.17 18.85 30.17 18.85C30.17 18.85 31.24 18.45 31.9 18.13C32.59 17.79 32.89 17.43 33.6 17.16C33.9 17.04 34.07 16.99 34.38 16.91C34.42 16.89 34.44 16.86 34.45 16.82C34.48 16.7 34.3 16.65 34.19 16.66C34.08 16.67 33.84 16.78 33.78 16.66C33.74 16.56 34 16.51 34 16.51C34 16.51 34.13 16.45 34.13 16.38C34.13 16.28 33.95 16.34 33.87 16.33C33.45 16.28 33.42 16.21 33.13 16.14C32.79 16.06 32.6 15.95 32.25 15.94C31.94 15.93 31.64 15.99 31.45 16.04C31.26 16.09 31.25 15.9 31.33 15.86C31.88 15.6 31.89 15.58 32.27 15.57C32.48 15.57 32.78 15.61 32.81 15.62C32.84 15.64 33.26 15.62 33.37 15.51C33.48 15.4 33.02 15.41 32.81 15.32C32.61 15.24 32.31 15.22 32.32 15.09C32.32 14.96 32.48 15.03 32.58 15C32.71 14.97 32.79 14.97 32.92 14.95C33.16 14.92 33.18 14.9 33.54 14.86C33.9 14.83 34.41 14.98 34.41 14.98C34.41 14.98 34.95 15.22 35.21 15.34C35.47 15.46 35.79 15.53 35.79 15.53C35.79 15.53 36.16 15.58 36.45 15.41C36.74 15.23 36.58 15.12 36.47 14.95C36.37 14.8 36.25 14.58 36.43 14.16C36.59 13.79 36.68 13.37 36.72 13.33C36.78 13.28 37.01 13.61 37.15 13.75C37.67 14.24 38.37 14.48 39.02 15.51C39.07 15.59 39.32 15.46 40.08 15.58C40.84 15.7 41.5 16.51 41.67 16.7C41.84 16.89 42.07 16.89 42.07 16.89L42.43 16.94L43.76 16.96C43.76 16.96 44.36 16.85 44.71 16.98C44.95 17.07 45.76 17.61 45.39 17.82C45.13 17.96 44.89 17.65 44.66 17.63C44.39 17.61 44.26 17.66 44.02 17.73C43.51 17.86 42.4 18.19 42.8 18.33C42.83 18.34 42.89 18.35 42.89 18.35L43.09 18.38C43.09 18.38 43.57 18.49 43.87 18.61C44.31 18.79 44.52 18.98 44.93 19.22C45.16 19.35 45.26 19.49 45.52 19.56C45.75 19.63 45.9 19.56 46.14 19.6C46.45 19.66 46.63 19.72 46.92 19.86C47.34 20.07 47.5 20.31 47.89 20.59C48.08 20.73 48.24 20.75 48.38 20.94C48.41 20.98 48.44 21 48.46 21.05C48.51 21.22 48.18 21.12 48 21.09C47.81 21.06 47.72 20.96 47.55 20.88C47.28 20.76 47.16 20.62 46.87 20.56C46.66 20.52 46.53 20.56 46.32 20.56C46.11 20.56 46 20.6 45.79 20.61C45.43 20.61 45.23 20.58 44.88 20.51C44.49 20.43 44.3 20.27 43.9 20.19C43.46 20.1 42.68 19.72 42.76 20.1C42.8 20.28 43.21 20.43 43.21 20.43C43.21 20.43 43.49 20.59 43.76 20.7C44.03 20.82 44.18 20.99 44.18 20.99L44.37 21.13C44.37 21.13 44.56 21.39 44.81 21.69C45.06 21.98 45.49 21.98 45.49 21.98C45.49 21.98 45.75 21.98 46.32 22.1C46.89 22.22 47.47 22.57 47.47 22.57C47.47 22.57 47.91 22.87 48.17 23.18C48.43 23.48 48.28 23.64 48.25 23.67C48.22 23.7 48.23 23.69 48.2 23.7C48.17 23.72 47.85 23.32 47.85 23.32L47.63 23.13C47.63 23.13 47.41 22.97 47.12 22.88C46.83 22.79 46.74 22.85 46.74 22.85C46.74 22.85 46.13 23.02 45.6 23.01C45.07 22.99 44.79 22.78 44.79 22.78L44.46 22.56C44.46 22.56 43.96 22.09 43.94 22.31C43.93 22.46 44.16 22.63 44.16 22.63C44.16 22.63 44.32 22.79 44.43 22.9C44.63 23.1 44.71 23.2 44.95 23.41C45.18 23.62 45.33 23.62 45.33 23.62C45.33 23.62 45.45 23.65 45.5 23.66C45.55 23.66 45.63 23.69 45.63 23.69C45.63 23.69 45.71 23.72 46.07 23.87C46.44 24.02 46.82 24.34 46.82 24.34C46.82 24.34 46.86 24.37 46.91 24.38C46.96 24.38 47.07 24.44 47.1 24.45C47.13 24.45 47.22 24.45 47.43 24.49C47.64 24.52 47.56 24.65 47.56 24.65L47.52 24.7L47.35 24.82C47.35 24.82 47.12 24.88 46.97 24.89C46.81 24.89 46.6 24.81 46.6 24.81L46.13 24.63C46.13 24.63 45.66 24.51 45.56 24.49C45.46 24.47 45.03 24.39 44.96 24.37C44.89 24.35 44.67 24.28 44.62 24.25C44.57 24.22 44.46 24.2 44.2 24.07C43.94 23.95 43.84 23.8 43.52 23.7C43.2 23.6 43.01 23.58 42.77 23.75C42.36 24.03 43.39 24.08 43.91 24.34C44.67 24.71 45.1 24.99 45.28 25.39C45.46 25.79 45.65 25.94 45.65 25.94C45.65 25.94 46.18 26.21 46.42 26.49C46.55 26.64 46.57 26.77 46.7 26.92C46.99 27.26 47.56 27.25 47.68 27.54C47.79 27.81 47.22 27.69 46.92 27.66C46.39 27.61 46.26 27.12 45.76 26.92C45.48 26.81 45.3 26.81 45.01 26.71C44.49 26.54 44.24 26.31 43.72 26.15C43.41 26.05 42.83 25.63 42.9 25.96C42.92 26.04 42.96 26.1 42.99 26.15C43.01 26.2 43.15 26.37 43.15 26.37C43.15 26.37 43.33 26.6 43.41 26.66C43.49 26.72 43.83 26.98 44.31 27.24C44.79 27.5 45.21 28.01 45.21 28.01C45.21 28.01 45.35 28.21 45.42 28.36C45.49 28.52 45.44 28.57 45.55 28.79C45.66 29.01 45.71 29.06 45.85 29.19C46.2 29.53 46.57 29.46 47.02 29.65C47.14 29.7 47.15 29.72 47.28 29.86C47.41 30 47.26 30.06 47.26 30.06C47.26 30.06 46.76 30.19 46.44 30.16C46.02 30.13 45.84 30 45.42 29.8C45.01 29.6 44.79 29.23 44.75 29.21C44.71 29.19 44.61 29.08 44.53 29.02C44.45 28.97 44.25 28.92 44.07 28.87C43.89 28.82 43.78 28.81 43.6 28.76C43.35 28.69 43.1 28.58 42.98 28.54C42.86 28.5 42.6 28.45 42.4 28.57C42.01 28.8 43 28.96 43.31 29.29C43.47 29.46 43.53 29.57 43.68 29.75C43.8 29.88 43.84 29.98 43.98 30.08C44.08 30.15 44.25 30.23 44.25 30.23C44.25 30.23 44.49 30.34 44.84 30.53C45.19 30.72 45.6 31.27 45.6 31.27L45.85 31.65L46 31.87L46.04 31.97L46.09 32.09C46.09 32.09 46.27 32.32 46.4 32.4C46.53 32.48 46.51 32.55 46.51 32.55C46.51 32.55 46.49 32.6 46.4 32.65C46.31 32.7 46.26 32.65 46.13 32.62C46 32.58 45.91 32.46 45.8 32.36C45.68 32.27 45.56 32.03 45.34 31.9C45.15 31.79 44.91 31.75 44.81 31.71C44.72 31.68 44.48 31.53 44.39 31.49C44.3 31.45 44.06 31.34 44.06 31.34C44.06 31.34 43.59 31.08 43.34 31.01C43.08 30.94 43.25 31.1 43.25 31.1C43.25 31.1 43.48 31.46 43.7 31.6C43.99 31.79 44.39 31.96 44.26 32.11C44.17 32.21 44.05 32.18 43.92 32.16C43.71 32.14 43.45 31.88 43.45 31.88C43.45 31.88 43.34 31.81 42.86 31.65C42.38 31.49 42.56 31.76 42.67 31.9C42.78 32.04 42.93 32.12 42.93 32.12L43.26 32.27L43.41 32.32C43.41 32.32 43.54 32.34 43.98 32.44C44.41 32.54 44.65 32.75 44.65 32.75C44.65 32.75 44.88 32.97 45.21 33.21C45.54 33.45 45.86 33.51 46.04 33.54C46.22 33.56 46.21 33.69 46.21 33.69C46.21 33.69 46.23 33.81 46.23 33.85C46.23 33.89 46.18 33.92 46.14 33.92C46.1 33.92 46.09 33.94 46.04 33.96C45.99 33.98 45.81 34.01 45.81 34.01C45.81 34.01 45.32 33.99 44.94 33.9C44.56 33.81 44.23 33.54 44.2 33.53C44.17 33.51 43.81 33.32 43.57 33.24C43.33 33.16 42.95 33.19 42.91 33.21C42.87 33.23 42.74 33.25 42.51 33.31C42.28 33.37 42.56 33.46 42.56 33.46L42.72 33.48L43.11 33.51C43.11 33.51 43.51 33.56 43.85 33.68C44.19 33.8 44.41 34.05 44.63 34.28C44.85 34.51 45.1 34.65 45.1 34.65L45.28 34.77L45.37 34.84L45.39 34.9C45.39 34.9 45.39 34.93 45.37 34.97C45.35 35.01 45.3 35.04 45.3 35.04C45.3 35.04 45.21 35.02 45.18 35.02C45.15 35.02 44.89 34.89 44.7 34.8C44.5 34.71 44.4 34.63 44.2 34.58C44.02 34.54 43.78 34.52 43.73 34.53C43.68 34.55 43.28 34.6 42.98 34.62C42.68 34.64 42.41 34.65 42.05 34.6C41.54 34.54 40.86 34.13 40.77 34.25C40.59 34.48 41.14 34.55 41.4 34.71C41.76 34.92 42.38 35.11 42.38 35.11C42.38 35.11 42.83 35.21 43.1 35.34C43.68 35.61 43.86 36.01 44.33 36.43C44.59 36.67 44.8 36.77 45.14 36.82C45.44 36.86 45.43 36.82 45.91 36.73C46.38 36.64 46.67 36.19 46.81 36.35C46.84 36.38 46.83 36.41 46.81 36.46C46.81 36.51 46.76 36.59 46.76 36.59C46.76 36.59 46.71 36.67 46.62 36.75C46.53 36.84 46.21 37.01 46.04 37.08C45.87 37.15 45.45 37.27 44.92 37.25C44.39 37.23 43.66 36.83 43.66 36.83L43.12 36.6C43.12 36.6 42.87 36.48 42.71 36.42C42.27 36.25 41.99 36.27 41.53 36.15C41.25 36.07 41.06 36 40.81 35.94C40.55 35.89 40.7 35.99 40.72 36.03C40.84 36.19 41 36.24 41.2 36.34C41.47 36.47 41.66 36.44 41.94 36.56C42.25 36.69 42.51 36.86 42.69 36.97C42.86 37.08 42.98 37.2 43.15 37.37L43.72 37.85C43.72 37.85 43.85 37.96 43.87 38C43.89 38.05 43.95 38.16 43.92 38.35C43.89 38.54 43.73 38.4 43.73 38.4L43.58 38.31L43.43 38.17L43.19 37.98C43.19 37.98 42.99 37.79 42.64 37.62C42.29 37.44 41.87 37.39 41.87 37.39C41.87 37.39 41.5 37.34 41.51 37.45C41.53 37.57 41.61 37.57 41.91 37.65C42.2 37.73 42.4 37.87 42.4 37.87C42.4 37.87 42.7 38.1 42.92 38.34C43.14 38.59 43.2 38.83 43.2 38.83C43.2 38.83 43.31 39.03 43.59 39.3C43.87 39.57 44.02 39.48 44 39.61C43.98 39.74 43.86 39.77 43.86 39.77C43.86 39.77 43.79 39.77 43.76 39.77C43.73 39.77 43.66 39.73 43.58 39.7C43.5 39.67 43.21 39.47 43.21 39.47C43.21 39.47 42.75 39.1 42.7 39.06C42.65 39.02 42.21 38.7 42.21 38.7C42.21 38.7 41.95 38.54 41.77 38.44C41.58 38.35 41.34 38.25 41.2 38.21C41.06 38.16 40.8 38.15 40.8 38.15C40.8 38.15 40.49 38.1 40.3 38.03C40 37.92 39.66 37.6 39.62 37.59C39.58 37.57 39.3 37.48 39.25 37.49C39.2 37.49 39.07 38.02 39.04 38.32C38.91 39.58 39.25 40.42 39.77 41.57C40.52 43.25 42.61 45.34 42.61 45.34C42.61 45.34 43.13 45.64 43.36 45.81C43.98 46.3 45.02 46.99 45.94 47.91C46.72 48.69 47.77 50.09 47.77 50.09C47.77 50.09 48.37 50.93 48.65 51.53C48.99 52.26 49.27 53.37 49.27 53.37C49.27 53.37 49.29 53.56 49.32 53.6C49.34 53.64 49.39 53.69 49.43 53.69H49.79C49.79 53.69 50.24 53.67 50.52 53.6C50.79 53.53 51.44 53.24 51.87 53.01C52.3 52.78 52.81 52.35 52.81 52.35C52.81 52.35 52.91 52.27 53.41 51.71C53.91 51.15 54.23 50.32 54.35 50C54.47 49.69 54.57 49.08 54.64 48.05C54.71 47.02 54.57 45.93 54.57 45.93C54.57 45.93 54.38 44.41 54.27 43.89C54.16 43.37 53.88 42.53 53.88 42.53C53.88 42.53 53.69 41.78 53.63 41.3C53.57 40.82 53.56 40.06 53.56 40.06C53.56 40.06 53.56 39.59 53.72 38.71C53.88 37.83 54.41 36.96 54.41 36.96C54.41 36.96 54.56 36.67 55.14 35.98C55.73 35.28 55.92 35.16 56.5 34.75C56.96 34.42 57.56 33.89 57.75 34.01C57.96 34.15 57.54 34.42 57.4 34.56C57.04 34.92 56.36 35.55 55.81 36.51C55.33 37.34 55.16 37.88 55.04 38.42C54.92 38.96 54.97 39.55 54.99 39.75C55.01 39.95 55.12 39.88 55.12 39.88C55.12 39.88 56.28 38.95 56.92 38.24C57.6 37.47 58.21 36.11 58.45 36.1C58.61 36.1 58.69 36.46 58.65 36.62C58.5 37.33 58.45 37.42 58.22 37.88C57.96 38.42 57.71 38.66 57.35 39.15C56.96 39.67 56.78 39.87 56.47 40.56C56.03 41.55 56.28 42.32 56.28 42.32C56.28 42.32 56.33 42.79 56.54 42.78C56.89 42.77 57.66 41.8 58.16 41.01C58.53 40.43 58.66 39.75 58.91 39.4C59.13 39.09 59.32 39.91 59.23 40.39C59.12 40.97 58.83 41.48 58.21 42.3C57.6 43.1 57.62 43.85 57.62 43.85C57.62 43.85 57.55 44.2 57.5 44.95C57.45 45.7 57.67 46.84 57.67 46.84C57.67 46.84 57.86 47.79 57.9 48.52C57.94 49.24 57.91 50.9 57.24 52.18C56.97 52.7 56.39 53.41 56.39 53.41C56.39 53.41 55.95 53.87 55.58 54.13C55.21 54.4 54.34 54.81 54.34 54.81C54.34 54.81 53.74 55.02 53.65 55.04C53.56 55.06 53.51 55.14 53.51 55.14C53.51 55.14 53.57 55.26 53.59 55.31C53.61 55.36 53.78 55.78 53.78 55.78C53.78 55.78 53.96 56.38 54.03 56.84C54.1 57.31 54.02 57.42 53.95 57.78C53.88 58.12 53.73 57.96 53.7 58.64C53.67 59.24 53.94 59.54 53.89 60.2C53.87 60.49 53.53 59.83 53.38 59.55C53.04 58.93 53.12 58 53.11 57.76C53.11 57.53 53.08 57.27 53 56.97C52.89 56.59 52.74 56.29 52.56 56.06C52.38 55.83 52.19 55.7 52.13 55.72C52.07 55.74 52.06 55.86 52.06 55.93C52.06 55.99 52.18 56.21 52.21 56.26C52.24 56.31 52.47 56.72 52.47 56.72C52.47 56.72 52.57 57.03 52.61 57.65C52.65 58.26 52.46 59.02 52.46 59.02C52.46 59.02 52.22 59.88 51.96 60.38C51.67 60.94 51.04 61.69 51.04 61.69C51.04 61.69 50.58 62.11 50.24 62.8C49.9 63.49 50.19 63.79 50.07 63.87C49.94 63.96 49.67 63.48 49.59 63.15C49.52 62.85 49.56 62.7 49.68 62.36C49.8 62.03 50.07 61.56 50.07 61.56L50.48 60.86C50.48 60.86 50.97 59.92 51.13 59.23C51.29 58.54 51.11 57.79 51.11 57.79C51.11 57.79 51.09 57.54 50.92 57.55C50.75 57.55 50.63 57.71 50.56 57.89C50.42 58.27 50.62 58.2 50.4 58.82C50.23 59.31 50.18 59.25 50.1 59.54C49.99 59.89 49.93 60.25 49.94 60.47C49.94 60.69 49.83 60.6 49.83 60.6C49.83 60.6 49.62 60.21 49.62 59.72C49.62 59.46 49.62 59.31 49.66 59.05C49.71 58.63 49.88 57.98 49.88 57.98C49.88 57.98 50.07 57.34 50.03 56.76C49.99 56.18 49.78 56.07 49.78 56.07C49.78 56.07 49.73 55.99 49.5 56.01C49.27 56.03 49.28 56.43 49.28 56.43C49.28 56.43 49.21 57.01 49.12 57.36C48.87 58.35 48.54 58.87 47.95 59.71C47.42 60.46 46.7 61.13 46.34 61.44C45.98 61.75 44.87 62.56 44.87 62.56L43.57 63.42C43.57 63.42 43.06 63.92 42.82 64.52C42.58 65.12 42.6 65.58 42.73 66.13C42.87 66.68 43.07 66.93 43.17 67.08C43.27 67.23 43.47 67.5 43.54 67.81C43.58 68.01 43.55 68.12 43.56 68.32C43.56 68.49 43.59 68.59 43.59 68.76C43.59 69.03 43.63 69.23 43.48 69.46C43.36 69.63 43.05 69.78 43.05 69.78C43.05 69.78 42.7 69.94 42.49 70.06C40.28 71.39 39.5 72.26 38.25 73.74C37.85 74.21 38.14 74.19 37.72 74.75C37.47 75.09 36.88 75.08 36.66 75.49C36.36 76.04 37.33 76.58 36.21 77.06C34.77 77.68 32.29 77.24 32.24 77.04C32.1 76.5 32.72 75.89 32.94 75.65C33.95 74.55 34.85 74.52 35.18 73.61C35.25 73.42 35.22 73.25 36.03 72.65C36.59 72.23 38.85 70.54 39.83 69.4C40.17 69.01 40.46 68.75 40.6 68.33C40.75 67.91 40.45 67.64 40.45 67.64L40.05 66.98L39.28 65.59C39.28 65.59 38.96 64.86 38.78 64.43C38.6 64.01 38.26 62.86 38.26 62.86C38.26 62.86 38.01 61.83 37.97 61.17C37.89 59.96 38.06 59.27 38.38 58.1C38.79 56.58 39.72 55.95 40.09 54.45C40.2 54.01 40.22 53.27 40 53.3C39.79 53.34 39.77 53.93 39.61 54.32C39.01 55.81 38.22 56.46 37.79 58C37.5 59.04 37.38 59.66 37.38 60.74C37.38 61.36 37.36 61.25 37.52 62.32C37.58 62.72 37.68 62.93 37.8 63.31C37.88 63.58 38.1 64.1 38.1 64.1C38.1 64.1 38.41 64.78 38.52 65.26C38.56 65.42 38.59 65.51 38.58 65.68C38.56 65.96 38.61 66.03 38.47 66.28C38.3 66.6 38.41 66.79 37.86 66.9C37.38 67 36.39 66.68 36.39 66.68C36.39 66.68 32.32 65.44 29.72 65.8C29.2 65.87 28.93 66.06 28.41 66.05C27.94 66.05 27.7 65.68 27.23 65.81C27.13 65.84 27.1 65.91 27.02 65.96C26.33 66.44 26.86 67.24 25.04 66.82C23.93 66.56 22.58 65.89 22.81 65.46C23.12 64.89 23.54 64.8 24.42 64.44C25.36 64.05 26.77 64.16 27.05 64.14C27.39 64.12 27.88 63.88 28.48 63.87C29.53 63.85 29.72 63.97 29.72 63.97L31.5 64.13L34.91 64.17C34.91 64.17 35.52 64.12 35.76 64.08C36 64.03 36.2 63.55 36.33 63.32C36.46 63.09 36.33 62.75 36.33 62.75L36.23 62.59L35.91 62.07L35.31 61.06L34.64 59.73C34.64 59.73 34.21 58.8 33.97 58.19C33.74 57.59 33.61 57.25 33.45 56.62C33.29 55.98 33.19 55.45 33.17 54.94C33.14 54.2 33.1 53.62 33.3 53.01H33.28Z" fill="#1D1D1C"/>
<path d="M55.42 51.78C56.14 50.86 56.21 50 56.25 48.8C56.28 47.92 55.95 46.57 55.95 46.57L55.91 46.47C55.91 46.47 55.78 46.31 55.71 46.52C55.72 46.71 55.75 46.86 55.75 46.86L55.79 48.6C55.79 48.6 55.73 49.48 55.44 50.38C54.94 51.9 53.6 52.58 53.41 53.13C53.08 54.05 54.58 52.88 55.44 51.77L55.42 51.78Z" fill="white"/>
<path d="M47.9 54.6C47.9 54.6 47.61 54.68 47.6 54.97C47.6 55.26 47.67 55.51 47.66 55.86C47.66 56.3 47.24 56.82 47.51 56.99C47.96 57.28 48.35 55.25 48.21 54.95C48.07 54.65 47.94 54.59 47.89 54.59L47.9 54.6Z" fill="white"/>
<path d="M42.83 68.62C42.83 68.62 42.75 68.58 42.58 68.64C42.42 68.7 42.43 68.87 42.43 68.87C42.43 68.87 42.4 69.05 42.53 69.07C42.66 69.09 42.88 68.77 42.88 68.73C42.88 68.69 42.83 68.62 42.83 68.62Z" fill="white"/>
<path d="M38.07 72C38.07 72 38.02 72.05 38.07 72.08C38.11 72.11 38.17 72.07 38.17 72.07C38.17 72.07 38.99 71.43 39.48 70.97C40 70.49 40.74 69.65 40.74 69.65C40.74 69.65 40.79 69.59 40.74 69.53C40.68 69.48 40.54 69.56 40.43 69.61C40.33 69.66 40.27 69.72 40.19 69.78C40.11 69.84 39.87 70.09 39.87 70.09L39.23 70.71L38.83 71.08L38.44 71.45L38.27 71.64C38.27 71.64 38.23 71.71 38.22 71.73C38.21 71.75 38.17 71.81 38.17 71.81C38.17 71.81 38.11 71.87 38.11 71.88C38.11 71.89 38.09 71.91 38.09 71.93C38.09 71.95 38.08 71.97 38.08 71.97L38.07 72Z" fill="white"/>
<path d="M36.64 72.94C36.64 72.94 36.55 72.87 36.41 72.94C36.27 73.01 36.12 73.21 36.11 73.23C36.1 73.25 36.02 73.36 36.07 73.45C36.12 73.54 36.3 73.41 36.33 73.4C36.36 73.4 36.59 73.21 36.59 73.21C36.59 73.21 36.73 73.13 36.64 72.94Z" fill="white"/>
<path d="M33.9201 75.7C33.9201 75.7 33.8001 75.48 33.6501 75.57C33.5001 75.66 33.4101 75.69 33.2701 75.88C33.2501 75.91 33.0901 76.11 33.0701 76.16C33.0401 76.21 32.8901 76.5 33.2001 76.51C33.7301 76.54 33.3801 76.2 33.5601 76.07C33.7101 75.97 33.9801 75.99 33.9801 75.89C33.9801 75.78 33.9101 75.69 33.9101 75.69L33.9201 75.7Z" fill="white"/>
<path d="M24.58 64.68C24.58 64.68 24.26 64.76 24.24 64.87C24.22 64.98 24.42 65.09 24.46 65.1C24.49 65.1 24.57 65.19 24.78 65.05C24.99 64.91 24.98 64.79 24.98 64.79C24.98 64.79 25.1 64.65 24.58 64.69V64.68Z" fill="white"/>
<path d="M29.72 64.51C29.72 64.51 29.72 64.39 29.49 64.41C29.26 64.42 29.22 64.46 29.21 64.5C29.21 64.53 29.22 64.59 29.42 64.61C29.62 64.63 29.71 64.61 29.71 64.52L29.72 64.51Z" fill="white"/>
<path d="M34.57 64.65C34.16 64.65 34.29 64.65 34.04 64.67C33.58 64.69 33.33 64.67 32.88 64.65C32.25 64.61 31.27 64.45 31.27 64.45C31.27 64.45 31.15 64.43 31.1 64.5C31.05 64.58 31.22 64.75 31.37 64.79C32.17 65.04 32.21 64.99 32.76 65C33.06 65 33.23 64.97 33.53 64.95C33.91 64.92 34.09 64.98 34.51 64.87C34.62 64.84 34.72 64.64 34.57 64.64V64.65Z" fill="white"/>
<path d="M37.3 63.84C37.3 63.84 37.22 63.75 37.05 63.83C36.88 63.91 36.78 64.1 36.78 64.1C36.78 64.1 36.7 64.22 36.87 64.2C37.04 64.18 37.18 64.11 37.22 64.08C37.26 64.06 37.38 63.94 37.3 63.84Z" fill="white"/>
<path d="M34.92 31.02C34.92 31.02 36.08 29.94 36.9 28.51C37.39 27.66 37.6 25.67 37.18 26.17C36.99 26.39 36.76 27.43 36.4 28.19C35.88 29.28 34.77 30.81 34.77 30.81C34.77 30.81 34.53 31.32 34.92 31.03V31.02Z" fill="white"/>
<path d="M30.31 33.77C30.31 33.77 30.19 33.86 30.24 34.02C30.3 34.18 30.53 34.06 30.53 34.06C30.53 34.06 31.06 33.86 31.62 33.84C32.18 33.82 32.96 33.98 32.96 33.98C32.96 33.98 33.33 34.08 33.39 34.11C33.45 34.13 33.65 34.23 33.69 34.24C33.72 34.25 33.91 34.35 34.02 34.24C34.13 34.14 33.35 33.43 32.55 33.32C31.22 33.14 30.35 33.71 30.35 33.71L30.31 33.76V33.77Z" fill="white"/>
<path d="M24.8301 38.45C24.9301 38.53 25.3701 37.69 25.7401 37.15C26.0101 36.76 26.5101 36.1 26.5101 36.1C26.5101 36.1 26.7301 35.8 26.3501 35.97C26.2001 36.04 25.7701 36.36 25.4801 36.95C25.2301 37.45 24.7301 38.37 24.8301 38.45Z" fill="white"/>
<path d="M21.76 34.78C21.76 34.78 21.66 35.11 22.05 35.52C22.43 35.93 22.54 36.27 22.78 36.03C22.85 35.96 22.54 35.41 22.38 35.25C22.22 35.1 22.11 34.97 22.11 34.97L22.01 34.89L21.88 34.82L21.81 34.79C21.81 34.79 21.79 34.77 21.76 34.79V34.78Z" fill="white"/>
<path d="M20.51 31.64C20.51 31.64 20.09 31.72 19.99 31.92C19.89 32.12 20.47 32 20.47 32C20.47 32 20.86 32.02 20.86 31.87C20.86 31.72 20.81 31.7 20.5 31.64H20.51Z" fill="white"/>
<path d="M13.91 42.58C13.7 42.52 13.66 42.94 13.64 43.07C13.61 43.2 13.73 43.48 13.78 43.47C13.83 43.47 14 43.2 14.01 43.07C14.02 42.94 14.1 42.63 13.91 42.57V42.58Z" fill="white"/>
<path d="M20.7699 50.74C20.7699 50.74 20.3899 50.44 20.3299 50.56C20.2699 50.68 20.6399 51.21 20.6399 51.21C20.6399 51.21 20.7499 51.38 20.9299 51.3C21.0999 51.22 21.0399 51.03 21.0399 51.03C21.0399 51.03 20.9199 50.78 20.7699 50.74Z" fill="white"/>
<path d="M17.91 41.92C17.91 41.92 17.81 41.9 17.78 42.01C17.74 42.13 17.75 42.32 17.72 42.55C17.7 42.73 17.77 43.21 17.77 43.21C17.77 43.21 17.81 43.59 17.88 43.82C17.96 44.07 18.18 44.42 18.18 44.42C18.18 44.42 18.26 44.6 18.36 44.59C18.46 44.59 18.44 44.46 18.44 44.46C18.44 44.46 18.12 43.2 18.11 43.07C18.07 42.65 18.08 42.14 18.08 42.14V42.06C18.08 42.06 18.08 41.93 17.91 41.92Z" fill="white"/>
<path d="M18.4 38.07C18.4 38.07 18.22 38.03 18.06 38.37C17.9 38.71 17.93 38.85 17.95 38.86C17.96 38.88 18.09 38.87 18.3 38.56C18.5 38.25 18.46 38.13 18.46 38.13C18.46 38.13 18.45 38.07 18.4 38.07Z" fill="white"/>
<path d="M23.2099 41.56C23.2099 41.56 23.4199 41.87 23.0199 41.8C22.6099 41.73 21.7599 41.06 21.4199 40.88C21.0799 40.7 20.5099 40.64 20.7499 40.43C20.7899 40.39 20.7999 40.36 20.8699 40.35C20.9399 40.35 21.1699 40.44 21.1899 40.45C21.1999 40.45 21.7999 40.7 21.8299 40.71C21.8499 40.71 22.1899 40.86 22.4299 41C22.6699 41.14 23.0599 41.41 23.0599 41.41L23.2299 41.55L23.2099 41.56Z" fill="white"/>
<path d="M34.43 51.22C34.54 51.57 33.15 50.49 32.41 49.91C30.44 48.39 28.03 45.28 28.33 45.01C28.58 44.78 29.57 46.21 31.02 47.77C32.57 49.44 34.37 51.01 34.43 51.21V51.22Z" fill="white"/>
<path d="M40.2299 49.73C39.7999 50.19 39.6499 50.78 39.8999 51.22C40.1399 51.65 40.2199 50.6 40.4899 50.28C40.7199 50.01 40.8599 50.05 41.2499 49.78C41.8999 49.32 40.7799 49.14 40.2399 49.73H40.2299Z" fill="white"/>
<path d="M37.76 39.91C37.47 39.86 37.48 40.31 37.52 40.63C37.72 42.06 38.36 43.16 39.21 44.19C39.73 44.82 41.16 45.94 41.32 45.76C41.38 45.7 39.96 44.6 39.06 43.19C38.42 42.19 38.08 41.34 38 40.52C37.99 40.42 38.01 39.94 37.76 39.9V39.91Z" fill="white"/>
<path d="M32.24 18.77C31.6 19.12 30.48 19.43 30.48 19.43C30.48 19.43 30.43 19.54 30.57 19.53C31.53 19.45 31.89 19.33 32.4 19.11C32.91 18.89 33.28 18.28 33.28 18.28C33.28 18.28 33.48 17.9 33.1 18.21C32.98 18.3 32.59 18.58 32.24 18.77Z" fill="white"/>
<path d="M40 16.32C40 16.32 39.78 16.27 39.64 16.36C39.49 16.45 39.54 16.53 39.54 16.53C39.54 16.53 39.77 16.71 39.93 16.73C40.09 16.76 40.44 16.91 40.43 16.79C40.42 16.67 40.22 16.46 40.15 16.4C40.08 16.34 40.01 16.32 40.01 16.32H40Z" fill="white"/>
<path d="M36.35 23.02C36.39 23.1 37.04 22.92 37.29 22.78C37.49 22.67 37.56 22.3 37.56 22.3C37.56 22.3 37.61 21.94 37.53 22.08C37.16 22.69 36.31 22.95 36.35 23.02Z" fill="white"/>
<path d="M36.32 21.34C36.58 20.84 35.6 21.86 35.09 22.13C34.78 22.29 34.29 22.51 34.29 22.51C34.29 22.51 34.16 22.68 34.34 22.66C34.52 22.65 34.99 22.81 35.37 22.51C35.46 22.44 35.86 21.86 35.86 21.86C35.86 21.86 36.19 21.58 36.32 21.34Z" fill="white"/>
<path d="M36.17 23.49C36.19 23.57 37.3 23.54 37.57 23.46C37.79 23.4 37.9 23.01 37.9 23.01C37.9 23.01 38.03 22.67 37.92 22.79C37.42 23.3 36.14 23.4 36.16 23.49H36.17Z" fill="white"/>
<path d="M18.42 33.62C18.42 33.62 18.25 33.56 18.04 33.87C17.83 34.18 16.9 35.59 17.07 35.8C17.26 36.05 18.07 34.54 18.32 34.25C18.57 33.97 18.47 33.68 18.47 33.68C18.47 33.68 18.47 33.62 18.42 33.61V33.62Z" fill="white"/>
<path d="M38.68 59.1C38.58 59.57 38.7 60.53 38.86 60.72C39.26 61.2 39.02 59.98 39.07 59.55C39.12 59.15 39.17 59.01 39.37 58.59C39.72 57.82 38.9 58.11 38.69 59.11L38.68 59.1Z" fill="white"/>
<path d="M35.2901 18.26C35.2901 18.26 34.9801 18.26 34.7401 18.4C34.5001 18.53 34.4401 18.72 34.4401 18.72C34.4401 18.72 34.3901 18.85 34.4301 18.93C34.5001 19.09 34.8301 18.85 35.0601 18.93C35.2501 19 35.3401 19.05 35.4801 19.22C35.6001 19.37 35.8301 19.59 35.9701 19.46C36.1101 19.34 36.0601 19.03 36.0601 19.03C36.0601 19.03 35.9001 18.53 35.6801 18.39C35.4701 18.25 35.3001 18.26 35.3001 18.26H35.2901Z" fill="white"/>
<path d="M30.1901 21.77C30.1901 21.77 30.02 21.8 30.06 22C30.1 22.21 30.21 22.17 30.21 22.17C30.21 22.17 30.5601 22.02 30.5401 21.8C30.5201 21.58 30.1901 21.76 30.1901 21.76V21.77Z" fill="white"/>
<path d="M27.71 20.66C27.71 20.66 27.52 20.66 27.39 20.9C27.26 21.13 27.18 21.37 27.18 21.37C27.18 21.37 27.12 21.68 27.23 21.77C27.34 21.86 27.46 21.57 27.61 21.46C27.71 21.39 27.76 21.36 27.86 21.29C27.99 21.2 28.21 21.31 28.19 21.04C28.17 20.77 27.88 20.64 27.7 20.66H27.71Z" fill="white"/>
<path d="M35.74 17.76C35.74 17.76 35.32 17.7 35.33 17.86C35.34 18.01 35.56 17.92 35.7 17.98C35.83 18.04 35.92 18.06 36.03 18.16C36.11 18.23 36.1 18.37 36.2 18.37C36.34 18.37 36.31 18.32 36.31 18.32C36.31 18.32 36.19 17.96 36.03 17.85C35.87 17.75 35.74 17.75 35.74 17.75V17.76Z" fill="white"/>
<path d="M40.47 19.47C40.41 19.7 40.37 19.78 40.37 19.78C40.37 19.78 40.25 20.25 40.72 20.07C41.19 19.9 40.95 19.97 41.29 19.81C41.63 19.64 41.62 19.73 41.87 19.75C41.95 19.75 42.01 19.75 42.13 19.73C42.24 19.71 42.19 19.58 41.95 19.52C41.7 19.45 41.38 19.47 41.01 19.47C40.8 19.47 40.53 19.25 40.46 19.47H40.47Z" fill="white"/>
<path d="M40.68 17.74C40.68 17.74 40.46 17.69 40.32 17.78C40.17 17.87 40.22 17.95 40.22 17.95C40.22 17.95 40.45 18.13 40.61 18.15C40.77 18.18 41.12 18.33 41.11 18.21C41.1 18.09 40.9 17.88 40.83 17.82C40.76 17.76 40.69 17.74 40.69 17.74H40.68Z" fill="white"/>
<path d="M41.51 20.99C41.51 20.99 41.28 20.94 41.12 21.03C40.96 21.12 41.01 21.19 41.01 21.19C41.01 21.19 41.25 21.36 41.43 21.38C41.6 21.4 41.98 21.54 41.96 21.43C41.94 21.32 41.74 21.11 41.67 21.06C41.6 21 41.52 20.99 41.52 20.99H41.51Z" fill="white"/>
<path d="M41.58 22.17C41.58 22.17 41.3299 22.12 41.1699 22.22C40.9999 22.32 41.0499 22.4 41.0499 22.4C41.0499 22.4 41.31 22.59 41.49 22.62C41.67 22.65 42.0699 22.81 42.0499 22.68C42.0299 22.55 41.81 22.32 41.74 22.25C41.66 22.19 41.58 22.17 41.58 22.17Z" fill="white"/>
<path d="M41.69 23.32C41.69 23.32 41.42 23.26 41.24 23.37C41.06 23.48 41.11 23.57 41.11 23.57C41.11 23.57 41.39 23.79 41.59 23.82C41.79 23.85 42.22 24.04 42.2 23.89C42.18 23.75 41.94 23.48 41.86 23.41C41.78 23.34 41.69 23.32 41.69 23.32Z" fill="white"/>
<path d="M41.67 24.74C41.67 24.74 41.4 24.68 41.22 24.79C41.04 24.9 41.09 24.99 41.09 24.99C41.09 24.99 41.37 25.21 41.57 25.24C41.77 25.27 42.2 25.46 42.18 25.31C42.16 25.17 41.92 24.9 41.84 24.83C41.76 24.76 41.67 24.74 41.67 24.74Z" fill="white"/>
<path d="M41.47 27.51C41.47 27.51 41.2 27.45 41.02 27.56C40.84 27.67 40.89 27.76 40.89 27.76C40.89 27.76 41.17 27.98 41.37 28.01C41.57 28.04 42 28.23 41.98 28.08C41.96 27.94 41.72 27.67 41.64 27.6C41.56 27.53 41.47 27.51 41.47 27.51Z" fill="white"/>
<path d="M41.65 26.12C41.65 26.12 41.34 26.05 41.13 26.18C40.92 26.31 40.98 26.42 40.98 26.42C40.98 26.42 41.3 26.67 41.53 26.71C41.76 26.75 42.25 26.96 42.23 26.79C42.21 26.62 41.93 26.32 41.84 26.23C41.75 26.15 41.64 26.12 41.64 26.12H41.65Z" fill="white"/>
<path d="M41.3401 28.76C41.3401 28.76 41.1201 28.71 40.9701 28.8C40.8201 28.89 40.8701 28.97 40.8701 28.97C40.8701 28.97 41.1001 29.15 41.2601 29.17C41.4201 29.2 41.7801 29.35 41.7601 29.23C41.7501 29.11 41.5501 28.89 41.4801 28.83C41.4101 28.77 41.3401 28.75 41.3401 28.75V28.76Z" fill="white"/>
<path d="M41.13 29.96C41.13 29.96 40.95 29.92 40.82 30C40.7 30.08 40.73 30.14 40.73 30.14C40.73 30.14 40.92 30.29 41.05 30.31C41.19 30.33 41.48 30.46 41.47 30.36C41.46 30.26 41.29 30.08 41.24 30.03C41.18 29.98 41.12 29.97 41.12 29.97L41.13 29.96Z" fill="white"/>
<path d="M40.88 31.05C40.88 31.05 40.72 31.01 40.6 31.08C40.49 31.15 40.52 31.21 40.52 31.21C40.52 31.21 40.69 31.34 40.81 31.36C40.93 31.38 41.2 31.49 41.18 31.4C41.17 31.31 41.02 31.15 40.97 31.1C40.92 31.06 40.86 31.04 40.86 31.04L40.88 31.05Z" fill="white"/>
<path d="M40.61 31.95C40.61 31.95 40.45 31.91 40.33 31.98C40.22 32.05 40.25 32.11 40.25 32.11C40.25 32.11 40.42 32.24 40.54 32.26C40.66 32.28 40.93 32.39 40.91 32.3C40.9 32.21 40.75 32.05 40.7 32C40.65 31.96 40.59 31.94 40.59 31.94L40.61 31.95Z" fill="white"/>
<path d="M40.3001 32.99C40.3001 32.99 40.1701 32.96 40.0801 33.02C39.9901 33.08 40.0201 33.12 40.0201 33.12C40.0201 33.12 40.1601 33.23 40.2601 33.24C40.3601 33.26 40.5701 33.35 40.5601 33.28C40.5601 33.21 40.4301 33.08 40.3901 33.04C40.3501 33 40.3001 32.99 40.3001 32.99Z" fill="white"/>
<path d="M39.93 33.97C39.93 33.97 39.82 33.94 39.74 33.99C39.66 34.04 39.69 34.08 39.69 34.08C39.69 34.08 39.81 34.17 39.89 34.19C39.98 34.2 40.16 34.28 40.15 34.22C40.15 34.16 40.04 34.04 40 34.01C39.97 33.98 39.93 33.97 39.93 33.97Z" fill="white"/>
<path d="M39.5399 34.89C39.5399 34.89 39.4299 34.86 39.3499 34.91C39.2699 34.96 39.2999 35 39.2999 35C39.2999 35 39.4199 35.09 39.4999 35.11C39.5799 35.12 39.7699 35.2 39.7599 35.14C39.7599 35.08 39.6499 34.96 39.6099 34.93C39.5799 34.9 39.5399 34.89 39.5399 34.89Z" fill="white"/>
<path d="M14.5001 39.6C14.5001 39.6 14.3101 39.97 14.4001 40.18C14.5001 40.39 14.7601 39.85 14.7601 39.85C14.7601 39.85 15.0301 39.32 14.9201 39.22C14.8101 39.12 14.7401 39.4 14.5001 39.6Z" fill="white"/>
<path d="M29.1801 72.56C29.1801 72.56 29.0401 72.37 28.9001 72.51C28.7601 72.65 28.5901 72.87 28.2701 72.84C27.9501 72.82 27.8101 72.77 27.6401 72.69C27.4601 72.61 27.2101 72.49 27.2101 72.49C27.2101 72.49 26.5601 72.24 26.0201 72.23C25.4701 72.22 24.5801 72.44 24.1401 72.91C23.7101 73.38 23.6001 73.86 23.6001 73.86C23.6001 73.86 23.4601 74.71 23.7001 75.11C23.9501 75.5 24.2201 75.92 24.8201 76.29C25.4201 76.66 25.6901 76.8 25.6901 76.8L26.7401 77.28L27.7101 77.65C27.7101 77.65 29.1101 78.07 29.2801 79.13C29.4501 80.19 28.8101 81.56 26.8801 81.68C24.9801 81.8 24.0501 80.88 23.7601 80.29C23.4701 79.7 23.6301 79.19 23.6301 79.19L23.7101 79.03L23.7801 78.99C23.7801 78.99 24.0801 79.19 24.3601 79.15C24.6501 79.11 25.1801 78.76 25.0701 78.2C24.9601 77.63 24.4501 77.5 24.2001 77.53C23.9601 77.55 22.8701 77.83 22.8501 79.42C22.8301 81 24.2701 81.85 24.2701 81.85C24.2701 81.85 25.2901 82.49 26.4501 82.43C27.6001 82.38 28.5601 81.92 28.5601 81.92C28.5601 81.92 30.2701 81.07 30.3101 79.21C30.3501 77.35 29.1801 76.7 29.1801 76.7C29.1801 76.7 28.7601 76.41 28.3701 76.23C27.9901 76.05 27.0601 75.61 27.0601 75.61L26.1201 75.18L25.5501 74.86L25.2301 74.65C25.2301 74.65 24.4701 74.05 24.8701 73.4C25.2801 72.75 26.4501 72.99 26.4501 72.99C26.4501 72.99 27.3601 73.18 28.0701 73.69C28.7801 74.2 29.1901 74.81 29.1901 74.81L29.4901 75.29L29.5301 75.36L29.7801 75.27C29.7801 75.27 29.3901 74.17 29.3101 73.72C29.2401 73.26 29.1601 72.56 29.1601 72.56H29.1801Z" fill="#1D1D1C"/>
<path d="M40.4501 78.82C40.4501 78.82 40.7001 79.1 41.0401 79.1C41.3801 79.1 41.8701 78.86 41.8601 78.25C41.8601 77.64 41.2301 77.47 41.2301 77.47C41.2301 77.47 40.2901 77.25 39.8301 78.2C39.3701 79.15 39.6201 79.98 39.6201 79.98C39.6201 79.98 39.8301 81.27 41.2001 82.03C42.5601 82.79 44.0201 82.23 44.0201 82.23C44.0201 82.23 45.1201 81.87 46.0601 80.8C47.0101 79.73 47.4601 78.47 47.4601 78.47L47.7901 77.64H48.1901C48.1901 77.64 48.7401 77.7 49.1401 77.38C49.5301 77.06 49.7801 76.63 49.7801 76.63L49.8301 76.5L49.5801 76.38C49.5801 76.38 49.2901 76.76 48.8901 76.79C48.4901 76.83 48.0801 76.76 48.0801 76.76L48.4601 75.73C48.4601 75.73 48.9001 74.83 49.0301 74.63C49.1601 74.42 49.6701 73.76 49.6701 73.76C49.6701 73.76 50.7401 73.76 51.7601 73.54C52.7901 73.33 53.4201 73.07 53.4201 73.07L54.6901 72.54L55.0001 72.37L54.9001 72.12C54.9001 72.12 53.7501 72.53 52.0601 72.72C50.3701 72.91 49.3001 72.71 49.3001 72.71L47.3801 72.41C47.3801 72.41 46.8001 72.31 46.3401 72.31C45.8901 72.31 44.9701 72.47 44.9701 72.47C44.9701 72.47 44.0501 72.68 43.6401 72.99C43.2301 73.3 42.2401 74.03 42.6901 75.14C43.1401 76.25 44.9801 75.66 45.2401 74.84L45.3401 74.57L45.3701 74.42L45.2101 74.36L45.0301 74.58C45.0301 74.58 44.3401 75.16 43.8101 74.79C43.2801 74.42 43.6401 73.9 43.6901 73.84C43.7401 73.78 44.0301 73.43 44.7201 73.28C45.4101 73.12 46.4401 73.38 46.4401 73.38L47.5601 73.59C47.5601 73.59 48.1801 73.71 48.2101 73.71C48.2401 73.71 48.4401 73.74 48.4401 73.74L48.0501 74.18C48.0501 74.18 47.4801 74.73 47.0801 75.52C46.6801 76.31 46.5001 76.73 46.5001 76.73L46.4601 76.79C46.4601 76.79 45.9601 76.85 45.6401 77.04C45.3201 77.23 45.1101 77.53 45.1101 77.53L44.9601 77.8L45.1601 77.97C45.1601 77.97 45.3901 77.71 45.6701 77.64C45.9501 77.57 46.1701 77.68 46.1701 77.68C46.1701 77.68 45.7601 78.69 45.5701 79.05C45.3801 79.41 45.0501 80.08 44.5901 80.57C44.1301 81.07 43.8001 81.5 42.7501 81.64C41.7001 81.79 40.9601 81.11 40.6901 80.78C40.4201 80.45 40.2501 79.94 40.2401 79.57C40.2301 79.2 40.4201 78.84 40.4201 78.84L40.4501 78.82Z" fill="#1D1D1C"/>
<path d="M0 8.96V6.81L35.76 0.0200043L71.51 6.81V8.96L35.76 2.34L0 8.96Z" fill="#008B47"/>
<path d="M212.58 89.4C212.7 89.35 212.81 89.3 212.92 89.25C213.16 89.14 213.4 89.03 213.63 88.92C213.7 88.88 213.78 88.85 213.85 88.81C214.12 88.68 214.39 88.54 214.66 88.41C214.7 88.39 214.74 88.37 214.78 88.35C215.08 88.2 215.37 88.04 215.67 87.88C215.68 87.88 215.7 87.87 215.71 87.86C217.58 86.85 219.38 85.69 221.12 84.39C221.12 84.39 221.14 84.38 221.15 84.37C221.42 84.17 221.69 83.96 221.96 83.75C221.99 83.73 222.02 83.7 222.05 83.68C222.3 83.49 222.54 83.29 222.78 83.09C222.84 83.04 222.89 82.99 222.95 82.95C223.16 82.77 223.38 82.59 223.59 82.41C223.68 82.33 223.77 82.25 223.86 82.17C224.04 82.01 224.22 81.86 224.39 81.7C224.53 81.57 224.67 81.44 224.82 81.31C224.94 81.19 225.07 81.08 225.19 80.96C225.73 80.45 226.25 79.93 226.76 79.39C226.88 79.27 226.99 79.14 227.11 79.02C227.24 78.88 227.38 78.74 227.51 78.59C227.67 78.42 227.82 78.24 227.98 78.06C228.06 77.97 228.15 77.87 228.23 77.78C228.41 77.57 228.59 77.36 228.77 77.15C228.82 77.09 228.87 77.03 228.92 76.97C229.12 76.73 229.31 76.49 229.5 76.25C229.53 76.22 229.55 76.18 229.58 76.15C229.79 75.89 229.99 75.62 230.19 75.35C230.19 75.34 230.21 75.33 230.22 75.31C231.52 73.58 232.67 71.77 233.68 69.91C233.68 69.89 233.7 69.88 233.71 69.86C233.87 69.57 234.02 69.28 234.17 68.98C234.19 68.94 234.21 68.89 234.24 68.85C234.38 68.58 234.51 68.32 234.64 68.05C234.68 67.97 234.71 67.89 234.75 67.82C234.86 67.59 234.97 67.35 235.08 67.12C235.13 67 235.19 66.88 235.24 66.76C235.33 66.56 235.41 66.37 235.5 66.17C235.57 66.01 235.64 65.84 235.71 65.68C235.77 65.53 235.84 65.37 235.9 65.22C235.98 65.01 236.06 64.8 236.15 64.59C236.19 64.48 236.24 64.37 236.28 64.25C236.37 64 236.47 63.75 236.56 63.49C236.59 63.42 236.61 63.35 236.64 63.27C236.74 62.98 236.84 62.69 236.93 62.39C236.94 62.35 236.95 62.32 236.97 62.28C237.07 61.96 237.17 61.63 237.27 61.31V61.29C237.87 59.25 238.34 57.15 238.65 55C238.65 55 238.65 54.99 238.65 54.98C238.7 54.64 238.74 54.3 238.79 53.95C238.79 53.92 238.79 53.89 238.8 53.85C238.84 53.53 238.87 53.21 238.9 52.9C238.9 52.83 238.91 52.77 238.92 52.7C238.95 52.41 238.97 52.13 238.99 51.84C238.99 51.73 239 51.62 239.01 51.51C239.03 51.26 239.04 51.02 239.05 50.77C239.05 50.59 239.06 50.42 239.07 50.24C239.07 50.05 239.09 49.87 239.09 49.68C239.09 49.32 239.1 48.97 239.1 48.61C239.1 48.6 239.1 48.59 239.1 48.57C239.1 48.55 239.1 48.53 239.1 48.51C239.1 44.47 238.54 40.42 237.45 36.5C237.39 36.3 237.33 36.1 237.28 35.9C237.28 35.87 237.26 35.84 237.25 35.81C237.05 35.14 236.84 34.48 236.61 33.82C236.58 33.72 236.54 33.63 236.51 33.53C236.44 33.32 236.36 33.12 236.29 32.91C236.23 32.75 236.17 32.58 236.1 32.42C236.05 32.29 236 32.16 235.95 32.03C235.87 31.83 235.79 31.64 235.71 31.44C235.68 31.36 235.64 31.28 235.61 31.2C233.93 27.2 231.64 23.4 228.74 19.94C228.72 19.91 228.7 19.89 228.67 19.86C228.5 19.66 228.33 19.45 228.15 19.25C228.11 19.21 228.07 19.16 228.04 19.12C227.72 18.76 227.4 18.4 227.07 18.04C227.02 17.99 226.98 17.94 226.93 17.89C226.8 17.76 226.67 17.62 226.54 17.49C226.43 17.37 226.31 17.26 226.2 17.14C226.14 17.08 226.08 17.02 226.02 16.96C225.95 16.89 225.88 16.83 225.82 16.76C225.71 16.65 225.6 16.55 225.49 16.44C225.39 16.35 225.29 16.25 225.2 16.16C225.02 15.99 224.85 15.83 224.67 15.66C224.64 15.63 224.61 15.6 224.58 15.57C222.08 13.28 219.31 11.27 216.33 9.59C215.86 9.32 215.38 9.07001 214.9 8.82001C214.89 8.82001 214.88 8.81 214.86 8.8C214.65 8.69 214.43 8.58001 214.22 8.48001C214.15 8.45001 214.09 8.41 214.02 8.38C213.86 8.3 213.69 8.22001 213.53 8.14001C213.41 8.08001 213.29 8.03001 213.17 7.97001C213.06 7.92001 212.95 7.87001 212.83 7.82001C212.65 7.74001 212.48 7.66 212.3 7.58C212.24 7.55 212.18 7.53 212.13 7.51C211.9 7.41 211.66 7.31001 211.43 7.21001C206.85 5.33001 201.89 4.18001 196.69 3.92001C196.67 3.92001 196.65 3.92001 196.62 3.92001C196.37 3.91001 196.13 3.9 195.88 3.89C195.81 3.89 195.74 3.89 195.68 3.89C195.46 3.89 195.24 3.89 195.02 3.88C194.93 3.88 194.83 3.88 194.74 3.88C194.64 3.88 194.54 3.88 194.44 3.88C194.33 3.88 194.23 3.88 194.12 3.88C194.01 3.88 193.91 3.88 193.8 3.88C193.59 3.88 193.38 3.88 193.18 3.89C193.09 3.89 193.01 3.89 192.92 3.89C192.69 3.89 192.46 3.91001 192.23 3.92001C192.19 3.92001 192.14 3.92001 192.1 3.92001C187.87 4.14001 183.79 4.95 179.95 6.26C179.95 6.26 179.93 6.26 179.92 6.26C179.66 6.35 179.4 6.44 179.14 6.54C179.09 6.56 179.03 6.58 178.98 6.6C178.76 6.68 178.55 6.76001 178.33 6.84001C178.22 6.88001 178.12 6.92001 178.01 6.96001C177.85 7.02001 177.68 7.09 177.52 7.16C177.35 7.23 177.19 7.3 177.02 7.37C176.92 7.41 176.82 7.46001 176.72 7.50001C176.48 7.60001 176.25 7.71 176.01 7.81C175.98 7.82 175.95 7.84 175.92 7.85C171.83 9.71 167.96 12.22 164.47 15.38C164.46 15.39 164.44 15.41 164.43 15.42C164.23 15.6 164.04 15.78 163.84 15.96C163.8 16 163.77 16.03 163.73 16.07C163.55 16.24 163.38 16.41 163.2 16.58C163.15 16.63 163.1 16.68 163.05 16.72C162.98 16.79 162.91 16.86 162.84 16.93C162.74 17.03 162.65 17.12 162.56 17.22C162.51 17.28 162.45 17.33 162.4 17.39C162.23 17.57 162.06 17.74 161.89 17.92C161.85 17.96 161.81 18 161.78 18.04C161.6 18.24 161.41 18.44 161.23 18.64C161.22 18.65 161.21 18.67 161.19 18.68C157.21 23.11 154.26 28.14 152.36 33.46C152.33 33.53 152.31 33.6 152.28 33.67C152.23 33.81 152.19 33.94 152.14 34.08C152.08 34.25 152.02 34.42 151.97 34.59C151.97 34.61 151.96 34.63 151.95 34.64C151.57 35.79 151.24 36.97 150.96 38.16C150.25 41.13 149.86 44.17 149.77 47.21C149.77 47.52 149.76 47.83 149.75 48.14C149.75 48.14 149.75 48.16 149.75 48.17C149.75 48.29 149.75 48.42 149.75 48.54C149.75 48.66 149.75 48.77 149.75 48.89C149.75 49.02 149.75 49.16 149.75 49.29C149.75 49.51 149.75 49.72 149.76 49.94C149.76 50.02 149.76 50.11 149.76 50.19C149.95 55.5 151.07 60.57 152.96 65.25C152.96 65.25 152.96 65.27 152.97 65.28C153.27 66.03 153.6 66.78 153.94 67.51C153.99 67.62 154.04 67.73 154.1 67.85C154.16 67.98 154.23 68.11 154.29 68.24C154.38 68.42 154.47 68.61 154.57 68.79C154.62 68.9 154.68 69 154.74 69.11C154.85 69.32 154.96 69.52 155.07 69.73C155.12 69.82 155.17 69.91 155.22 70C155.34 70.23 155.47 70.45 155.6 70.68C155.64 70.75 155.68 70.82 155.72 70.89C155.87 71.14 156.01 71.39 156.16 71.64C156.19 71.68 156.21 71.73 156.24 71.77C156.28 71.83 156.32 71.9 156.36 71.96C157.96 74.56 159.83 76.99 161.91 79.2C161.91 79.2 161.94 79.23 161.95 79.24C162.23 79.54 162.52 79.84 162.82 80.13C162.82 80.13 162.83 80.14 162.84 80.15C162.87 80.18 162.9 80.21 162.93 80.23C163.16 80.46 163.4 80.69 163.63 80.91C163.77 81.05 163.92 81.18 164.06 81.31C164.18 81.42 164.3 81.54 164.43 81.65C164.62 81.82 164.81 81.99 165 82.15C165.08 82.22 165.16 82.29 165.24 82.36C165.46 82.55 165.69 82.74 165.91 82.93C165.96 82.97 166 83.01 166.05 83.05C166.3 83.26 166.55 83.46 166.81 83.66C166.83 83.68 166.85 83.7 166.88 83.71C167.15 83.93 167.43 84.14 167.71 84.35C169.45 85.65 171.26 86.81 173.14 87.83C173.14 87.83 173.15 87.83 173.16 87.84C173.46 88 173.76 88.16 174.06 88.32C174.09 88.34 174.13 88.36 174.16 88.37C174.43 88.51 174.71 88.65 174.99 88.78C175.06 88.81 175.13 88.85 175.2 88.88C175.44 89 175.68 89.11 175.93 89.22C176.04 89.27 176.15 89.32 176.26 89.37C176.46 89.46 176.67 89.55 176.87 89.64C177.02 89.71 177.18 89.77 177.33 89.84C177.49 89.91 177.66 89.97 177.82 90.04C178.02 90.12 178.22 90.2 178.42 90.28C178.54 90.33 178.66 90.37 178.78 90.42C179.02 90.51 179.27 90.6 179.52 90.69C179.6 90.72 179.68 90.75 179.76 90.77C180.04 90.87 180.33 90.96 180.61 91.06C180.65 91.07 180.7 91.09 180.74 91.1C181.06 91.2 181.37 91.3 181.69 91.39C181.7 91.39 181.72 91.39 181.73 91.4C183.77 92 185.86 92.46 188.01 92.77C188.02 92.77 188.03 92.77 188.04 92.77C188.38 92.82 188.72 92.86 189.05 92.9C189.09 92.9 189.12 92.9 189.16 92.91C189.47 92.95 189.79 92.98 190.1 93.01C190.17 93.01 190.24 93.02 190.31 93.03C190.59 93.06 190.87 93.08 191.16 93.1C191.28 93.1 191.39 93.11 191.51 93.12C191.75 93.14 191.99 93.15 192.24 93.16C192.42 93.16 192.61 93.17 192.79 93.18C192.97 93.18 193.15 93.19 193.33 93.2C193.7 93.2 194.07 93.21 194.44 93.21C194.81 93.21 195.18 93.21 195.55 93.2C195.73 93.2 195.91 93.19 196.09 93.18C196.27 93.18 196.46 93.17 196.64 93.16C196.88 93.15 197.12 93.13 197.37 93.12C197.49 93.12 197.6 93.11 197.72 93.1C198 93.08 198.29 93.05 198.57 93.03C198.64 93.03 198.71 93.02 198.78 93.01C199.1 92.98 199.41 92.95 199.72 92.91C199.76 92.91 199.79 92.91 199.83 92.9C200.17 92.86 200.51 92.81 200.85 92.77C200.85 92.77 200.87 92.77 200.88 92.77C203.03 92.46 205.13 92 207.16 91.4H207.19C207.51 91.29 207.83 91.19 208.15 91.09C208.19 91.08 208.23 91.06 208.27 91.05C208.56 90.96 208.85 90.86 209.13 90.76C209.21 90.73 209.28 90.71 209.36 90.68C209.61 90.59 209.86 90.5 210.11 90.41C210.23 90.37 210.34 90.32 210.46 90.28C210.67 90.2 210.87 90.12 211.08 90.04C211.24 89.98 211.4 89.91 211.56 89.85C211.72 89.78 211.88 89.72 212.04 89.65C212.24 89.56 212.44 89.48 212.64 89.39L212.58 89.4Z" fill="#AD3A2B"/>
<path d="M161.91 79.26C162.19 79.56 162.48 79.86 162.78 80.15C162.78 80.15 162.79 80.16 162.8 80.17C162.83 80.2 162.86 80.23 162.89 80.25C163.12 80.48 163.36 80.71 163.59 80.93C163.73 81.07 163.88 81.2 164.02 81.33C164.14 81.44 164.26 81.56 164.39 81.67C164.58 81.84 164.77 82.01 164.96 82.17C165.04 82.24 165.12 82.31 165.2 82.38C165.42 82.57 165.65 82.76 165.87 82.95C165.92 82.99 165.96 83.03 166.01 83.07C166.26 83.28 166.51 83.48 166.77 83.68C166.79 83.7 166.81 83.72 166.84 83.73C167.11 83.95 167.39 84.16 167.67 84.37C169.41 85.67 171.22 86.83 173.1 87.85C173.1 87.85 173.11 87.85 173.12 87.86C173.42 88.02 173.72 88.18 174.02 88.34C174.05 88.36 174.09 88.38 174.12 88.39C174.39 88.53 174.67 88.67 174.95 88.8C175.02 88.83 175.09 88.87 175.16 88.9C175.4 89.02 175.64 89.13 175.89 89.24C176 89.29 176.11 89.34 176.22 89.39C176.42 89.48 176.63 89.57 176.83 89.66C176.98 89.73 177.14 89.79 177.29 89.86C177.45 89.93 177.62 89.99 177.78 90.06C177.98 90.14 178.18 90.22 178.38 90.3C178.5 90.35 178.62 90.39 178.74 90.44C178.98 90.53 179.23 90.62 179.48 90.71C179.56 90.74 179.64 90.77 179.72 90.79C180 90.89 180.29 90.98 180.57 91.08C180.61 91.09 180.66 91.11 180.7 91.12C181.02 91.22 181.33 91.32 181.65 91.41C181.66 91.41 181.68 91.41 181.69 91.42C183.73 92.02 185.82 92.48 187.97 92.79C187.98 92.79 187.99 92.79 188 92.79C188.34 92.84 188.68 92.88 189.01 92.92C189.05 92.92 189.08 92.92 189.12 92.93C189.43 92.97 189.75 93 190.06 93.03C190.13 93.03 190.2 93.04 190.27 93.05C190.55 93.08 190.83 93.1 191.12 93.12C191.24 93.12 191.35 93.13 191.47 93.14C191.71 93.16 191.95 93.17 192.2 93.18C192.38 93.18 192.57 93.19 192.75 93.2C192.93 93.2 193.11 93.21 193.29 93.22C193.66 93.22 194.03 93.23 194.4 93.23C194.77 93.23 195.14 93.23 195.51 93.22C195.69 93.22 195.87 93.21 196.05 93.2C196.23 93.2 196.42 93.19 196.6 93.18C196.84 93.17 197.08 93.15 197.33 93.14C197.45 93.14 197.56 93.13 197.68 93.12C197.96 93.1 198.25 93.07 198.53 93.05C198.6 93.05 198.67 93.04 198.74 93.03C199.06 93 199.37 92.97 199.68 92.93C199.72 92.93 199.75 92.93 199.79 92.92C200.13 92.88 200.47 92.83 200.81 92.79C200.81 92.79 200.83 92.79 200.84 92.79C202.99 92.48 205.09 92.02 207.12 91.42H207.15C207.47 91.31 207.79 91.21 208.11 91.11C208.15 91.1 208.19 91.08 208.23 91.07C208.52 90.98 208.81 90.88 209.09 90.78C209.17 90.75 209.24 90.73 209.32 90.7C209.57 90.61 209.82 90.52 210.07 90.43C210.19 90.39 210.3 90.34 210.42 90.3C210.63 90.22 210.83 90.14 211.04 90.06C211.2 90 211.36 89.93 211.52 89.87C211.68 89.8 211.84 89.74 212 89.67C212.2 89.58 212.4 89.5 212.6 89.41C212.72 89.36 212.83 89.31 212.94 89.26C213.18 89.15 213.42 89.04 213.65 88.93C213.72 88.89 213.8 88.86 213.87 88.82C214.14 88.69 214.41 88.55 214.68 88.42C214.72 88.4 214.76 88.38 214.8 88.36C215.1 88.21 215.39 88.05 215.69 87.89C215.7 87.89 215.72 87.88 215.73 87.87C217.6 86.86 219.4 85.7 221.14 84.4C221.14 84.4 221.16 84.39 221.17 84.38C221.44 84.18 221.71 83.97 221.98 83.76C222.01 83.74 222.04 83.71 222.07 83.69C222.32 83.5 222.56 83.3 222.8 83.1C222.86 83.05 222.91 83 222.97 82.96C223.18 82.78 223.4 82.6 223.61 82.42C223.7 82.34 223.79 82.26 223.88 82.18C224.06 82.02 224.24 81.87 224.41 81.71C224.55 81.58 224.69 81.45 224.84 81.32C224.96 81.2 225.09 81.09 225.21 80.97C225.75 80.46 226.27 79.94 226.78 79.4C226.9 79.28 227.01 79.15 227.13 79.03C227.26 78.89 227.4 78.75 227.53 78.6C227.69 78.43 227.84 78.25 228 78.07C228.08 77.98 228.17 77.88 228.25 77.79C228.43 77.58 228.61 77.37 228.79 77.16C228.84 77.1 228.89 77.04 228.94 76.98C229.14 76.74 229.33 76.5 229.52 76.26C229.55 76.23 229.57 76.19 229.6 76.16C229.81 75.9 230.01 75.63 230.21 75.36C230.21 75.35 230.23 75.34 230.24 75.32C231.54 73.59 232.69 71.78 233.7 69.92C233.7 69.9 233.72 69.89 233.73 69.87C233.89 69.58 234.04 69.29 234.19 68.99C234.21 68.95 234.23 68.9 234.26 68.86C234.4 68.59 234.53 68.33 234.66 68.06C234.7 67.98 234.73 67.9 234.77 67.83C234.88 67.6 234.99 67.36 235.1 67.13C235.15 67.01 235.21 66.89 235.26 66.77C235.35 66.57 235.43 66.38 235.52 66.18C235.59 66.02 235.66 65.85 235.73 65.69C235.79 65.54 235.86 65.38 235.92 65.23C236 65.02 236.08 64.81 236.17 64.6C236.21 64.49 236.26 64.38 236.3 64.26C236.39 64.01 236.49 63.76 236.58 63.5C236.61 63.43 236.63 63.36 236.66 63.28C236.76 62.99 236.86 62.7 236.95 62.4C236.96 62.36 236.97 62.33 236.99 62.29C237.09 61.97 237.19 61.64 237.29 61.32V61.3C237.89 59.26 238.36 57.16 238.67 55.01C238.67 55.01 238.67 55 238.67 54.99C238.72 54.65 238.76 54.31 238.81 53.96C238.81 53.93 238.81 53.9 238.82 53.86C238.86 53.54 238.89 53.22 238.92 52.91C238.92 52.84 238.93 52.78 238.94 52.71C238.97 52.42 238.99 52.14 239.01 51.85C239.01 51.74 239.02 51.63 239.03 51.52C239.05 51.27 239.06 51.03 239.07 50.78C239.07 50.6 239.08 50.43 239.09 50.25C239.09 50.06 239.11 49.88 239.11 49.69C239.11 49.33 239.12 48.98 239.12 48.62C239.12 48.61 239.12 48.6 239.12 48.58C239.12 48.56 239.12 48.54 239.12 48.52C239.12 44.48 238.56 40.43 237.47 36.51C237.41 36.31 237.35 36.11 237.3 35.91C237.3 35.88 237.28 35.85 237.27 35.82C237.07 35.15 236.86 34.49 236.63 33.83C236.6 33.73 236.56 33.64 236.53 33.54C236.46 33.33 236.38 33.13 236.31 32.92C236.25 32.76 236.19 32.59 236.12 32.43C236.07 32.3 236.02 32.17 235.97 32.04C235.89 31.84 235.81 31.65 235.73 31.45C235.7 31.37 235.66 31.29 235.63 31.21C233.95 27.21 231.66 23.41 228.76 19.95C228.74 19.92 228.72 19.9 228.69 19.87C228.52 19.67 228.35 19.46 228.17 19.26C228.13 19.22 228.09 19.17 228.06 19.13C227.74 18.77 227.42 18.41 227.09 18.05C227.04 18 227 17.95 226.95 17.9C226.82 17.77 226.69 17.63 226.56 17.5C226.45 17.38 226.33 17.27 226.22 17.15C226.16 17.09 226.1 17.03 226.04 16.97C225.97 16.9 225.9 16.84 225.84 16.77C225.73 16.66 225.62 16.56 225.51 16.45C225.41 16.36 225.31 16.26 225.22 16.17C225.04 16 224.87 15.84 224.69 15.67C224.66 15.64 224.63 15.61 224.6 15.58C222.1 13.29 219.33 11.28 216.35 9.6C215.88 9.33 215.4 9.08 214.92 8.83C214.91 8.83 214.9 8.82 214.88 8.81C214.67 8.7 214.45 8.59 214.24 8.49C214.17 8.46 214.11 8.42 214.04 8.39C213.88 8.31 213.71 8.23 213.55 8.15C213.43 8.09 213.31 8.04 213.19 7.98C213.08 7.93 212.97 7.88 212.85 7.83C212.67 7.75 212.5 7.67 212.32 7.59C212.26 7.56 212.2 7.54 212.15 7.52C211.92 7.42 211.68 7.32 211.45 7.22C206.87 5.34 201.91 4.19 196.71 3.93C196.69 3.93 196.67 3.93 196.64 3.93C196.39 3.92 196.15 3.91 195.9 3.9C195.83 3.9 195.76 3.9 195.7 3.9C195.48 3.9 195.26 3.9 195.04 3.89C194.95 3.89 194.85 3.89 194.76 3.89C194.66 3.89 194.56 3.89 194.46 3.89C194.35 3.89 194.25 3.89 194.14 3.89C194.03 3.89 193.93 3.89 193.82 3.89C193.61 3.89 193.4 3.89 193.2 3.9C193.11 3.9 193.03 3.9 192.94 3.9C192.71 3.9 192.48 3.92 192.25 3.93C192.21 3.93 192.16 3.93 192.12 3.93C187.89 4.15 183.81 4.96 179.97 6.27C179.97 6.27 179.95 6.27 179.94 6.27C179.68 6.36 179.42 6.45 179.16 6.55C179.11 6.57 179.05 6.59 179 6.61C178.78 6.69 178.57 6.77 178.35 6.85C178.24 6.89 178.14 6.93 178.03 6.97C177.87 7.03 177.7 7.1 177.54 7.17C177.37 7.24 177.21 7.31 177.04 7.38C176.94 7.42 176.84 7.47 176.74 7.51C176.5 7.61 176.27 7.72 176.03 7.82C176 7.83 175.97 7.85 175.94 7.86C171.85 9.72 167.98 12.23 164.49 15.39C164.48 15.4 164.46 15.42 164.45 15.43C164.25 15.61 164.06 15.79 163.86 15.97C163.82 16.01 163.79 16.04 163.75 16.08C163.57 16.25 163.4 16.42 163.22 16.59C163.17 16.64 163.12 16.69 163.07 16.73C163 16.8 162.93 16.87 162.86 16.94C162.76 17.04 162.67 17.13 162.58 17.23C162.53 17.29 162.47 17.34 162.42 17.4C162.25 17.58 162.08 17.75 161.91 17.93C161.87 17.97 161.83 18.01 161.8 18.05C161.62 18.25 161.43 18.45 161.25 18.65C161.24 18.66 161.23 18.68 161.21 18.69C157.23 23.12 154.28 28.15 152.38 33.47C152.35 33.54 152.33 33.61 152.3 33.68C152.25 33.82 152.21 33.95 152.16 34.09C152.1 34.26 152.04 34.43 151.99 34.6C151.99 34.62 151.98 34.64 151.97 34.65C151.59 35.8 151.26 36.98 150.98 38.17C150.27 41.14 149.88 44.18 149.79 47.22C149.79 47.53 149.78 47.84 149.77 48.15C149.77 48.15 149.77 48.17 149.77 48.18C149.77 48.3 149.77 48.43 149.77 48.55C149.77 48.67 149.77 48.78 149.77 48.9C149.77 49.03 149.77 49.17 149.77 49.3C149.77 49.52 149.77 49.73 149.78 49.95C149.78 50.03 149.78 50.12 149.78 50.2C149.97 55.51 151.09 60.58 152.98 65.26C152.98 65.26 152.98 65.28 152.99 65.29C153.29 66.04 153.62 66.79 153.96 67.52C154.01 67.63 154.06 67.74 154.12 67.86C154.18 67.99 154.25 68.12 154.31 68.25C154.4 68.43 154.49 68.62 154.59 68.8C154.64 68.91 154.7 69.01 154.76 69.12C154.87 69.33 154.98 69.53 155.09 69.74C155.14 69.83 155.19 69.92 155.24 70.01C155.36 70.24 155.49 70.46 155.62 70.69C155.66 70.76 155.7 70.83 155.74 70.9C155.89 71.15 156.03 71.4 156.18 71.65C156.21 71.69 156.23 71.74 156.26 71.78C156.3 71.84 156.34 71.91 156.38 71.97C157.98 74.57 159.85 77 161.93 79.21C161.93 79.21 161.96 79.24 161.97 79.25L161.91 79.26Z" fill="white"/>
<path d="M242.95 48.5C242.95 44.16 242.36 39.84 241.21 35.67C241.19 35.6 241.18 35.53 241.16 35.47C241.11 35.29 241.06 35.11 241 34.93L240.94 34.72C240.72 33.98 240.49 33.25 240.24 32.56L240.13 32.25C240.05 32.02 239.97 31.79 239.88 31.57C239.82 31.4 239.75 31.22 239.68 31.04C239.62 30.89 239.57 30.75 239.51 30.61C239.43 30.4 239.34 30.19 239.25 29.97L239.14 29.71C237.28 25.28 234.76 21.16 231.67 17.47L231.6 17.38C231.42 17.16 231.23 16.94 231.04 16.72L230.92 16.59C230.57 16.19 230.21 15.79 229.86 15.42L229.71 15.26C229.59 15.14 229.47 15.01 229.35 14.89L229.29 14.82C229.17 14.7 229.05 14.57 228.93 14.45L228.51 14.03C228.4 13.92 228.28 13.8 228.15 13.68L227.83 13.37C227.64 13.19 227.45 13.01 227.24 12.82L227.1 12.69C224.42 10.25 221.48 8.11 218.35 6.33C218.3 6.3 218.25 6.27 218.2 6.24C217.71 5.96 217.2 5.69 216.65 5.4L216.6 5.37C216.38 5.26 216.15 5.14 215.91 5.02L215.69 4.91C215.53 4.83 215.37 4.76 215.22 4.68L214.4 4.3C214.21 4.21 214.02 4.13 213.82 4.04L213.63 3.96C213.39 3.85 213.13 3.75 212.86 3.63C207.77 1.54 202.38 0.33 196.85 0.06H196.78C196.51 0.04 196.24 0.03 195.97 0.02H195.75C195.51 0.01 195.27 0 195.03 0H194.41H193.72C193.5 0 193.27 0 193.04 0.01H192.75C192.5 0.03 192.25 0.04 192 0.05H191.86C187.35 0.29 182.91 1.15 178.63 2.61C178.35 2.71 178.06 2.81 177.78 2.91L177.61 2.97C177.37 3.06 177.13 3.15 176.9 3.24L176.54 3.38C176.37 3.45 176.2 3.52 176.03 3.59C175.86 3.66 175.69 3.73 175.49 3.82L175.16 3.96C174.91 4.07 174.65 4.18 174.37 4.31L174.29 4.34C169.75 6.4 165.56 9.16 161.85 12.52L161.81 12.56C161.59 12.76 161.38 12.96 161.15 13.17L161.05 13.27C160.86 13.45 160.67 13.63 160.48 13.82L160.09 14.2C160.02 14.27 159.95 14.35 159.88 14.42L159.61 14.7C159.42 14.89 159.24 15.08 159.06 15.28L158.93 15.42C158.73 15.63 158.54 15.84 158.34 16.06L158.31 16.1C154.07 20.82 150.84 26.23 148.71 32.17L148.44 32.94C148.39 33.09 148.34 33.24 148.29 33.39L148.27 33.45C147.86 34.71 147.5 36 147.19 37.27C147.18 37.32 147.17 37.36 147.16 37.4C146.42 40.55 145.99 43.8 145.9 47.04V47.1C145.89 47.43 145.88 47.76 145.88 48.1H146.2L145.88 48.15V48.54C145.88 48.63 145.88 48.72 145.88 48.8V49.36C145.89 49.59 145.9 49.82 145.9 50.06V50.32C146.11 55.97 147.28 61.48 149.4 66.72C149.73 67.53 150.08 68.35 150.46 69.14L150.63 69.5C150.68 69.6 150.73 69.71 150.79 69.82L150.84 69.92C150.94 70.12 151.03 70.32 151.14 70.52L151.32 70.87C151.44 71.09 151.55 71.32 151.68 71.54L151.84 71.83C151.98 72.08 152.11 72.33 152.25 72.57L152.38 72.79C152.54 73.06 152.7 73.34 152.86 73.61L153.07 73.96C153.1 74.01 153.14 74.07 153.16 74.1C154.85 76.83 156.83 79.4 159.03 81.74C159.06 81.77 159.08 81.8 159.11 81.83L159.15 81.87C159.48 82.22 159.78 82.53 160.09 82.84L160.19 82.94C160.44 83.19 160.7 83.44 160.95 83.68C161.07 83.79 161.18 83.9 161.3 84.01L161.53 84.23C161.62 84.32 161.72 84.41 161.81 84.49C162.01 84.67 162.21 84.85 162.41 85.02L162.68 85.26C162.92 85.47 163.16 85.67 163.4 85.87L163.56 86C163.83 86.22 164.11 86.44 164.38 86.66L164.46 86.72C164.74 86.94 165.03 87.16 165.35 87.41C167.22 88.81 169.21 90.09 171.28 91.21C171.61 91.39 171.94 91.56 172.26 91.73L172.37 91.78C172.67 91.93 172.97 92.08 173.27 92.23L173.49 92.34C173.76 92.47 174.02 92.59 174.28 92.71L174.64 92.87C174.87 92.97 175.09 93.07 175.31 93.16C175.46 93.23 175.62 93.29 175.81 93.37C175.99 93.44 176.17 93.52 176.34 93.59C176.55 93.68 176.77 93.76 177.01 93.85L177.39 93.99C177.65 94.09 177.92 94.18 178.19 94.28L178.45 94.37C178.75 94.48 179.06 94.58 179.37 94.68L179.52 94.73C179.86 94.84 180.21 94.95 180.55 95.05L180.61 95.07C182.83 95.73 185.12 96.23 187.42 96.56H187.46C187.82 96.62 188.19 96.67 188.56 96.71H188.68C189.02 96.76 189.36 96.8 189.71 96.83L189.94 96.85C190.25 96.88 190.56 96.91 190.86 96.93L191.3 96.96C191.54 96.98 191.78 96.99 192.03 97C192.16 97 192.29 97.01 192.42 97.02H192.79C192.93 97.04 193.07 97.04 193.21 97.05C193.61 97.05 194.01 97.06 194.41 97.06C194.81 97.06 195.21 97.06 195.61 97.05C195.75 97.05 195.89 97.05 196.03 97.04H196.34C196.49 97.02 196.64 97.02 196.79 97.01C197.03 97 197.27 96.98 197.51 96.97L197.95 96.94C198.26 96.92 198.56 96.89 198.87 96.86L199.1 96.84C199.44 96.81 199.78 96.77 200.15 96.73H200.24C200.61 96.68 200.97 96.63 201.38 96.57C203.68 96.24 205.98 95.74 208.24 95.07C208.59 94.97 208.94 94.86 209.29 94.75L209.42 94.71C209.74 94.61 210.05 94.5 210.36 94.39L210.6 94.3C210.87 94.2 211.14 94.11 211.41 94L211.78 93.86C212.01 93.77 212.23 93.69 212.45 93.6C212.62 93.53 212.79 93.46 212.97 93.39C213.15 93.32 213.32 93.24 213.49 93.17C213.71 93.08 213.92 92.98 214.17 92.87L214.52 92.71C214.78 92.59 215.04 92.47 215.32 92.33L215.54 92.23C215.83 92.09 216.12 91.94 216.42 91.79L216.55 91.72C216.87 91.56 217.19 91.39 217.51 91.21L217.56 91.18C219.59 90.08 221.57 88.81 223.46 87.39C223.76 87.16 224.05 86.94 224.34 86.72L224.44 86.64C224.71 86.43 224.97 86.22 225.24 86L225.42 85.85C225.66 85.65 225.89 85.46 226.12 85.26L226.48 84.94C226.65 84.79 226.82 84.64 226.99 84.48C227.1 84.38 227.2 84.29 227.3 84.19L227.61 83.91C227.69 83.83 227.77 83.76 227.85 83.68C228.43 83.13 229 82.56 229.55 81.98C229.63 81.9 229.71 81.81 229.82 81.69L230.03 81.47C230.14 81.35 230.25 81.23 230.36 81.11C230.51 80.95 230.66 80.78 230.81 80.61L231.14 80.24C231.33 80.02 231.53 79.79 231.72 79.56L231.89 79.36C232.1 79.1 232.31 78.84 232.54 78.55L232.61 78.46C232.83 78.18 233.05 77.89 233.27 77.6L233.31 77.55C234.69 75.7 235.96 73.73 237.06 71.69L237.08 71.65C237.26 71.32 237.42 71.01 237.59 70.69L237.66 70.55C237.81 70.26 237.95 69.97 238.1 69.67L238.22 69.42C238.34 69.17 238.46 68.91 238.58 68.66C238.64 68.54 238.69 68.41 238.75 68.28C238.85 68.06 238.94 67.85 239.03 67.63C239.1 67.46 239.18 67.28 239.25 67.1C239.32 66.93 239.39 66.76 239.46 66.59C239.55 66.37 239.64 66.14 239.73 65.91L239.87 65.54C239.97 65.27 240.07 65 240.17 64.72L240.25 64.48C240.36 64.17 240.47 63.85 240.57 63.53L240.61 63.41C240.72 63.07 240.83 62.72 240.94 62.36V62.33C241.61 60.1 242.11 57.8 242.45 55.47C242.5 55.1 242.55 54.73 242.6 54.35V54.25C242.65 53.91 242.69 53.56 242.72 53.21L242.74 53C242.77 52.68 242.8 52.37 242.82 52.06L242.85 51.64C242.87 51.39 242.88 51.14 242.89 50.9C242.89 50.76 242.9 50.62 242.91 50.48V50.18C242.93 50.03 242.93 49.87 242.94 49.72C242.94 49.35 242.95 48.97 242.95 48.6V48.52V48.45V48.5ZM156.32 71.97C156.28 71.91 156.24 71.84 156.2 71.78C156.17 71.74 156.15 71.69 156.12 71.65C155.97 71.4 155.82 71.15 155.68 70.9C155.64 70.83 155.6 70.76 155.56 70.69C155.43 70.47 155.31 70.24 155.18 70.01C155.13 69.92 155.08 69.83 155.03 69.74C154.92 69.53 154.81 69.33 154.7 69.12C154.64 69.01 154.59 68.91 154.53 68.8C154.44 68.62 154.35 68.43 154.25 68.25C154.19 68.12 154.12 67.99 154.06 67.86C154.01 67.75 153.96 67.64 153.9 67.52C153.56 66.79 153.23 66.04 152.93 65.29C152.93 65.29 152.93 65.27 152.92 65.26C151.03 60.58 149.92 55.51 149.72 50.2C149.72 50.12 149.72 50.03 149.72 49.95C149.72 49.74 149.71 49.52 149.71 49.3C149.71 49.17 149.71 49.03 149.71 48.9C149.71 48.78 149.71 48.67 149.71 48.55C149.71 48.43 149.71 48.3 149.71 48.18C149.71 48.18 149.71 48.16 149.71 48.15C149.71 47.84 149.71 47.53 149.73 47.22C149.82 44.18 150.22 41.15 150.92 38.17C151.2 36.98 151.54 35.8 151.91 34.65C151.91 34.63 151.92 34.61 151.93 34.6C151.99 34.43 152.04 34.26 152.1 34.09C152.15 33.95 152.19 33.82 152.24 33.68C152.26 33.61 152.29 33.54 152.32 33.47C154.22 28.15 157.16 23.12 161.15 18.69C161.16 18.68 161.17 18.66 161.19 18.65C161.37 18.45 161.55 18.25 161.74 18.05C161.78 18.01 161.82 17.97 161.85 17.93C162.02 17.75 162.19 17.58 162.36 17.4C162.41 17.34 162.47 17.29 162.52 17.23C162.61 17.13 162.71 17.04 162.8 16.94C162.87 16.87 162.94 16.8 163.01 16.73C163.06 16.68 163.11 16.63 163.16 16.59C163.34 16.42 163.51 16.25 163.69 16.08C163.73 16.04 163.76 16.01 163.8 15.97C163.99 15.79 164.19 15.61 164.39 15.43C164.4 15.42 164.42 15.4 164.43 15.39C167.92 12.23 171.79 9.72 175.88 7.86C175.91 7.85 175.94 7.83 175.97 7.82C176.21 7.71 176.44 7.61 176.68 7.51C176.78 7.47 176.88 7.42 176.98 7.38C177.15 7.31 177.31 7.24 177.48 7.17C177.64 7.1 177.81 7.04 177.97 6.97C178.08 6.93 178.18 6.89 178.29 6.85C178.5 6.77 178.72 6.69 178.94 6.61C178.99 6.59 179.05 6.57 179.1 6.55C179.36 6.46 179.62 6.36 179.88 6.27C179.88 6.27 179.9 6.27 179.91 6.27C183.75 4.95 187.83 4.15 192.06 3.93C192.1 3.93 192.15 3.93 192.19 3.93C192.42 3.92 192.65 3.91 192.88 3.9C192.97 3.9 193.05 3.9 193.14 3.9C193.35 3.9 193.55 3.9 193.76 3.89C193.87 3.89 193.97 3.89 194.08 3.89C194.19 3.89 194.29 3.89 194.4 3.89C194.5 3.89 194.6 3.89 194.7 3.89C194.79 3.89 194.89 3.89 194.98 3.89C195.2 3.89 195.42 3.89 195.64 3.9C195.71 3.9 195.78 3.9 195.84 3.9C196.09 3.9 196.34 3.92 196.58 3.93C196.6 3.93 196.62 3.93 196.65 3.93C201.85 4.19 206.81 5.33 211.39 7.22C211.63 7.32 211.86 7.42 212.09 7.52C212.15 7.54 212.21 7.57 212.26 7.59C212.44 7.67 212.61 7.75 212.79 7.83C212.9 7.88 213.02 7.93 213.13 7.98C213.25 8.04 213.37 8.09 213.49 8.15C213.65 8.23 213.82 8.31 213.98 8.39C214.05 8.42 214.11 8.46 214.18 8.49C214.39 8.6 214.61 8.7 214.82 8.81C214.83 8.81 214.84 8.82 214.86 8.83C215.34 9.08 215.82 9.33 216.29 9.6C219.27 11.28 222.03 13.29 224.54 15.58C224.54 15.58 224.6 15.64 224.63 15.67C224.81 15.83 224.99 16 225.16 16.17C225.26 16.26 225.36 16.36 225.45 16.45C225.56 16.56 225.67 16.66 225.78 16.77C225.85 16.84 225.92 16.9 225.98 16.97C226.04 17.03 226.1 17.09 226.16 17.15C226.27 17.27 226.39 17.38 226.5 17.5C226.63 17.63 226.76 17.77 226.89 17.9C226.94 17.95 226.98 18 227.03 18.05C227.36 18.4 227.69 18.76 228 19.13C228.04 19.17 228.08 19.22 228.11 19.26C228.29 19.46 228.46 19.67 228.63 19.87C228.65 19.9 228.67 19.92 228.7 19.95C231.6 23.42 233.89 27.22 235.57 31.21C235.6 31.29 235.64 31.37 235.67 31.45C235.75 31.65 235.83 31.84 235.91 32.04C235.96 32.17 236.01 32.3 236.06 32.43C236.12 32.59 236.19 32.76 236.25 32.92C236.33 33.13 236.4 33.33 236.47 33.54C236.5 33.64 236.54 33.73 236.57 33.83C236.8 34.49 237.01 35.15 237.21 35.82C237.21 35.85 237.23 35.88 237.24 35.91C237.3 36.11 237.36 36.31 237.41 36.51C238.51 40.43 239.06 44.47 239.06 48.52C239.06 48.54 239.06 48.56 239.06 48.58C239.06 48.59 239.06 48.6 239.06 48.62C239.06 48.98 239.06 49.33 239.05 49.69C239.05 49.88 239.04 50.06 239.03 50.25C239.03 50.43 239.02 50.6 239.01 50.78C239 51.03 238.98 51.27 238.97 51.52C238.97 51.63 238.96 51.74 238.95 51.85C238.93 52.14 238.9 52.43 238.88 52.71C238.88 52.78 238.87 52.84 238.86 52.91C238.83 53.23 238.79 53.55 238.76 53.86C238.76 53.89 238.76 53.92 238.75 53.96C238.71 54.3 238.66 54.65 238.61 54.99C238.61 54.99 238.61 55 238.61 55.01C238.3 57.16 237.84 59.26 237.23 61.3V61.32C237.13 61.65 237.03 61.97 236.93 62.29C236.92 62.33 236.91 62.36 236.89 62.4C236.79 62.69 236.7 62.99 236.6 63.28C236.57 63.35 236.55 63.42 236.52 63.5C236.43 63.75 236.34 64.01 236.24 64.26C236.2 64.37 236.15 64.48 236.11 64.6C236.03 64.81 235.95 65.02 235.86 65.23C235.8 65.38 235.73 65.54 235.67 65.69C235.6 65.85 235.53 66.02 235.46 66.18C235.38 66.38 235.29 66.57 235.2 66.77C235.15 66.89 235.09 67.01 235.04 67.13C234.93 67.37 234.82 67.6 234.71 67.83C234.67 67.91 234.64 67.99 234.6 68.06C234.47 68.33 234.34 68.59 234.2 68.86C234.18 68.9 234.16 68.95 234.13 68.99C233.98 69.28 233.83 69.57 233.67 69.87C233.67 69.89 233.65 69.9 233.64 69.92C232.63 71.78 231.47 73.59 230.18 75.32C230.18 75.33 230.16 75.34 230.15 75.36C229.95 75.63 229.74 75.9 229.54 76.16C229.51 76.19 229.49 76.23 229.46 76.26C229.27 76.5 229.07 76.74 228.88 76.98C228.83 77.04 228.78 77.1 228.73 77.16C228.55 77.37 228.38 77.58 228.19 77.79C228.11 77.88 228.03 77.98 227.94 78.07C227.79 78.25 227.63 78.42 227.47 78.6C227.34 78.74 227.21 78.89 227.07 79.03C226.95 79.15 226.84 79.28 226.72 79.4C226.21 79.94 225.69 80.46 225.15 80.97C225.03 81.09 224.9 81.2 224.78 81.32C224.64 81.45 224.5 81.58 224.35 81.71C224.17 81.87 224 82.03 223.82 82.18C223.73 82.26 223.64 82.34 223.55 82.42C223.34 82.6 223.12 82.78 222.91 82.96C222.85 83.01 222.8 83.06 222.74 83.1C222.5 83.3 222.25 83.5 222.01 83.69C221.98 83.71 221.95 83.74 221.92 83.76C221.65 83.97 221.38 84.18 221.11 84.38C221.11 84.38 221.09 84.39 221.08 84.4C219.34 85.7 217.54 86.85 215.67 87.87C215.66 87.87 215.64 87.88 215.63 87.89C215.34 88.05 215.04 88.2 214.74 88.36C214.7 88.38 214.66 88.4 214.62 88.42C214.35 88.56 214.08 88.69 213.81 88.82C213.74 88.86 213.66 88.89 213.59 88.93C213.35 89.04 213.11 89.15 212.88 89.26C212.77 89.31 212.65 89.36 212.54 89.41C212.34 89.5 212.14 89.59 211.94 89.67C211.78 89.74 211.62 89.8 211.46 89.87C211.3 89.94 211.14 90 210.98 90.06C210.78 90.14 210.57 90.22 210.36 90.3C210.24 90.34 210.13 90.39 210.01 90.43C209.76 90.52 209.51 90.61 209.26 90.7C209.18 90.73 209.11 90.75 209.03 90.78C208.74 90.88 208.46 90.98 208.17 91.07C208.13 91.08 208.09 91.1 208.05 91.11C207.73 91.21 207.41 91.31 207.09 91.41H207.06C205.02 92.02 202.92 92.49 200.78 92.79C200.78 92.79 200.76 92.79 200.75 92.79C200.41 92.84 200.07 92.88 199.73 92.92C199.69 92.92 199.66 92.92 199.62 92.93C199.31 92.97 198.99 93 198.68 93.03C198.61 93.03 198.54 93.04 198.47 93.05C198.19 93.08 197.9 93.1 197.62 93.12C197.5 93.12 197.39 93.13 197.27 93.14C197.03 93.16 196.79 93.17 196.54 93.18C196.36 93.18 196.17 93.19 195.99 93.2C195.81 93.2 195.63 93.21 195.45 93.22C195.08 93.22 194.71 93.23 194.34 93.23C193.97 93.23 193.6 93.23 193.23 93.22C193.05 93.22 192.87 93.21 192.69 93.2C192.51 93.2 192.32 93.19 192.14 93.18C191.9 93.17 191.66 93.15 191.41 93.14C191.29 93.14 191.18 93.13 191.06 93.12C190.78 93.1 190.49 93.07 190.21 93.05C190.14 93.05 190.07 93.04 190 93.03C189.68 93 189.37 92.97 189.06 92.93C189.02 92.93 188.99 92.93 188.95 92.92C188.61 92.88 188.27 92.83 187.94 92.79C187.93 92.79 187.92 92.79 187.91 92.79C185.76 92.48 183.67 92.02 181.63 91.42C181.62 91.42 181.6 91.42 181.59 91.41C181.27 91.32 180.95 91.22 180.64 91.12C180.6 91.11 180.55 91.09 180.51 91.08C180.22 90.99 179.94 90.89 179.66 90.79C179.58 90.76 179.5 90.73 179.42 90.71C179.17 90.62 178.93 90.53 178.68 90.44C178.56 90.4 178.44 90.35 178.32 90.3C178.12 90.22 177.92 90.14 177.72 90.06C177.56 89.99 177.39 89.93 177.23 89.86C177.07 89.8 176.92 89.73 176.77 89.66C176.56 89.57 176.36 89.48 176.16 89.39C176.05 89.34 175.94 89.29 175.83 89.24C175.59 89.13 175.34 89.02 175.1 88.9C175.03 88.87 174.96 88.83 174.89 88.8C174.61 88.67 174.34 88.53 174.06 88.39C174.03 88.37 173.99 88.35 173.96 88.34C173.66 88.19 173.36 88.03 173.06 87.86C173.06 87.86 173.05 87.86 173.04 87.85C171.17 86.83 169.36 85.68 167.61 84.37C167.33 84.16 167.05 83.95 166.78 83.73C166.76 83.71 166.74 83.69 166.71 83.68C166.46 83.48 166.2 83.28 165.95 83.07C165.9 83.03 165.86 82.99 165.81 82.95C165.59 82.76 165.36 82.57 165.14 82.38C165.06 82.31 164.98 82.24 164.9 82.17C164.71 82 164.52 81.84 164.33 81.67C164.21 81.56 164.09 81.44 163.96 81.33C163.82 81.2 163.67 81.06 163.53 80.93C163.29 80.7 163.06 80.48 162.83 80.25C162.8 80.22 162.77 80.19 162.74 80.17C162.74 80.17 162.73 80.16 162.72 80.15C162.43 79.86 162.14 79.56 161.85 79.26C161.84 79.25 161.82 79.23 161.81 79.22C159.72 77.01 157.86 74.58 156.26 71.98L156.32 71.97Z" fill="white"/>
<path d="M194.39 93.26C193.95 93.26 193.5 93.26 193.06 93.24L202.19 68.14H214.76C216.97 68.14 219.39 66.44 220.14 64.37L230.05 37.16C231.67 32.7 229.12 29.06 224.38 29.06H206.94L192.31 69.26L184.02 92.05C164.34 87.37 149.71 69.68 149.71 48.58C149.71 27.48 163.51 10.81 182.33 5.54L173.77 29.06L159.54 68.14H169.01L181.11 34.93H188.23L176.13 68.14H185.6L196.87 37.16C198.49 32.7 195.94 29.06 191.2 29.06H183.24L192.38 3.94C193.05 3.91 193.72 3.89 194.39 3.89C219.07 3.89 239.08 23.9 239.08 48.58C239.08 73.26 219.07 93.27 194.39 93.27V93.26ZM221.43 34.91H214.31L204.35 62.25H211.47L221.43 34.91Z" fill="#4494CF"/>
</g>
<defs>
<clipPath id="clip0_1_225">
<rect width="242.95" height="97.12" fill="white"/>
</clipPath>
</defs>
</svg>
