<svg width="633" height="158" viewBox="0 0 633 158" fill="none" xmlns="http://www.w3.org/2000/svg">
<path fill-rule="evenodd" clip-rule="evenodd" d="M154.396 110.044C143.839 127.835 124.288 139.957 102.195 139.957C85.7722 139.957 70.9134 133.31 59.9649 122.752H76.9742C76.9742 122.752 125.852 36.7278 126.047 36.3368C126.243 35.9457 126.243 35.7502 125.852 35.7502H105.714C105.323 35.7502 105.323 35.9457 105.128 35.9457C104.932 36.1412 77.5608 83.8457 77.5608 83.8457H41.7824C41.5869 82.2816 41.5869 80.913 41.5869 79.349C41.5869 45.9167 68.7628 18.7409 102.195 18.7409C119.204 18.7409 134.65 25.7792 145.794 37.3143C141.101 45.3302 119.595 81.8906 116.663 87.1694C114.903 83.2592 107.278 84.0412 103.368 84.0412C101.608 86.9738 93.5926 102.224 93.5926 102.224H102.195C106.105 102.224 106.496 106.329 104.932 108.871C103.368 111.413 96.9162 122.752 96.9162 122.752H117.445C117.445 122.752 142.666 78.5669 157.133 53.5416C159.088 57.6473 160.653 62.1441 161.63 66.6408C166.518 63.3171 172.383 61.362 178.835 61.362C170.428 26.5613 139.342 0.753937 102.195 0.753937C58.7918 0.753937 23.6 35.9457 23.6 79.349C23.6 80.913 23.6 82.4771 23.7955 83.8457H13.4335C12.8469 83.8457 12.6514 84.2367 12.2604 84.6277C12.0649 85.0188 3.07144 101.051 2.68042 101.442C2.68042 101.833 2.68042 102.028 3.07144 102.028H26.9237C36.6992 134.287 66.6122 157.748 102.195 157.748C130.544 157.748 155.178 142.89 169.059 120.406C163.194 118.646 158.111 114.932 154.396 110.044ZM45.8881 102.028H66.8077L56.6412 119.429C52.34 114.345 48.6253 108.48 45.8881 102.028Z" fill="#DA291C"/>
<path d="M168.277 100.66C173.752 100.66 180.008 97.9224 185.482 93.0347C185.482 93.0347 184.7 96.9449 184.505 98.1179C184.309 99.291 185.091 100.269 186.264 100.269H186.655C187.828 100.269 188.806 99.291 189.001 98.1179L190.957 87.1694C191.152 85.9963 190.37 85.0187 189.197 85.0187H178.248C177.075 85.0187 175.902 85.6053 175.707 86.7783V87.3649C175.511 88.5379 176.293 89.32 177.466 89.32H183.136L182.941 89.5155C179.03 93.2302 174.143 95.1853 170.233 95.1853C166.322 95.1853 161.826 92.6436 161.826 86.9738C161.826 75.2432 172.774 68.4004 178.639 68.4004C169.45 68.4004 161.435 73.8747 157.72 81.8906C156.938 84.2367 156.351 86.3873 156.351 88.5379C156.351 99.0955 164.758 100.66 168.277 100.66Z" fill="white"/>
<path d="M178.444 68.5959C172.579 68.5959 161.63 75.4388 161.63 87.1694C161.63 92.8392 166.127 95.3808 170.037 95.3808C173.947 95.3808 178.835 93.4257 182.745 89.711L182.941 89.5155H177.271C176.098 89.5155 175.316 88.7334 175.511 87.5604V86.9739C175.707 85.8008 176.88 85.2143 178.053 85.2143H189.002C190.175 85.2143 190.957 86.1918 190.761 87.3649L188.806 98.3134C188.61 99.4865 187.828 100.464 186.46 100.464H186.069C184.896 100.464 184.114 99.4865 184.309 98.3134C184.505 97.1404 185.287 93.2302 185.287 93.2302C180.008 98.1179 173.556 100.855 168.082 100.855C164.563 100.855 156.156 99.291 156.156 88.929C156.156 86.7783 156.547 84.6277 157.524 82.2816V82.4771C157.329 82.8681 157.133 83.4547 156.938 83.8457C156.742 84.2367 156.742 84.4322 156.547 84.8232C156.351 85.2143 156.351 85.8008 156.156 86.1918C156.156 86.5828 155.96 86.7783 155.96 87.1694C155.765 87.7559 155.765 88.1469 155.765 88.7334C155.765 88.929 155.765 89.32 155.569 89.5155C155.569 90.2975 155.374 91.0796 155.374 92.0571C155.374 92.8392 155.374 93.6212 155.569 94.4032C156.351 101.442 160.066 107.502 165.54 111.217C167.3 112.39 169.451 113.368 171.601 114.15C173.752 114.736 176.098 115.127 178.444 115.127C182.354 115.127 186.069 114.15 189.393 112.39C193.303 110.24 196.626 107.111 198.581 103.201C200.341 99.8775 201.319 96.1628 201.319 92.2526C201.514 78.9579 191.152 68.5959 178.444 68.5959Z" fill="#DA291C"/>
<path d="M213.049 77.3938H214.222C217.155 77.3938 218.523 76.0253 219.11 72.7016L225.366 37.3143L231.427 60.971C232.014 63.3171 232.405 64.8812 236.901 64.8812C240.812 64.8812 241.594 63.5126 242.962 61.362L257.821 36.9233L251.565 72.3106C250.978 75.6342 252.542 77.3938 255.279 77.3938H256.452C259.385 77.3938 260.754 75.8298 261.34 72.7016L269.161 28.9074C269.747 25.3882 268.183 23.0421 264.468 23.0421H261.34C258.212 23.0421 257.039 24.0196 254.888 27.3433L238.074 54.5192L231.036 27.5388C230.254 24.4106 229.277 23.0421 225.757 23.0421H223.02C219.697 23.0421 217.35 24.9972 216.764 28.7119L208.943 72.5061C208.748 75.6343 210.117 77.3938 213.049 77.3938ZM287.734 77.3938C302.006 77.3938 310.022 66.0543 309.631 53.5416C309.24 42.9841 302.006 35.1637 289.885 35.1637C276.003 35.1637 267.596 46.5033 267.988 58.8204C268.379 70.16 276.199 77.3938 287.734 77.3938ZM289.885 42.7886C295.945 42.7886 300.638 47.4808 300.833 53.9326C301.029 62.7306 295.554 69.5734 287.734 69.5734C281.282 69.5734 277.176 64.8812 276.785 58.4294C276.59 50.218 282.064 42.7886 289.885 42.7886ZM314.91 77.3938H316.083C319.016 77.3938 320.189 76.2208 320.775 72.7016L324.49 51.391C327.227 46.6988 330.16 44.3527 334.852 44.3527C339.544 44.3527 342.281 47.0898 342.281 51.782C342.281 52.9551 342.086 54.5192 341.89 56.2788L338.958 72.7016C338.371 76.4163 340.522 77.3938 343.063 77.3938H344.236C347.169 77.3938 348.342 76.2208 348.929 72.7016L352.057 54.5192C352.448 52.5641 352.643 50.609 352.643 49.0449C352.448 41.2245 347.365 35.9457 338.762 35.9457C332.897 35.9457 328.4 38.8784 325.467 43.5706C325.663 38.0963 322.73 36.5323 319.602 36.5323C318.234 36.5323 317.061 36.9233 316.865 37.1188L310.609 72.7016C310.218 76.2208 312.368 77.3938 314.91 77.3938ZM491.846 77.3938H493.02C495.561 77.3938 496.734 76.2208 497.321 72.7016L499.471 60.7755C501.035 51.5865 504.555 44.9392 510.029 44.9392C512.766 44.9392 514.33 46.1122 515.699 47.2853C515.894 47.4808 520 45.9167 519.804 40.8335C519.609 37.7053 516.676 35.7502 512.766 35.7502C508.074 35.7502 504.555 38.4874 502.013 43.3751C502.404 37.9008 499.276 36.3367 496.343 36.3367C494.779 36.3367 493.802 36.7278 493.606 36.9233L487.35 72.5061C486.763 76.2208 489.109 77.3938 491.846 77.3938ZM533.686 77.3938C539.942 77.3938 544.634 74.8522 547.762 69.5734C547.371 74.8522 548.349 76.6118 552.259 76.6118C555.778 76.6118 556.756 75.4387 557.147 71.5285C557.538 64.4902 560.079 52.9551 562.817 36.9233C562.817 36.7278 561.253 35.7502 559.297 35.7502C555.387 35.7502 553.237 37.7053 552.064 42.5931C549.522 37.9008 544.439 35.1637 538.573 35.1637C526.061 35.1637 517.263 46.3078 517.263 59.2114C517.067 69.5734 523.519 77.3938 533.686 77.3938ZM539.746 42.5931C546.785 42.5931 549.913 47.8718 549.913 53.5416C549.913 60.7755 545.025 69.5734 536.032 69.5734C529.971 69.5734 526.256 65.6632 526.256 58.8204C526.256 50.609 530.948 42.5931 539.746 42.5931ZM566.922 77.3938H568.095C570.637 77.3938 572.201 76.4163 572.788 72.7016L576.698 50.609C579.63 46.3078 582.172 44.3527 586.473 44.3527C590.579 44.3527 593.121 47.4808 593.121 52.1731C593.121 52.9551 593.121 53.7371 592.925 54.5192L589.797 72.7016C589.21 76.4163 591.361 77.3938 593.903 77.3938H594.88C597.422 77.3938 598.986 76.2208 599.768 72.7016L603.678 50.609C606.611 46.3078 609.348 44.3527 613.454 44.3527C617.364 44.3527 620.297 46.6988 620.297 51.782C620.297 52.9551 620.101 54.5192 619.71 56.2788L616.777 72.7016C616.191 76.4163 618.146 77.3938 620.883 77.3938H622.056C624.989 77.3938 626.162 76.2208 626.748 72.7016L629.877 54.5192C630.268 52.5641 630.463 50.609 630.463 49.0449C630.463 41.029 624.989 35.9457 617.364 35.9457C610.521 35.9457 605.829 39.4649 602.701 44.7437C601.137 39.2694 596.444 35.9457 590.384 35.9457C585.105 35.9457 580.608 38.4874 577.48 43.1796C577.675 38.0963 574.743 36.7278 571.615 36.7278C570.246 36.7278 569.073 37.1188 568.877 37.3143L562.621 72.8971C562.035 76.2208 564.185 77.3938 566.922 77.3938ZM374.931 77.3938C386.858 77.3938 393.7 72.1151 393.7 67.8138C393.7 64.8812 391.745 63.9037 389.399 63.7081C386.271 67.8139 381.97 69.7689 375.909 69.7689C370.63 69.7689 364.374 67.8138 363.983 58.4294H391.159C394.091 58.4294 396.242 56.6698 396.242 53.1506C396.242 47.6763 395.069 43.9616 392.527 40.8335C389.79 37.3143 384.707 35.1637 379.037 35.1637C361.246 35.1637 354.989 48.2629 354.989 59.6024C355.185 70.16 363.005 77.3938 374.931 77.3938ZM378.646 42.202C381.774 42.202 384.316 43.1796 385.88 44.9392C387.249 46.5033 387.835 48.8494 387.64 51.5865H364.96C367.111 45.9167 372.194 42.202 378.646 42.202ZM400.543 92.8391H402.498C406.213 92.8391 407.386 90.6885 409.146 87.5604L434.562 44.7437C433.78 47.6763 433.389 51 433.584 54.1281C433.976 68.5959 443.751 77.1983 458.023 77.1983C464.866 77.1983 470.145 74.6567 473.078 70.7465C472.882 74.8522 475.033 76.6118 478.161 76.6118C479.92 76.6118 481.093 76.0253 481.093 75.8298L485.199 52.7596C485.786 49.2404 484.417 47.4808 481.093 47.4808H464.866C462.911 47.4808 461.933 47.8718 461.347 48.4584C460.369 49.4359 459.978 51.782 459.978 52.9551C459.978 54.7147 461.542 55.6922 464.084 55.6922H475.619C474.055 63.7081 468.972 69.3779 460.174 69.3779C450.985 69.3779 444.729 63.5126 444.338 53.5416C443.947 41.029 452.158 30.667 464.084 30.667C470.927 30.667 476.401 34.3816 478.552 39.2694C478.747 39.6604 485.199 39.6604 485.004 34.1861C485.004 32.231 483.831 29.8849 481.68 27.9298C478.356 24.6061 471.904 21.6735 463.498 21.6735C451.571 21.6735 442.382 28.1253 437.495 37.7053C436.517 36.5323 434.953 35.7502 433.389 35.7502C430.652 35.7502 429.088 36.5323 426.546 41.029L414.033 63.1216L409.341 41.029C408.364 36.9233 406.995 35.7502 404.258 35.7502C401.13 35.7502 398.588 37.9008 398.784 38.4874L407.777 74.0702L398.393 89.3199C397.024 90.6885 396.829 92.8391 400.543 92.8391ZM241.398 119.624H212.854V106.329H209.139V136.829H212.854V122.557H241.398V136.829H245.113V106.329H241.398V119.624ZM266.423 106.329L248.437 136.829H252.738L256.648 129.986H281.087L285.192 136.829H289.494L271.311 106.329H266.423ZM258.603 126.858L268.965 108.871L279.523 126.858H258.603ZM311.195 106.329L293.208 136.829H297.51L301.42 129.986H325.858L329.964 136.829H334.265L316.278 106.329H311.195ZM303.375 126.858L313.737 108.871L324.294 126.858H303.375ZM363.592 120.211C361.637 120.015 360.073 119.82 359.095 119.82H345.214C343.259 119.82 341.695 119.428 340.717 118.842C339.74 118.255 339.153 116.887 339.153 114.932C339.153 113.954 339.349 112.977 339.544 112.195C339.74 111.413 340.522 110.826 341.499 110.435C342.477 110.044 344.041 109.653 346.192 109.457C348.342 109.262 350.493 109.262 352.448 109.262H353.816C356.554 109.262 358.704 109.457 360.268 109.653C362.028 109.848 363.201 110.044 363.787 110.435C364.374 110.826 364.96 111.217 365.156 111.999C365.547 112.781 365.547 113.759 365.547 115.323H369.262C369.262 112.586 368.675 110.435 367.502 109.066C366.329 107.698 364.569 106.916 362.419 106.72C360.268 106.525 358.509 106.329 357.531 106.329H352.643C349.906 106.329 347.56 106.329 345.409 106.525C343.259 106.72 341.304 107.111 339.74 107.698C338.176 108.284 337.003 109.262 336.416 110.631C335.829 111.999 335.438 113.759 335.438 115.909C335.438 118.451 336.221 120.406 337.785 121.579C339.349 122.752 341.499 123.143 344.432 123.143L352.643 123.339H359.682C362.028 123.339 363.787 123.73 364.96 124.316C365.938 124.903 366.525 126.271 366.525 128.617C366.525 130.377 366.134 131.55 365.352 132.332C364.569 133.114 363.005 133.701 360.855 133.896C358.704 134.092 355.967 134.287 352.839 134.287C350.884 134.287 348.929 134.287 346.974 134.092C345.018 133.896 343.259 133.701 342.086 133.31C340.913 132.919 340.131 132.332 339.935 131.55C339.74 130.768 339.544 129.595 339.544 127.835V127.249H335.829C335.829 130.573 336.416 132.919 337.394 134.287C338.371 135.656 340.131 136.438 342.477 136.829C344.823 137.22 346.583 137.415 347.756 137.415H355.185C357.531 137.415 359.682 137.415 361.637 137.22C363.592 137.024 365.352 136.633 366.72 136.047C368.089 135.46 369.066 134.483 369.653 133.31C370.239 132.137 370.435 130.573 370.435 128.617C370.435 125.88 369.848 123.73 368.675 122.557C367.111 120.993 365.547 120.406 363.592 120.211ZM393.896 136.829H397.611V122.752H421.854V119.624H397.611V109.457H423.027V106.329H393.896V136.829ZM465.453 109.457H480.898V136.829H484.613V109.457H500.058V106.329H465.453V109.457ZM507.096 122.557H532.708V119.624H507.096V109.457H533.686V106.329H503.382V136.829H534.077V133.701H507.096V122.557ZM555.387 106.329L537.4 136.829H541.702L545.612 129.986H570.05L574.156 136.829H578.457L560.47 106.329H555.387ZM547.567 126.858L557.929 108.871L568.486 126.858H547.567ZM606.22 132.528L588.037 106.329H581.977V136.829H585.691V109.457L604.656 136.829H607.784L626.748 109.457V136.829H630.463V106.329H624.598L606.22 132.528ZM437.886 106.329L429.479 112.39L431.434 115.518L437.886 110.631V136.829H441.6V106.329H437.886ZM448.248 107.111C448.052 106.916 447.857 106.916 447.661 106.72C447.466 106.72 447.27 106.525 446.879 106.525C446.488 106.525 446.293 106.525 446.097 106.72C445.902 106.72 445.706 106.916 445.511 107.111C445.315 107.307 445.12 107.502 445.12 107.698C444.924 107.893 444.924 108.089 444.924 108.48C444.924 108.675 444.924 109.066 445.12 109.262C445.315 109.457 445.315 109.653 445.511 109.848C445.706 110.044 445.902 110.24 446.097 110.24C446.293 110.24 446.488 110.435 446.879 110.435C447.27 110.435 447.466 110.435 447.661 110.24C447.857 110.24 448.052 110.044 448.248 109.848C448.443 109.653 448.639 109.457 448.639 109.262C448.834 109.066 448.834 108.871 448.834 108.48C448.834 108.284 448.834 107.893 448.639 107.698C448.443 107.502 448.443 107.307 448.248 107.111ZM448.248 109.066C448.248 109.262 448.052 109.457 447.857 109.653C447.661 109.848 447.466 109.849 447.466 110.044C447.27 110.044 447.075 110.24 446.879 110.24C446.684 110.24 446.488 110.24 446.293 110.044C446.097 110.044 445.902 109.848 445.902 109.653C445.706 109.457 445.706 109.262 445.511 109.066C445.511 108.871 445.315 108.675 445.315 108.48C445.315 108.284 445.315 108.089 445.511 107.893C445.511 107.698 445.706 107.502 445.902 107.307C446.097 107.111 446.293 107.111 446.293 106.916C446.488 106.916 446.684 106.72 446.879 106.72C447.075 106.72 447.27 106.72 447.466 106.916C447.661 106.916 447.857 107.111 447.857 107.307C448.052 107.502 448.052 107.698 448.248 107.893C448.248 108.089 448.443 108.284 448.443 108.48C448.443 108.675 448.443 108.871 448.248 109.066Z" fill="white"/>
<path d="M447.661 108.284C447.857 108.284 447.857 108.089 447.857 107.893C447.857 107.698 447.857 107.502 447.661 107.502C447.466 107.307 447.27 107.307 447.075 107.307H446.293V109.457H446.684V108.48H447.075L447.661 109.457H448.052L447.466 108.48C447.27 108.48 447.466 108.48 447.661 108.284ZM446.879 108.284H446.488V107.698H447.27L447.466 107.893V108.284L447.27 108.48H447.075C447.075 108.284 446.879 108.284 446.879 108.284Z" fill="black"/>
<path d="M412.274 90.2975L410.71 92.8391H629.094L630.463 90.2975H412.274ZM209.139 92.8391H391.941L393.309 90.2975H210.703L209.139 92.8391Z" fill="#DA291C"/>
</svg>
