<svg width="300" height="90" viewBox="0 0 300 90" fill="none" xmlns="http://www.w3.org/2000/svg">
<path d="M157.91 43C157.91 44.2 157.38 45.07 155.74 45.07H145.27C143.92 45.07 143.15 44.68 143.15 43.43C143.15 42.18 143.68 41.56 145.27 41.56H157.91V43ZM204.08 38V36.65C204.08 35.4 204.61 34.58 206.3 34.58H216.77C218.21 34.58 218.93 35.01 218.93 36.36C218.93 37.51 218.36 38.04 216.87 38.04L204.08 38ZM231.57 28.73V50.83H242.16V34.78H250.8C253.74 34.78 255.23 35.7 255.23 38.53V50.88H265.8V37.66C265.8 31.46 262.38 28.77 252.73 28.77L231.57 28.73ZM205.57 28.73C197.06 28.73 193.65 31.56 193.65 37.95V42.33C193.65 47.85 197.06 50.83 204.75 50.83H227.1V45.06H206.82C204.82 45.06 204.13 44.48 204.13 42.99V42.08H220.13C225.65 42.08 228.77 40.35 228.77 36.22V35.22C228.77 31.47 226.9 28.78 217.53 28.78L205.57 28.73ZM171.57 50.83H182.14V36.36C182.14 35.36 182.53 34.77 183.83 34.77H192V28.77H180.25C173.95 28.77 171.55 31.12 171.55 35.06L171.57 50.83ZM135.44 28.73V34.55H155.29C157.29 34.55 157.94 35.23 157.94 36.67V37.52H142C135.32 37.52 133.31 40.27 133.31 43.77V44.63C133.31 49.49 137.2 50.83 144.84 50.83H156.57C164.88 50.83 168.48 48.96 168.48 42.42V37.32C168.48 31.79 165.07 28.77 157.34 28.77L135.44 28.73ZM72.18 41.07C72.18 48.07 75.73 50.87 84.91 50.87H105.05V44.87H86.45C84.24 44.87 82.75 43.87 82.75 40.69V38.81C82.75 35.97 84.14 34.81 86.4 34.81H105.05V28.81H84.62C75.62 28.81 72.18 32.6 72.18 38.66V41.07ZM108.18 25.26V50.87H131.18V44.87H118.78V25.26H108.18ZM42.18 39.58V25.26H36.18C32.48 25.26 30.37 26.74 28.18 28.48L0 50.87H12.73L31.48 35.69V50.87H40.27L58.43 35.59V50.87H69.2V25.26H63.33C60.16 25.26 57.95 26.56 55.74 28.38L42.18 39.58Z" fill="white"/>
<path d="M291.22 6.66C285.32 6.66 277.01 8.42 268 11.72C259.944 14.649 252.232 18.4481 245 23.05C251.936 20.5007 259.251 19.1317 266.64 19C276.98 19 284.34 23 273.47 36.83C305.47 15.83 304.64 6.71 291.22 6.71" fill="#FF8000"/>
<path d="M58.92 73H65.48V74.93H61V77.21H65V79.15H61V83.15H58.92V73Z" fill="white"/>
<path d="M73.4301 78.17V78C73.4301 74.94 75.3501 72.8 78.0501 72.8C80.7501 72.8 82.6501 74.92 82.6501 77.97V78.14C82.6501 81.14 80.7201 83.34 78.0301 83.34C75.3401 83.34 73.4301 81.21 73.4301 78.17ZM80.4301 78.17V78C80.4301 76 79.4301 74.73 78.0001 74.73C76.5701 74.73 75.6001 76 75.6001 78V78.1C75.6001 80.1 76.6001 81.38 78.0501 81.38C79.5001 81.38 80.4601 80.12 80.4601 78.12L80.4301 78.17Z" fill="white"/>
<path d="M91.42 73H95.25C95.7518 72.9761 96.2533 73.0522 96.7254 73.2239C97.1975 73.3956 97.6308 73.6594 98 74C98.2956 74.3147 98.5243 74.6861 98.6721 75.0918C98.8199 75.4975 98.8839 75.9289 98.86 76.36C98.8925 76.9939 98.7283 77.6223 98.39 78.1593C98.0517 78.6963 97.5558 79.1156 96.97 79.36L99.14 83.14H96.73L94.85 79.79H93.53V83.14H91.41L91.42 73ZM95.09 78C95.3035 78.0281 95.5206 78.0089 95.7259 77.9439C95.9312 77.8788 96.1197 77.7694 96.2781 77.6235C96.4364 77.4775 96.5608 77.2986 96.6423 77.0992C96.7239 76.8999 96.7607 76.6851 96.75 76.47C96.75 75.47 96.12 74.94 95.05 74.94H93.54V78H95.09Z" fill="white"/>
<path d="M107.67 73H109.88L112.15 77.13L114.4 73H116.62V83.16H114.55V76.66L112.15 80.86L109.76 76.69V83.16H107.76L107.67 73Z" fill="white"/>
<path d="M125.73 79.2V73H127.85V79.24C127.85 80.68 128.53 81.39 129.62 81.39C130.71 81.39 131.4 80.69 131.4 79.28V73H133.49V79.18C133.49 81.99 131.95 83.35 129.59 83.35C127.23 83.35 125.73 82 125.73 79.2Z" fill="white"/>
<path d="M142.6 73H144.71V81.25H148.83V83.19H142.6V73Z" fill="white"/>
<path d="M160.5 72.92H162.5L166.16 83.16H164L163.22 81H159.72L159 83.16H156.89L160.5 72.92ZM162.58 79.09L161.47 75.77L160.35 79.09H162.58Z" fill="white"/>
<path d="M186.41 75.07L184.86 75.49L184.52 73.66L187 72.9H188.46V83.16H186.38L186.41 75.07Z" fill="white"/>
<path d="M210.41 74.93H207.85V73H215.07V75H212.5V83.23H210.41V74.93Z" fill="white"/>
<path d="M223.44 73H230V74.9H225.55V77.1H229.48V79H225.55V81.27H230.07V83.18H223.45L223.44 73Z" fill="white"/>
<path d="M241.84 72.92H243.84L247.49 83.16H245.31L244.57 81H241.06L240.32 83.21H238.2L241.84 72.92ZM243.92 79.09L242.82 75.77L241.7 79.09H243.92Z" fill="white"/>
<path d="M255.81 73H258L260.27 77.13L262.54 73H264.77V83.16H262.7V76.66L260.3 80.86L257.91 76.69V83.16H255.85L255.81 73Z" fill="white"/>
</svg>
