<svg width="358" height="112" viewBox="0 0 358 112" fill="none" xmlns="http://www.w3.org/2000/svg">
<g clip-path="url(#clip0_1_147)">
<path d="M110.535 55.726C110.535 85.8211 86.1802 110.175 56.0851 110.175C25.99 110.175 1.63562 85.8211 1.63562 55.726C1.63562 25.6309 25.99 1.27652 56.0851 1.27652C86.1802 1.27652 110.535 25.6309 110.535 55.726ZM56.0851 4.58176C27.7296 4.58176 4.94086 27.3705 4.94086 55.726C4.94086 84.0815 27.9036 106.87 56.0851 106.87C84.4406 106.87 107.229 83.9075 107.229 55.726C107.229 27.3705 84.4406 4.58176 56.0851 4.58176Z" fill="url(#paint0_linear_1_147)"/>
<path d="M56.085 4.58176C27.7296 4.58176 4.9408 27.3705 4.9408 55.726C4.9408 84.0815 27.9035 106.87 56.085 106.87C84.4405 106.87 107.229 83.9075 107.229 55.726C107.229 27.3705 84.4405 4.58176 56.085 4.58176ZM56.085 103.565C29.6431 103.565 8.24604 82.1679 8.24604 55.726C8.24604 29.2841 29.6431 7.887 56.085 7.887C82.527 7.887 103.924 29.2841 103.924 55.726C103.924 82.1679 82.527 103.565 56.085 103.565Z" fill="url(#paint1_linear_1_147)"/>
<path d="M56.085 110.175C86.1801 110.175 110.535 85.8211 110.535 55.726C110.535 25.6309 86.1801 1.27653 56.085 1.27653C25.99 1.27653 1.63557 25.6309 1.63557 55.726C1.63557 85.8211 25.99 110.175 56.085 110.175ZM56.085 0.0588074C86.702 0.0588074 111.752 25.109 111.752 55.726C111.752 86.343 86.702 111.393 56.085 111.393C25.4681 111.393 0.417847 86.343 0.417847 55.726C0.417847 25.109 25.4681 0.0588074 56.085 0.0588074Z" fill="url(#paint2_linear_1_147)"/>
<path d="M4.245 55.9C4.245 27.3705 27.3817 3.88593 56.0851 3.88593C84.7885 3.88593 107.925 27.1966 107.925 55.9C107.925 84.4294 84.7885 107.566 56.0851 107.566C27.3817 107.566 4.245 84.4294 4.245 55.9ZM20.4233 20.0642C11.2034 29.2841 5.46272 41.9832 5.46272 55.9C5.46272 69.8168 11.2034 82.5158 20.2493 91.5618C29.4692 100.608 42.1683 106.348 56.0851 106.348C70.0019 106.348 82.701 100.782 91.7469 91.5618C100.967 82.5158 106.533 69.8168 106.533 55.9C106.533 41.9832 100.793 29.2841 91.7469 20.0642C82.701 10.8443 70.0019 5.10365 56.0851 5.10365C42.1683 5.10365 29.4692 10.8443 20.4233 20.0642Z" fill="white"/>
<path d="M56.0851 103.739C43.2121 103.739 31.2088 98.6941 22.1629 89.6482C13.117 80.6023 8.07214 68.599 8.07214 55.726C8.07214 42.853 13.117 30.8497 22.1629 21.8038C31.2088 12.7579 43.2121 7.71304 56.0851 7.71304C68.9581 7.71304 80.9614 12.7579 90.0073 21.8038C99.0532 30.8497 104.098 42.853 104.098 55.726C104.098 68.599 99.0532 80.6023 90.0073 89.6482C80.9614 98.6941 68.9581 103.739 56.0851 103.739ZM56.0851 102.347C68.4363 102.347 80.2655 97.4764 88.9635 88.7784C97.8355 79.9064 102.532 68.2511 102.532 55.9C102.532 43.5488 97.6615 31.7195 88.9635 23.0215C80.0916 14.1496 68.4363 9.45264 56.0851 9.45264C43.7339 9.45264 31.9047 14.3235 23.2067 23.0215C14.3347 31.5456 9.46382 43.3748 9.46382 55.726C9.46382 68.0772 14.3347 79.9064 23.0327 88.6044C31.9047 97.4764 43.7339 102.347 56.0851 102.347Z" fill="url(#paint3_linear_1_147)"/>
<path d="M98.3573 78.3408C97.4875 77.645 63.9133 51.0291 63.9133 51.0291L56.0851 6.32138C55.5632 6.49534 54.8673 7.01722 54.5194 7.71306L48.9527 51.2031L14.3347 77.8189C14.3347 77.8189 13.6388 78.6887 13.2909 79.2106C13.1169 79.5585 13.1169 80.0804 13.1169 80.6023L55.9111 63.0323L98.7053 80.6023C99.0532 79.7325 98.7053 78.8627 98.3573 78.3408Z" fill="white"/>
<path d="M56.433 57.1177L56.0851 65.1199L95.4 80.9502C96.7917 81.6461 97.8355 81.2981 98.8792 80.6023L56.9549 56.9437C56.7809 56.7698 56.433 56.9437 56.433 57.1177Z" fill="#565F64"/>
<path d="M56.433 57.1177C56.433 57.1177 58.6945 61.1188 61.3039 63.9021C64.957 67.9032 69.8279 70.6866 69.8279 70.6866L95.4 80.9502C96.7917 81.6461 97.8355 81.2981 98.8792 80.6023L56.9549 56.9437C56.7809 56.7698 56.433 56.9437 56.433 57.1177Z" fill="url(#paint4_linear_1_147)"/>
<path d="M98.7052 79.0366C98.7052 78.8627 98.5312 78.6887 98.3573 78.3408L62.5215 52.0728L57.6506 55.2041C57.6506 55.2041 57.9986 55.3781 58.1725 55.2041C58.6944 55.0302 59.7382 54.8562 60.7819 55.2041C61.6517 55.552 98.7052 79.2106 98.7052 79.2106V79.0366Z" fill="#A4AAAE" fill-opacity="0.6"/>
<path d="M97.4876 77.471L64.0872 51.0291L62.5216 52.0728L98.3574 78.5148C98.1834 78.1668 97.8355 77.8189 97.4876 77.471Z" fill="#333E46"/>
<path d="M56.9549 54.5083L56.7809 54.6823C56.7809 54.6823 56.7809 55.0302 57.1289 54.8562C57.3028 54.6823 62.3477 52.0728 64.0873 51.0291L57.9987 9.27869C57.8247 7.71305 57.1289 7.01721 55.9111 6.49533L56.607 54.8562L56.9549 54.5083Z" fill="#565F64"/>
<path d="M53.9975 9.2787V11.5402L50.1704 49.9853C50.1704 50.5072 50.3444 51.0291 50.8662 51.377L53.1277 53.1166L54.6934 10.6704L54.8673 7.36514C54.3454 7.71306 54.1715 8.4089 53.9975 9.2787Z" fill="#A4AAAE" fill-opacity="0.6"/>
<path d="M51.91 53.8124L49.8225 52.0728L14.5086 77.645C14.5086 77.645 13.4649 78.3408 13.2909 79.0366L14.5086 78.3408L51.5621 55.0302C52.2579 54.6822 52.4319 54.3343 51.91 53.8124Z" fill="#A4AAAE" fill-opacity="0.6"/>
<path d="M55.5632 57.1177C55.5632 56.9437 55.3892 56.7698 55.2153 56.9437L13.1169 80.7763C14.1607 81.4721 15.2045 81.646 16.5961 81.1242L55.9111 65.2938L55.5632 57.1177Z" fill="#565F64"/>
<path d="M56.7809 54.6822C56.7809 54.6822 56.7809 54.8562 56.9548 54.8562H57.1288C57.3028 54.6822 62.3476 52.0728 64.0872 51.0291L63.3914 45.9842L57.9986 9.27868C57.9986 8.58284 57.8246 8.06096 57.4767 7.71304C57.4767 7.71304 60.0861 42.853 60.0861 46.6801C60.0861 51.7249 56.7809 54.6822 56.7809 54.6822Z" fill="url(#paint5_linear_1_147)"/>
<path d="M55.5632 57.1177C55.5632 56.9437 55.3892 56.7698 55.2153 56.9437L13.1169 80.7763C14.1607 81.4721 15.2045 81.646 16.5961 81.1242L55.9111 65.2938L55.5632 57.1177Z" fill="url(#paint6_linear_1_147)"/>
<path d="M16.5962 80.9502L55.9111 65.1198L55.5632 57.4656C54.8674 59.5531 53.6497 61.8146 50.3444 63.5542C47.909 64.9459 24.5983 76.4272 16.2483 80.4283C15.7264 80.7762 15.0305 80.9502 14.6826 81.1242C15.3785 81.4721 15.9003 81.2981 16.5962 80.9502Z" fill="url(#paint7_linear_1_147)"/>
<path d="M56.9549 54.5083L56.7809 54.6823C56.7809 54.6823 56.7809 55.0302 57.1289 54.8562C57.3028 54.6823 62.3477 52.0728 64.0873 51.0291L57.9987 9.27869C57.8247 7.71305 57.1289 7.01721 55.9111 6.49533L56.607 54.8562L56.9549 54.5083Z" fill="url(#paint8_linear_1_147)"/>
<path d="M56.9549 54.5083L56.7809 54.6823C56.7809 54.6823 56.7809 55.0302 57.1289 54.8562C57.3028 54.6823 62.3477 52.0728 64.0873 51.0291L57.9987 9.27869C57.8247 7.71305 57.1289 7.01721 55.9111 6.49533L56.607 54.8562L56.9549 54.5083Z" fill="url(#paint9_linear_1_147)"/>
<path d="M9.28986 77.297C8.07214 74.5137 1.11374 60.9448 8.76798 34.8508H5.81066C4.24502 40.0696 3.0273 43.2009 2.33146 47.8978C2.33146 47.8978 1.98354 49.6374 1.80958 51.551C1.63562 53.4645 1.63562 54.5083 1.63562 55.726C1.63562 66.1636 4.24502 72.2522 4.24502 72.2522C7.02838 80.9502 11.8993 88.7784 18.5097 94.693C24.2504 99.7379 33.1224 103.565 40.4287 104.957C39.211 104.783 18.3358 95.9108 9.28986 77.297Z" fill="url(#paint10_linear_1_147)"/>
<path d="M56.7809 56.7698H55.2152C55.3892 56.7698 55.5631 56.7698 55.5631 56.9437L55.911 64.9459H56.085L56.4329 56.9437C56.4329 56.7698 56.6069 56.5958 56.7809 56.7698Z" fill="url(#paint11_linear_1_147)"/>
<path d="M73.4811 4.05988C91.7469 11.0183 108.969 30.1539 108.969 54.3343C108.969 83.5596 85.6583 107.392 56.0851 107.392V110.175C85.6583 110.175 110.535 85.8211 110.535 55.726C110.535 31.7195 95.2261 11.5402 73.4811 4.05988Z" fill="url(#paint12_linear_1_147)"/>
<path d="M102.706 35.1987C90.5291 7.19117 63.0434 5.62553 61.4778 5.45157H61.3038C82.353 9.27869 95.7479 23.0215 100.445 37.4602V37.6342C102.532 43.2009 103.576 49.1155 103.75 55.552C103.924 61.6406 102.532 68.4251 99.923 74.6877C99.749 75.5575 99.575 76.6012 99.4011 76.6012H102.184C110.535 60.9448 106.881 45.1145 102.706 35.1987Z" fill="url(#paint13_linear_1_147)"/>
<path d="M4.245 55.9C4.245 27.3705 27.3817 3.88593 56.0851 3.88593C84.7885 3.88593 107.925 27.1966 107.925 55.9C107.925 84.4294 84.7885 107.566 56.0851 107.566C27.3817 107.566 4.245 84.4294 4.245 55.9ZM20.4233 20.0642C11.2034 29.2841 5.46272 41.9832 5.46272 55.9C5.46272 69.8168 11.2034 82.5158 20.2493 91.5618C29.4692 100.608 42.1683 106.348 56.0851 106.348C70.0019 106.348 82.701 100.782 91.7469 91.5618C100.967 82.5158 106.533 69.8168 106.533 55.9C106.533 41.9832 100.793 29.2841 91.7469 20.0642C82.701 10.8443 70.0019 5.10365 56.0851 5.10365C42.1683 5.10365 29.4692 10.8443 20.4233 20.0642Z" fill="#FBFBFB"/>
<path d="M14.1606 77.9929L49.6485 52.4208C51.562 53.4645 54.6933 54.8562 55.0412 54.8562C55.3892 55.0302 55.3892 54.6822 55.3892 54.6822L51.0402 51.0291C50.5183 50.6812 50.3443 50.1593 50.3443 49.6374L54.5194 7.71304C54.3454 7.887 54.3454 8.23492 54.1714 8.40888C53.9975 8.7568 53.9975 8.93076 53.9975 9.27868L47.9089 51.203L14.5086 77.471C14.3346 77.645 14.1606 77.8189 14.1606 77.9929Z" fill="#333F47"/>
<path fill-rule="evenodd" clip-rule="evenodd" d="M320.06 40.31H355.71C356.29 40.31 356.77 39.83 356.77 39.25V30.35C356.77 29.77 356.29 29.29 355.71 29.29H338.19C337.61 29.29 337.13 29.77 337.13 30.35V31.96C337.13 32.54 337.61 33.02 338.19 33.02H349.7C349.89 33.02 350.05 33.18 350.05 33.37V35.09C350.05 35.28 349.89 35.44 349.7 35.44H326.79C326.21 35.44 325.73 34.96 325.73 34.38V27.78C325.73 27.2 326.21 26.72 326.79 26.72H355.72C356.3 26.72 356.78 26.24 356.78 25.66V23.24C356.78 22.66 356.3 22.18 355.72 22.18H320.07C319.49 22.18 319.01 22.66 319.01 23.24V39.24C319 39.83 319.48 40.31 320.06 40.31ZM310.08 40.31H314.68C315.26 40.31 315.74 39.83 315.74 39.25V23.25C315.74 22.67 315.26 22.19 314.68 22.19H309.51C309.3 22.19 309.11 22.24 308.93 22.36L296.32 30.59C295.96 30.82 295.52 30.82 295.16 30.59L282.55 22.36C282.37 22.24 282.19 22.19 281.97 22.19H276.8C276.22 22.19 275.74 22.67 275.74 23.25V39.25C275.74 39.83 276.22 40.31 276.8 40.31H281.4C281.98 40.31 282.46 39.83 282.46 39.25V29.61C282.46 29.43 282.55 29.27 282.71 29.18C282.87 29.09 283.06 29.1 283.21 29.19L292.97 35.31C293.15 35.42 293.32 35.47 293.53 35.47H297.91C298.12 35.47 298.3 35.42 298.47 35.31L308.23 29.19C308.39 29.09 308.57 29.09 308.73 29.18C308.89 29.27 308.99 29.43 308.99 29.61V39.25C309.02 39.83 309.5 40.31 310.08 40.31ZM271.43 40.31H266.83C266.25 40.31 265.77 39.83 265.77 39.25V36.43C265.77 36.24 265.61 36.08 265.42 36.08H241.23C240.89 36.08 240.6 36.22 240.39 36.49L237.86 39.76C237.58 40.12 237.19 40.31 236.74 40.31H230.42C230.23 40.31 230.06 40.21 229.98 40.03C229.89 39.86 229.91 39.66 230.03 39.51L243.1 22.6C243.31 22.33 243.6 22.19 243.94 22.19H271.43C272.01 22.19 272.49 22.67 272.49 23.25V39.25C272.49 39.83 272.02 40.31 271.43 40.31ZM265.77 31.06V27.09C265.77 26.9 265.61 26.74 265.42 26.74H248.28C248.05 26.74 247.86 26.84 247.72 27.01L244.67 30.96C244.6 31.05 244.59 31.16 244.64 31.26C244.69 31.36 244.78 31.42 244.89 31.42H265.42C265.61 31.41 265.77 31.25 265.77 31.06ZM186.38 40.31H171.21C171.02 40.31 170.85 40.21 170.77 40.03C170.68 39.86 170.7 39.66 170.82 39.51L183.89 22.6C184.1 22.33 184.39 22.19 184.73 22.19H199.75C199.97 22.19 200.16 22.31 200.26 22.51C200.36 22.71 200.33 22.93 200.2 23.11L187.22 39.9C187.01 40.17 186.72 40.31 186.38 40.31ZM197.41 40.31H190.23C190.04 40.31 189.87 40.21 189.79 40.03C189.7 39.86 189.72 39.66 189.84 39.51L202.91 22.6C203.12 22.33 203.41 22.19 203.75 22.19H210.79C211.01 22.19 211.2 22.31 211.3 22.51C211.4 22.71 211.37 22.93 211.24 23.11L198.26 39.9C198.04 40.17 197.75 40.31 197.41 40.31ZM207.3 40.31H201.75C201.56 40.31 201.39 40.21 201.31 40.03C201.22 39.86 201.24 39.66 201.36 39.51L214.43 22.6C214.64 22.33 214.93 22.19 215.27 22.19H220.67C220.89 22.19 221.08 22.31 221.18 22.51C221.28 22.71 221.26 22.93 221.12 23.11L208.14 39.9C207.93 40.17 207.64 40.31 207.3 40.31ZM216.23 40.31H212.36C212.17 40.31 212 40.21 211.92 40.03C211.83 39.86 211.85 39.66 211.97 39.51L225.04 22.6C225.25 22.33 225.54 22.19 225.88 22.19H229.61C229.83 22.19 230.02 22.31 230.12 22.51C230.22 22.71 230.19 22.93 230.06 23.11L217.08 39.9C216.86 40.17 216.57 40.31 216.23 40.31ZM224.79 40.31H221.94C221.75 40.31 221.58 40.21 221.5 40.03C221.41 39.86 221.43 39.66 221.55 39.51L234.62 22.6C234.83 22.33 235.12 22.19 235.46 22.19H238.16C238.38 22.19 238.57 22.31 238.67 22.51C238.77 22.71 238.74 22.93 238.61 23.11L225.63 39.9C225.42 40.17 225.13 40.31 224.79 40.31Z" fill="white"/>
<path d="M158.72 50.31C157.69 49.67 155.67 49.37 152.55 49.37H138.98V67.62H141.87V60.62H152.55C155.68 60.62 157.7 60.32 158.72 59.69C159.77 59.05 160.3 57.86 160.3 56.17V53.84C160.31 52.15 159.78 50.96 158.72 50.31ZM157.25 54.53V55.38C157.25 56.51 157 57.25 156.52 57.57C156 57.92 154.9 58.1 153.24 58.1H141.88V51.81H153.24C154.9 51.81 156.01 51.99 156.52 52.34C157 52.67 157.25 53.41 157.25 54.53Z" fill="#00A19B"/>
<path d="M169.14 51.86H185.67V49.37H166.3V67.62H185.67V65.13H169.14V59.4H184.98V56.91H169.14V51.86Z" fill="#00A19B"/>
<path d="M189.85 51.86H199.34V67.62H202.23V51.86H211.71V49.37H189.85V51.86Z" fill="#00A19B"/>
<path d="M237.21 50.3C236.17 49.67 234.15 49.36 231.02 49.36H217.09V67.61H219.98V60.65H231.34C233.75 60.65 234.66 60.96 235 61.23C235.48 61.6 235.72 62.33 235.72 63.4V67.61H238.61V62.96C238.61 61.87 238.32 60.99 237.74 60.36C237.38 59.97 236.91 59.67 236.34 59.48C237.08 59.24 237.63 58.93 238 58.55C238.54 57.99 238.81 57.12 238.81 55.96V53.84C238.82 52.14 238.28 50.95 237.21 50.3ZM235.8 54.53V55.38C235.8 56.48 235.55 57.22 235.07 57.56C234.55 57.92 233.45 58.1 231.8 58.1H219.99V51.81H231.8C233.45 51.81 234.55 51.99 235.07 52.36C235.55 52.71 235.8 53.44 235.8 54.53Z" fill="#00A19B"/>
<path d="M267.6 50.44C266.96 49.97 266.12 49.64 265.08 49.44C264.07 49.25 262.53 49.15 260.51 49.15H254.11C252.09 49.15 250.55 49.25 249.54 49.44C248.51 49.64 247.66 49.97 247.02 50.44C246.3 50.97 245.78 51.7 245.46 52.62C245.15 53.52 245 54.73 245 56.23V61.07C245 62.44 245.16 63.57 245.47 64.42C245.79 65.29 246.32 66 247.05 66.54C247.7 67.01 248.54 67.35 249.55 67.54C250.54 67.73 252.09 67.82 254.14 67.82H260.51C262.58 67.82 264.13 67.72 265.12 67.54C266.13 67.35 266.96 67.01 267.6 66.54C268.3 66.03 268.82 65.31 269.14 64.41C269.46 63.53 269.62 62.37 269.62 60.96V56.02C269.62 54.62 269.46 53.47 269.14 52.58C268.82 51.67 268.3 50.95 267.6 50.44ZM261.64 65.27H252.98C251.77 65.27 250.84 65.17 250.19 64.98C249.57 64.8 249.09 64.49 248.75 64.07C248.5 63.77 248.32 63.4 248.22 62.99C248.11 62.55 248.06 61.8 248.06 60.77V56.11C248.06 55.08 248.11 54.33 248.22 53.89C248.32 53.47 248.5 53.11 248.75 52.81C249.09 52.39 249.58 52.09 250.19 51.91C250.83 51.72 251.77 51.62 252.98 51.62H261.64C262.85 51.62 263.78 51.72 264.42 51.91C265.03 52.09 265.52 52.4 265.86 52.81C266.09 53.1 266.26 53.45 266.36 53.84C266.47 54.26 266.52 54.93 266.52 55.84V61.05C266.52 61.95 266.47 62.62 266.36 63.04C266.26 63.44 266.09 63.79 265.86 64.08C265.52 64.5 265.03 64.8 264.42 64.99C263.78 65.17 262.85 65.27 261.64 65.27Z" fill="#00A19B"/>
<path d="M300.2 49.37H297.32V64.76L280.36 49.37H276.26V67.62H279.16V51.99L296.37 67.62H300.2V49.37Z" fill="#00A19B"/>
<path d="M316.13 49.37L304.69 67.62H308.01L310.45 63.71H325.4L327.91 67.62H331.04L319.57 49.37H316.13ZM311.94 61.33L317.88 51.87L323.92 61.33H311.94Z" fill="#00A19B"/>
<path d="M356.75 59.37C356.45 58.68 355.94 58.13 355.23 57.75C354.75 57.48 354.11 57.29 353.32 57.17C352.55 57.06 351.4 57 349.89 57H343.01C340.94 57 339.58 56.8 338.95 56.4C338.35 56.02 338.06 55.32 338.06 54.26C338.06 53.22 338.36 52.53 338.97 52.16C339.62 51.77 340.93 51.57 342.86 51.57H349.39C351.28 51.57 352.53 51.76 353.09 52.14C353.62 52.5 353.88 53.22 353.88 54.29V54.82H356.68V54.05C356.68 53.16 356.57 52.41 356.35 51.82C356.13 51.21 355.77 50.71 355.29 50.33C354.72 49.89 353.93 49.58 352.94 49.41C351.98 49.24 350.28 49.16 347.9 49.16H343.55C340.33 49.16 338.17 49.53 336.94 50.3C335.69 51.08 335.05 52.45 335.05 54.36C335.05 56.23 335.61 57.57 336.71 58.35C337.8 59.12 339.61 59.5 342.24 59.5H350.33C351.97 59.5 353.06 59.69 353.56 60.07C354.04 60.43 354.28 61.14 354.28 62.17C354.28 63.43 353.93 64.25 353.22 64.68C352.47 65.13 350.81 65.36 348.27 65.36H343.27C341.16 65.36 339.72 65.15 338.97 64.74C338.26 64.35 337.92 63.66 337.92 62.64C337.92 62.52 337.93 62.29 337.95 61.95L338 61.33H335.21L335.17 61.54C335.16 61.6 335.15 61.68 335.15 61.78C335.12 62.32 335.11 62.7 335.11 62.92C335.11 64.67 335.7 65.95 336.87 66.71C338.02 67.46 339.86 67.83 342.51 67.83H349.01C352.07 67.83 354.15 67.43 355.35 66.62C356.56 65.79 357.18 64.34 357.18 62.29C357.19 61.03 357.04 60.05 356.75 59.37Z" fill="#00A19B"/>
<path d="M176.75 82.73V83.72H171.34V90.09H170.21V76.82H177.15V77.81H171.34V82.72H176.75V82.73Z" fill="white"/>
<path d="M190.75 83.44C190.75 87.48 188.6 90.3 185.56 90.3C182.44 90.3 180.33 87.49 180.33 83.36C180.33 79.42 182.52 76.6 185.54 76.6C188.6 76.6 190.75 79.43 190.75 83.44ZM181.55 83.38C181.55 86.86 183.18 89.29 185.53 89.29C187.86 89.29 189.51 86.86 189.51 83.44C189.51 80.04 187.86 77.61 185.53 77.61C183.23 77.61 181.55 80.04 181.55 83.38Z" fill="white"/>
<path d="M196.93 76.82C198.98 76.82 199.58 76.88 200.45 77.18C201.82 77.62 202.68 78.87 202.68 80.46C202.68 82.21 201.73 83.4 199.82 84.04L203.46 90.09H202.07L198.51 84.2H196.04V90.09H194.91V76.82H196.93ZM196.97 83.2C198.72 83.2 199.16 83.16 199.83 82.92C200.86 82.56 201.44 81.67 201.44 80.43C201.44 79.3 200.92 78.46 200.05 78.1C199.41 77.86 198.88 77.8 196.99 77.8H196.04V83.19H196.97V83.2Z" fill="white"/>
<path d="M209 76.82L213 88.82L217 76.82H218.83V90.09H217.7V77.86L213.58 90.09H212.45L208.31 77.86V90.09H207.18V76.82H209Z" fill="white"/>
<path d="M224.55 76.82V84.7C224.57 87.09 224.61 87.45 225.05 88.06C225.57 88.84 226.64 89.29 227.91 89.29C229.34 89.29 230.48 88.73 230.95 87.8C231.25 87.22 231.27 86.89 231.29 84.7V76.82H232.42V84.72C232.42 86.89 232.4 87.15 232.16 87.82C231.6 89.39 230.03 90.31 227.9 90.31C225.99 90.31 224.54 89.57 223.86 88.28C223.52 87.62 223.4 86.97 223.4 85.69V76.82H224.55Z" fill="white"/>
<path d="M238.17 76.82V89.09H243.82V90.08H237V76.81H238.17V76.82Z" fill="white"/>
<path d="M252.25 76.72L256.85 90.09H255.66L254.37 86.33H249.28L247.97 90.09H246.8L251.4 76.72H252.25ZM251.81 78.33L249.58 85.33H254.02L251.81 78.33Z" fill="white"/>
<path d="M276.43 83.44C276.43 87.48 274.28 90.3 271.24 90.3C268.12 90.3 266.01 87.49 266.01 83.36C266.01 79.42 268.2 76.6 271.22 76.6C274.28 76.6 276.43 79.43 276.43 83.44ZM267.24 83.38C267.24 86.86 268.87 89.29 271.22 89.29C273.55 89.29 275.2 86.86 275.2 83.44C275.2 80.04 273.55 77.61 271.22 77.61C268.91 77.61 267.24 80.04 267.24 83.38Z" fill="white"/>
<path d="M281.83 76.82L288.51 88.44V76.82H289.56V90.09H288.25L281.65 78.51V90.09H280.58V76.82H281.83Z" fill="white"/>
<path d="M300.88 82.73V83.72H295.47V89.09H301.36V90.08H294.34V76.81H301.28V77.8H295.47V82.71H300.88V82.73Z" fill="white"/>
<path d="M318.36 76.82V77.81H314.94V90.08H313.81V77.81H310.37V76.82H318.36Z" fill="white"/>
<path d="M328.42 82.73V83.72H323.01V89.09H328.9V90.08H321.88V76.81H328.82V77.8H323.01V82.71H328.42V82.73Z" fill="white"/>
<path d="M337.11 76.72L341.71 90.09H340.52L339.23 86.33H334.14L332.83 90.09H331.66L336.26 76.72H337.11ZM336.67 78.33L334.44 85.33H338.88L336.67 78.33Z" fill="white"/>
<path d="M347.05 76.82L351.05 88.82L355.05 76.82H356.88V90.09H355.75V77.86L351.63 90.09H350.5L346.36 77.86V90.09H345.23V76.82H347.05Z" fill="white"/>
</g>
<defs>
<linearGradient id="paint0_linear_1_147" x1="14.3347" y1="20.76" x2="97.8355" y2="90.692" gradientUnits="userSpaceOnUse">
<stop stop-color="white"/>
<stop offset="0.1" stop-color="#CDD0D0"/>
<stop offset="0.2" stop-color="#A5ACAF"/>
<stop offset="0.3" stop-color="#98A0A4"/>
<stop offset="0.4" stop-color="#828A8F"/>
<stop offset="0.5" stop-color="#667075"/>
<stop offset="0.6" stop-color="#535C63"/>
<stop offset="0.7" stop-color="#475158"/>
<stop offset="0.8" stop-color="#434D54"/>
<stop offset="1" stop-color="#475157"/>
</linearGradient>
<linearGradient id="paint1_linear_1_147" x1="16.944" y1="22.8476" x2="95.226" y2="88.6044" gradientUnits="userSpaceOnUse">
<stop stop-color="#0B1F2A"/>
<stop offset="0.2" stop-color="#333F47"/>
<stop offset="0.5" stop-color="#81898D"/>
<stop offset="0.7" stop-color="#B3B8B8"/>
<stop offset="0.8" stop-color="#DEE0DD"/>
<stop offset="1" stop-color="#FBFBFB"/>
</linearGradient>
<linearGradient id="paint2_linear_1_147" x1="75.1737" y1="108.1" x2="37.0764" y2="3.37622" gradientUnits="userSpaceOnUse">
<stop stop-color="#E1E3E1" stop-opacity="0.4"/>
<stop offset="0.1" stop-color="#C1C5C4" stop-opacity="0.4"/>
<stop offset="0.3" stop-color="#9BA1A2" stop-opacity="0.4"/>
<stop offset="0.5" stop-color="#7D8487" stop-opacity="0.4"/>
<stop offset="0.7" stop-color="#687074" stop-opacity="0"/>
<stop offset="0.8" stop-color="#5B6469" stop-opacity="0"/>
<stop offset="1" stop-color="#576065" stop-opacity="0"/>
</linearGradient>
<linearGradient id="paint3_linear_1_147" x1="32.0786" y1="14.1496" x2="80.0916" y2="97.3024" gradientUnits="userSpaceOnUse">
<stop stop-color="#E1E3E1" stop-opacity="0.4"/>
<stop offset="0.1" stop-color="#C1C5C4" stop-opacity="0.4"/>
<stop offset="0.3" stop-color="#9BA1A2" stop-opacity="0.4"/>
<stop offset="0.5" stop-color="#7D8487" stop-opacity="0.4"/>
<stop offset="0.7" stop-color="#687074" stop-opacity="0"/>
<stop offset="0.8" stop-color="#5B6469" stop-opacity="0"/>
<stop offset="1" stop-color="#576065" stop-opacity="0"/>
</linearGradient>
<linearGradient id="paint4_linear_1_147" x1="77.8301" y1="68.5991" x2="74.8727" y2="73.4699" gradientUnits="userSpaceOnUse">
<stop stop-color="#27343C"/>
<stop offset="1" stop-color="#00111E" stop-opacity="0"/>
</linearGradient>
<linearGradient id="paint5_linear_1_147" x1="69.306" y1="50.6812" x2="64.4351" y2="42.853" gradientUnits="userSpaceOnUse">
<stop stop-color="#02131F"/>
<stop offset="0.1" stop-color="#02131F"/>
<stop offset="0.9" stop-color="#02131F" stop-opacity="0"/>
<stop offset="1" stop-color="#02131F" stop-opacity="0"/>
</linearGradient>
<linearGradient id="paint6_linear_1_147" x1="56.0851" y1="63.3803" x2="48.7787" y2="65.4678" gradientUnits="userSpaceOnUse">
<stop stop-color="#02131F" stop-opacity="0.8"/>
<stop offset="0.2" stop-color="#02131F" stop-opacity="0.8"/>
<stop offset="0.9" stop-color="#02131F" stop-opacity="0"/>
<stop offset="1" stop-color="#02131F" stop-opacity="0"/>
</linearGradient>
<linearGradient id="paint7_linear_1_147" x1="36.6016" y1="72.948" x2="35.5578" y2="70.3386" gradientUnits="userSpaceOnUse">
<stop stop-color="#02131F" stop-opacity="0.8"/>
<stop offset="0.1" stop-color="#02131F" stop-opacity="0.8"/>
<stop offset="1" stop-color="#02131F" stop-opacity="0"/>
</linearGradient>
<linearGradient id="paint8_linear_1_147" x1="62.3477" y1="29.9799" x2="56.433" y2="30.6758" gradientUnits="userSpaceOnUse">
<stop stop-color="#02131F"/>
<stop offset="0.3" stop-color="#02131F"/>
<stop offset="0.8" stop-color="#02131F" stop-opacity="0"/>
<stop offset="1" stop-color="#02131F" stop-opacity="0"/>
</linearGradient>
<linearGradient id="paint9_linear_1_147" x1="62.5216" y1="29.806" x2="58.5205" y2="30.3278" gradientUnits="userSpaceOnUse">
<stop stop-color="#27343C"/>
<stop offset="0.4" stop-color="#27343C"/>
<stop offset="1" stop-color="#3B474E" stop-opacity="0"/>
</linearGradient>
<linearGradient id="paint10_linear_1_147" x1="-0.27794" y1="57.2916" x2="48.2569" y2="85.2992" gradientUnits="userSpaceOnUse">
<stop stop-color="#25323B" stop-opacity="0"/>
<stop offset="0.1" stop-color="#27343C"/>
<stop offset="1" stop-color="#27343C"/>
</linearGradient>
<linearGradient id="paint11_linear_1_147" x1="56.085" y1="65.1199" x2="56.085" y2="56.7698" gradientUnits="userSpaceOnUse">
<stop stop-color="#A5ABAF"/>
<stop offset="0.3" stop-color="#A5ABAF"/>
<stop offset="1" stop-color="#A5ABAF" stop-opacity="0"/>
</linearGradient>
<linearGradient id="paint12_linear_1_147" x1="83.3968" y1="4.05988" x2="83.3968" y2="110.175" gradientUnits="userSpaceOnUse">
<stop stop-color="#6B7378"/>
<stop offset="0.2" stop-color="#333F47"/>
<stop offset="0.5" stop-color="#27343C"/>
<stop offset="0.8" stop-color="#333F47"/>
<stop offset="1" stop-color="#434D54"/>
</linearGradient>
<linearGradient id="paint13_linear_1_147" x1="100.097" y1="14.1496" x2="76.6123" y2="48.5936" gradientUnits="userSpaceOnUse">
<stop stop-color="#27343C"/>
<stop offset="0.7" stop-color="#49545B"/>
<stop offset="0.8" stop-color="white" stop-opacity="0"/>
<stop offset="1" stop-color="white" stop-opacity="0"/>
</linearGradient>
<clipPath id="clip0_1_147">
<rect width="358" height="112" fill="white"/>
</clipPath>
</defs>
</svg>
