<svg width="1050" height="350" viewBox="0 0 1050 350" fill="none" xmlns="http://www.w3.org/2000/svg">
<mask id="mask0_1_89" style="mask-type:luminance" maskUnits="userSpaceOnUse" x="15" y="8" width="1020" height="334">
<path d="M1035 8.6H15V341.4H1035V8.6Z" fill="white"/>
</mask>
<g mask="url(#mask0_1_89)">
<path d="M797.4 174H752.7C751 174 749.6 172.6 749.6 170.9V124.2C749.6 122.5 751 121.1 752.7 121.1H797.4C799.1 121.1 800.5 122.5 800.5 124.2V171C800.5 172.6 799.1 174 797.4 174Z" fill="white"/>
</g>
<mask id="mask1_1_89" style="mask-type:luminance" maskUnits="userSpaceOnUse" x="15" y="8" width="1020" height="334">
<path d="M1035 8.6H15V341.4H1035V8.6Z" fill="white"/>
</mask>
<g mask="url(#mask1_1_89)">
<path d="M141 194L160.7 102.1H136.9L117.2 194H141Z" fill="#1334C9"/>
</g>
<mask id="mask2_1_89" style="mask-type:luminance" maskUnits="userSpaceOnUse" x="15" y="8" width="1020" height="334">
<path d="M1035 8.6H15V341.4H1035V8.6Z" fill="white"/>
</mask>
<g mask="url(#mask2_1_89)">
<path d="M309.2 194L290 102.1H269.7C265.1 102.1 261.3 104.8 259.6 108.8L223.9 194H248.9L253.9 180.3H284.4L287.3 194H309.2ZM260.7 161.5L273.2 127L280.4 161.5H260.7Z" fill="#1334C9"/>
</g>
<mask id="mask3_1_89" style="mask-type:luminance" maskUnits="userSpaceOnUse" x="15" y="8" width="1020" height="334">
<path d="M1035 8.6H15V341.4H1035V8.6Z" fill="white"/>
</mask>
<g mask="url(#mask3_1_89)">
<path d="M191.8 127.6C191.9 124.3 195 120.8 201.9 119.9C205.3 119.5 214.7 119.1 225.3 124L229.5 104.5C223.8 102.4 216.4 100.4 207.3 100.4C183.8 100.4 167.3 112.9 167.1 130.8C166.9 144 178.9 151.4 187.9 155.8C197.2 160.3 200.3 163.2 200.2 167.2C200.1 173.4 192.8 176.1 186 176.2C174.1 176.4 167.1 173 161.6 170.4L157.3 190.5C162.9 193 173.1 195.3 183.7 195.4C208.7 195.4 225 183.1 225.1 164C225.2 139.8 191.6 138.4 191.8 127.6Z" fill="#1334C9"/>
</g>
<mask id="mask4_1_89" style="mask-type:luminance" maskUnits="userSpaceOnUse" x="15" y="8" width="1020" height="334">
<path d="M1035 8.6H15V341.4H1035V8.6Z" fill="white"/>
</mask>
<g mask="url(#mask4_1_89)">
<path d="M101.7 102.1L77 164.7L67 111.5C65.8 105.6 61.2 102.1 56 102.1H15.6L15 104.8C23.3 106.6 32.7 109.5 38.4 112.6C41.9 114.5 42.9 116.2 44 120.7L63 194H88.1L126.6 102.1H101.7Z" fill="#1334C9"/>
</g>
<mask id="mask5_1_89" style="mask-type:luminance" maskUnits="userSpaceOnUse" x="15" y="8" width="1020" height="334">
<path d="M1035 8.6H15V341.4H1035V8.6Z" fill="white"/>
</mask>
<g mask="url(#mask5_1_89)">
<path d="M860.6 154.9C860.1 154.6 859.4 154.7 859 155.3C857.3 157.9 854.3 159.5 851.1 159.4C845.1 159.4 841.4 154.6 841.4 147.8C841.4 141 845.1 136.3 851.1 136.3C854.2 136.2 857.2 137.7 858.9 140.2C859.3 140.7 860 140.8 860.5 140.5L863.3 138.8C863.3 138.8 863.3 138.8 863.4 138.8C863.9 138.4 864.1 137.6 863.7 137.1C860.8 133 856 130.7 851.1 130.8C841.7 130.8 835.2 137.6 835.2 147.8C835.2 157.9 841.7 164.9 851.2 164.9C856.3 165 861.1 162.6 863.9 158.3C863.9 158.3 863.9 158.2 864 158.2C864.3 157.6 864.1 156.9 863.6 156.6L860.6 154.9Z" fill="white"/>
</g>
<mask id="mask6_1_89" style="mask-type:luminance" maskUnits="userSpaceOnUse" x="15" y="8" width="1020" height="334">
<path d="M1035 8.6H15V341.4H1035V8.6Z" fill="white"/>
</mask>
<g mask="url(#mask6_1_89)">
<path d="M877.3 139.4C874.1 139.4 871 140.2 868.1 141.7C867.5 142 867.3 142.7 867.6 143.3L868.6 145.4C868.9 146 869.6 146.2 870.2 145.9C872.2 144.9 874.4 144.3 876.7 144.2C878.7 144.2 881 144.7 881 146.8C881 149.1 878 149.3 874.5 149.8C871.2 150.3 865.9 151.3 865.9 157.2C865.9 162 869.3 164.7 874.3 164.7C877.7 164.7 879.7 163.5 881.2 161.6V163C881.2 163.7 881.7 164.2 882.4 164.2H885.5C886.2 164.2 886.7 163.7 886.7 163V147.4C887 141.7 883 139.4 877.3 139.4ZM881.2 155C881.2 158.6 878.6 160.2 875.8 160.2C873.6 160.2 872 159.2 872 157C872 154.7 873.8 154.1 875.9 153.7C878.1 153.3 880.1 153 881.2 152.2V155Z" fill="white"/>
</g>
<mask id="mask7_1_89" style="mask-type:luminance" maskUnits="userSpaceOnUse" x="15" y="8" width="1020" height="334">
<path d="M1035 8.6H15V341.4H1035V8.6Z" fill="white"/>
</mask>
<g mask="url(#mask7_1_89)">
<path d="M901.5 149.1C898.8 148.6 896.1 148.3 896.1 146.3C896.1 144.6 898 143.9 900.2 143.9C902.5 143.9 904.7 144.6 906.5 145.9C907 146.3 907.7 146.2 908.1 145.7L909.6 143.9C909.6 143.9 909.6 143.9 909.7 143.8C910.1 143.3 910 142.5 909.5 142.1C906.9 140.1 903.7 139.1 900.4 139.1C895.2 139.1 890.6 141.3 890.6 146.7C890.6 151.8 894.9 153.3 899.4 154.1C903.6 154.8 905.4 155.2 905.4 157C905.4 159 903.5 159.9 900.9 159.9C898.4 160 896 159.2 894 157.7C893.5 157.3 892.8 157.4 892.3 157.9L890.7 159.8C890.3 160.3 890.4 161.1 890.9 161.5C893.7 163.7 897.1 164.8 900.6 164.7C907 164.7 911.1 161.6 911.1 156.5C910.9 151.8 907.2 150.2 901.5 149.1Z" fill="white"/>
</g>
<mask id="mask8_1_89" style="mask-type:luminance" maskUnits="userSpaceOnUse" x="15" y="8" width="1020" height="334">
<path d="M1035 8.6H15V341.4H1035V8.6Z" fill="white"/>
</mask>
<g mask="url(#mask8_1_89)">
<path d="M927.7 139.4C924.8 139.3 922 140.7 920.3 143V132.6C920.3 131.9 919.8 131.4 919.1 131.4H915.7C915 131.4 914.5 131.9 914.5 132.6V163C914.5 163.7 915 164.2 915.7 164.2H919.1C919.8 164.2 920.3 163.7 920.3 163V150.5C920.3 146.8 922.7 144.6 925.8 144.6C929.1 144.6 929.9 146.9 929.9 149.5V163C929.9 163.7 930.4 164.2 931.1 164.2H934.5C935.2 164.2 935.7 163.7 935.7 163V148.2C935.7 143 932.8 139.4 927.7 139.4Z" fill="white"/>
</g>
<mask id="mask9_1_89" style="mask-type:luminance" maskUnits="userSpaceOnUse" x="15" y="8" width="1020" height="334">
<path d="M1035 8.6H15V341.4H1035V8.6Z" fill="white"/>
</mask>
<g mask="url(#mask9_1_89)">
<path d="M967.8 131.4H962.2C961.7 131.4 961.3 131.7 961.1 132.1L949.8 162.5C949.7 162.6 949.7 162.8 949.7 162.9C949.7 163.6 950.2 164.1 950.9 164.1H954.9C955.4 164.1 955.9 163.8 956 163.3L958.5 156H971L973.5 163.3C973.7 163.8 974.1 164.1 974.6 164.1H978.9C979 164.1 979.2 164.1 979.3 164C979.9 163.8 980.2 163.1 980 162.5L968.8 132.1C968.8 131.7 968.3 131.4 967.8 131.4ZM960.2 151L965 136.7L969.6 151H960.2Z" fill="white"/>
</g>
<mask id="mask10_1_89" style="mask-type:luminance" maskUnits="userSpaceOnUse" x="15" y="8" width="1020" height="334">
<path d="M1035 8.6H15V341.4H1035V8.6Z" fill="white"/>
</mask>
<g mask="url(#mask10_1_89)">
<path d="M996.3 139.4C993.4 139.3 990.5 140.6 988.8 143V141.1V141C988.8 140.3 988.2 139.8 987.6 139.8H984.2C983.5 139.8 983 140.3 983 141V171C983 171.7 983.5 172.2 984.2 172.2H987.6C988.3 172.2 988.8 171.7 988.8 171V161.1C990.5 163.5 993.3 164.9 996.3 164.8C1002.9 164.8 1007.2 159.3 1007.2 152.1C1007.2 144.9 1002.9 139.4 996.3 139.4ZM995.1 159.7C991 159.7 988.9 156.3 988.9 152.1C988.9 147.9 991.1 144.6 995.1 144.6C999.1 144.6 1001.1 148 1001.1 152.1C1001.1 156.2 999.1 159.7 995.1 159.7Z" fill="white"/>
</g>
<mask id="mask11_1_89" style="mask-type:luminance" maskUnits="userSpaceOnUse" x="15" y="8" width="1020" height="334">
<path d="M1035 8.6H15V341.4H1035V8.6Z" fill="white"/>
</mask>
<g mask="url(#mask11_1_89)">
<path d="M1035 152C1035 144.8 1030.7 139.4 1024.1 139.4C1021.2 139.3 1018.4 140.6 1016.6 143V141.1C1016.6 140.4 1016.1 139.9 1015.4 139.9H1012C1011.3 139.9 1010.8 140.4 1010.8 141.1V171C1010.8 171.7 1011.3 172.2 1012 172.2H1015.4C1016.1 172.2 1016.6 171.7 1016.6 171V161.1C1018.3 163.5 1021.1 164.9 1024.1 164.8C1030.7 164.7 1035 159.2 1035 152ZM1022.9 159.7C1018.8 159.7 1016.6 156.3 1016.6 152.1C1016.6 147.9 1018.8 144.6 1022.9 144.6C1026.9 144.6 1028.9 148 1028.9 152.1C1028.9 156.2 1026.9 159.7 1022.9 159.7Z" fill="white"/>
</g>
<mask id="mask12_1_89" style="mask-type:luminance" maskUnits="userSpaceOnUse" x="15" y="8" width="1020" height="334">
<path d="M1035 8.6H15V341.4H1035V8.6Z" fill="white"/>
</mask>
<g mask="url(#mask12_1_89)">
<path d="M798.9 116.8C795.4 115.7 792.2 115.7 785.7 115.7H766.1C759.6 115.7 756.4 115.7 752.9 116.8C749.1 118.2 746.1 121.2 744.7 125C743.6 128.5 743.6 131.7 743.6 138.2V157.8C743.6 164.3 743.6 167.5 744.7 171C746.1 174.8 749.1 177.8 752.9 179.2C756.4 180.3 759.6 180.3 766.1 180.3H785.7C792.2 180.3 795.4 180.3 798.9 179.2C802.7 177.8 805.7 174.8 807.1 171C808.2 167.5 808.2 164.3 808.2 157.8V138.3C808.2 131.8 808.2 128.6 807.1 125.1C805.8 121.2 802.7 118.2 798.9 116.8ZM790.5 137.5L788 140C787.5 140.5 786.7 140.5 786.2 140C783.8 137.9 780.7 136.8 777.5 136.8C774.9 136.8 772.3 137.7 772.3 140.1C772.3 142.5 775.1 143.3 778.3 144.5C784 146.4 788.6 148.8 788.6 154.3C788.6 160.3 783.9 164.5 776.2 164.9L775.5 168.1C775.4 168.7 774.8 169.1 774.2 169.1H769.4C769.3 169.1 769.2 169.1 769.2 169.1C768.5 169 768 168.2 768.2 167.5L768.9 164.1C766 163.4 763.3 161.9 761.2 159.9C760.7 159.4 760.7 158.6 761.2 158.1L763.9 155.5C764.4 155 765.2 155 765.7 155.5C768.2 157.8 771.4 159.1 774.8 159.1C778.3 159.1 780.7 157.6 780.7 155.3C780.7 153 778.3 152.3 773.8 150.7C769.1 149 764.6 146.6 764.6 141C764.6 134.5 770 131.3 776.4 131L777.1 127.7C777.2 127.1 777.8 126.7 778.4 126.7H783.2C783.3 126.7 783.4 126.7 783.5 126.7C784.2 126.8 784.7 127.5 784.5 128.2L783.8 131.9C786.2 132.7 788.5 134 790.5 135.6C790.5 135.6 790.6 135.6 790.6 135.7C791 136.2 791 137 790.5 137.5Z" fill="#48AD47"/>
</g>
<mask id="mask13_1_89" style="mask-type:luminance" maskUnits="userSpaceOnUse" x="15" y="8" width="1020" height="334">
<path d="M1035 8.6H15V341.4H1035V8.6Z" fill="white"/>
</mask>
<g mask="url(#mask13_1_89)">
<path d="M404 184.2C403.2 184.7 402.4 185.1 401.6 185.6V164.1C403.3 162.4 404.8 160.6 406.2 158.8C413.3 149.3 412.5 134.5 404.6 125.8C403.7 124.8 402.7 123.9 401.6 123V8.6H471.7C503.6 8.6 529.5 34 529.5 65.3C529.5 92 510.8 114.3 485.5 120.4L499.6 140.4C499.3 140.7 499 140.9 498.8 141.2C486.9 141.3 477.5 144.7 468.5 152L468.2 152.2L468 152.4C466.8 153.5 465.7 154.5 464.5 155.5L453 137.7V91.8H462.5C477.6 91.8 489.8 80.6 489.8 66.7C489.8 52.8 478.4 41.6 463.3 41.6H442.5V163.6C440.7 163.9 439 164.2 436.2 164.9C426.6 167.1 417.9 173.9 410.9 179.3C407.1 182.3 406 183 405.7 183.2C405.1 183.5 404.5 183.9 404 184.2ZM555.2 110.5L555.6 110.3L556.1 110.1C561 108 566.7 106.9 572.6 106.9C576.9 106.9 581.2 107.6 584.9 108.8V41.6H610.5C621.7 41.6 630.8 51.9 630.8 63.1C630.8 74.3 621.7 83.4 610.5 83.4H597.2V114.5C598.2 115.2 599.3 115.9 600.6 116.8L601 117.1L602 117.9H621.7C635.3 117.9 645.6 128.9 645.6 142.5C645.4 147.2 644.3 151.4 642.4 155C648.1 161.9 655.2 171.1 659.4 177.9L659.6 178.2C661.4 181.3 663.1 185.4 664.2 189.1C678.3 179 687.4 163.2 687.4 145.5C687.4 123.6 679.7 108.1 653.9 96.1C664.4 86.3 670.8 73.2 670.8 58.8C670.8 45.7 665.8 33.7 657 24.3C647.9 14.2 631.7 8.6 609.8 8.6H544V117.3C545.1 116.6 546.3 115.9 547.5 115.1C549.9 113.6 552.4 111.9 555.2 110.5ZM533.2 272.4C534.3 274.8 535.3 277 536.4 277.3C536.9 277.4 537.4 277.5 538 277.5C540.5 277.5 544.1 276.1 546.6 274.1C548 272.9 547.6 272.1 546.9 271C546.7 270.7 546.5 270.3 546.2 269.8C545.5 268.5 545.1 267.1 544.8 265.9C544.1 263.4 543.5 261.3 540.9 261.7C537.1 262.2 533.5 262.5 529.4 262.5C529.3 262.5 528.1 262.5 527.7 263.4C527.2 264.4 528.3 265.4 529.4 266.4C530 267 530.7 267.6 531.1 268.2C531.7 269.3 532.5 270.9 533.2 272.4ZM344.2 280.7C344.1 280.7 343.9 280.7 343.8 280.8C341.6 281.7 339.1 284.5 339 286.2C338.5 293.5 338.2 294.3 336.3 296.5C335.7 297.1 335.4 298.6 336 299.2C336.6 299.8 343.7 302 344.5 302H344.7C345.3 301.8 345.9 300.2 347.3 295.1C348.1 292.4 349 289.3 350 286.5C350.1 286.3 350.1 286.1 349.4 285.1C348.6 283.9 345.8 280.7 344.2 280.7ZM690.2 270.4C690.1 271.1 689.6 271.6 688.8 271.7C687.9 271.9 687 272 686 272C678.7 272 671 266.2 668 260.8C664 253.5 660.7 249.2 654.8 247.1C655.4 248.3 656.1 249.4 656.9 250.5C657.4 251.1 657.8 251.8 658.2 252.4C660.1 255.6 662.8 260.3 664.2 265C665.5 269.4 670.2 272.7 674.5 275.4L679.9 278.3C681 278.8 681.6 279.6 681.5 280.3C681.4 280.9 681.2 281.4 680.2 281.7L679.2 281.8C678.8 281.8 678.5 281.8 678.1 281.8C668.4 281.8 660.6 278.5 654.3 271.7C652.4 269.6 650.5 268.5 648.6 268.5C644.3 272.3 639.9 276.1 634 276.5C626.7 275.3 620.6 275.7 616 277.7C615.2 278 614.5 278.2 613.7 278.5C609.5 280 605.2 281.6 600.4 281.8C597.8 281.8 594.5 280.5 593.6 277.9C593.3 276.8 593.4 275.8 593 274.5C592.4 272.2 591.9 269.8 593.2 267.6L596.8 262.2C596.8 261.7 596.4 261.3 595.9 261.2C595.4 261.1 594.8 261.4 594.2 261.6C593.6 261.8 593.1 262.1 592.6 262.1C591 262 591.1 260.5 591.1 260.5C591.3 256.3 594.7 253 597.9 250.1C598.8 249.3 599.7 248.5 600.5 247.6C601.4 243 603.2 239.2 606.1 235.9C606 235.6 605.8 235.3 605.4 235.1C604.3 235.3 603.2 235.5 602.1 235.7C598.6 236.4 595 237 591.2 237C586.2 239.6 579.3 240.4 577.4 239.1C577.4 239.1 576.6 238.5 576.5 237.8C576.4 237.1 576.6 236.3 576.8 235.9C581.7 229.1 583.6 220.5 582.2 212.3C582.1 211.6 581.8 211.4 581.4 211.4C580.8 211.4 580.6 212.1 580.5 212.5C579 221.1 576.6 227.4 572.7 233.4C571.4 235.4 567.8 236.2 564.3 236.9C562.8 237.2 561.5 237.4 560 238C559.2 238.3 558.1 239.1 558.1 240.3C558 242.8 559.3 245 560.6 247L560.8 247.2C561.1 247.8 569.4 261.4 569.7 264.2C570 266.6 568.9 274 567.9 277.1C567.6 278.2 568.1 278.3 568.2 278.3C568.4 278.3 568.7 278.2 569.1 277.9C570.5 276.9 575.4 269.4 575.8 267.1C576.2 264.8 575.5 263.3 574.8 261.8L565 242.4L565.1 242.2C565.6 241.2 566.9 240.6 568.7 240.5H568.9C570.5 240.5 571.9 241 573.2 241.6C573.8 241.8 574.5 242.1 575.1 242.3H575.3L575.4 242.5C577.6 248.4 578.6 250.7 584 259.4C585.8 262.3 585.8 266 584 269.7C582 273.9 579.6 277.9 576.9 281.8C574.7 284.1 571.7 284.3 568.8 284.5C568.2 284.5 567.5 284.6 566.9 284.7H564.1C555.6 289.2 546.7 292.2 537.5 295.1C536.2 295.5 534.9 295.7 533.5 295.7C530.3 295.7 527.3 294.6 525.2 292.8C522.9 291 521.5 288.5 520.2 286.1C519.7 285.1 519.1 284.1 518.5 283.2C517.8 282.3 516.6 281.9 514.9 281.9C514.3 281.9 513.7 281.9 513.2 282C512.7 282 512.2 282.1 511.7 282.1C510.9 282.1 509.8 282 509.3 281.2L508.4 279.7C506.4 276.3 504.4 273 502.4 269.5C501.9 268.7 501.9 267.7 502.2 267C502.5 266.3 503.1 265.9 503.9 265.7C507.7 264.9 511 264.2 514.5 263.9C518.1 263.6 520.8 264.5 522.9 266.9C524.5 268.7 525.7 270.8 526.9 272.8C529.1 276.5 528.7 277.6 532.2 280.8C532.3 280.9 534.2 282.3 536.4 282.5C539.7 282.7 545.3 280.5 548.8 278.8C551 277.5 554 275.3 554 272.2C553.6 265.4 548.5 260.5 544.3 257.5C537.7 254.1 532.4 249.9 529 245.6C527.4 243.4 526.6 240.7 525.9 238.2C525.7 237.6 525.6 237 525.4 236.4C525.3 236 524.9 235.9 524.6 235.9C524.3 235.9 523.9 236 523.7 236.2C522 237.7 523 240.8 523.7 242.9C523.8 243.2 523.9 243.5 524 243.8L524.1 244.1C524.6 245.7 524.9 246.9 523.9 247.8C522.4 249 520.4 249.6 517.6 249.6C516.4 249.6 515.2 249.5 514 249.4C513.3 249.3 512.7 249.3 512.1 249.3C508.7 249.1 505.4 248.5 502.3 247.8C498.7 247.1 494.9 246.3 491 246.3C490.1 246.3 489.3 246.3 488.5 246.4C486.5 246.5 484.2 246.9 481.8 247.2C478.7 247.7 475.4 248.2 472.5 248.2C467.6 248.2 464.5 246.7 463.1 243.6C460 235.8 461.6 226.5 462.9 219.7C462.9 219 462 218.7 461.6 218.6C461.4 218.5 461.3 218.5 461.2 218.5C460.8 218.5 460.4 218.7 460.2 219.2C459.3 222.5 458.8 226 458.3 229.5C457.7 233.8 457 238.3 455.6 242.5C453.5 248.9 448.2 257 441 260.6C435.4 263.5 429 265 420.1 265.6C408.1 265.8 393.3 267.6 384.6 280C384 281.1 383.9 281.4 383.7 282.3C383.6 282.7 383.6 283.1 383.8 283.3C384.1 283.7 384.7 283.6 385.1 283.2C393.3 274 404.5 269.3 418.4 269.3C419.2 269.3 419.9 269.3 420.7 269.3C431.9 269.3 445.9 267.8 454.5 256.1C456.6 253.7 459.8 248.4 459.8 248.4L460 248.1L464.9 251.8L464.8 252C464.8 252.1 462.7 257.4 461.4 259.8C460.1 262.4 456.5 268.8 452.4 271.1C451.4 271.6 450.2 272.3 448.9 273C446.5 274.2 443.6 275.8 440.7 277.4C438.3 278.8 435.3 279.5 432.2 279.5C430.4 279.5 428.6 279.3 426.8 278.8C423.5 278.2 419.3 277.4 415.4 277.4C412.2 277.4 409.7 277.9 407.5 278.9C405.8 280 404.1 281.5 402.5 283C401.5 284 400.4 284.9 399.4 285.8C397 287.7 392 291 386.8 290.7C385.7 290.6 384.6 290.3 383.6 290.1C382.4 289.8 381.2 289.5 380.1 289.5C378.8 289.5 377.9 289.9 377.1 290.8C375.7 292.1 374.7 293.8 373.8 295.5C372.3 298 370.8 300.6 368 301.9C366.4 302.8 364.6 303.2 362.5 303.2C360.3 303.2 358 302.7 355.9 302.2C354.2 301.8 352.7 301.5 351.1 301.4H350.7L350.8 300.8C350.9 300.1 351.1 299.5 351.2 298.8C352.1 294.4 353.1 289.9 356 286.5L356.1 286.4H356.2C358.1 286.2 360.1 285.8 361.7 284.4C363.7 282.6 365.3 280.3 366.8 277.8L366.9 277.7C367.8 277.1 368.8 276.6 369.7 276C373.5 273.8 377.4 271.5 379.8 267.7C380.6 265.9 381.5 263.8 382.3 261.8C383.6 258.4 384.8 255.5 385.8 254.4C386.4 253.8 387 253.5 387.9 253.4C388.3 253.4 388.9 253.3 389.8 253.3C391.5 253.2 393.9 253.1 396.1 252.8C397.5 252.6 404.9 250 408.6 246.6C409.6 245.6 410.1 243.9 409.6 242.4C409.5 241.9 409.1 241 408.6 239.9C407.5 237.2 405.8 233 405.1 229.6C404.8 228.1 404.6 224.4 404.5 220.6C404.4 218.2 404.3 215.8 404.1 213.6C404 212.5 403.6 212.5 403.4 212.5C403.3 212.5 403.1 212.5 402.9 212.6C398.1 213.8 393.1 215.1 387.8 215.1C386.1 215.1 384.6 215 383 214.7C374.1 213.6 363.4 207.7 359.5 197.3C356.5 189.4 356.8 177.2 363.3 170.1C368.2 164.1 374.1 159.2 379.9 154.4C381 153.5 382.2 152.5 383.3 151.6C384.5 150.6 385 149.9 384.9 148.9C384.7 147.3 383.4 146 382.1 145.6C380.7 145.2 379.1 145.2 377.8 145.2C377.3 145.2 376.9 145.2 376.4 145.2C375.9 145.2 375.5 145.2 375 145.2C372.9 145.2 370.7 145.1 368.5 144.2C368.2 144.1 367.9 144 367.6 143.9C360.9 140.8 354.8 133.3 353.9 126C353.7 122.5 354.3 119.4 356.1 116.6C360.9 119.2 365.1 123.4 370.6 124.9C372.7 125.4 374.8 125.7 377 126.2C377.3 126.3 377.9 126.3 378.3 126.4L378.9 126.5C382.3 127.3 391.5 129.6 395.6 134.1C399.7 138.6 400.1 146.9 396.5 151.8C393.4 156 388.8 159.9 384 163.9C381 166.4 378 169 375.3 171.7C369.6 177.4 367.5 184.7 369.5 191.9C371.6 198.3 378 203.1 385 203.6C385.2 203.6 385.5 203.6 385.7 203.6C395.1 203.6 402.4 199.3 410.1 194.8C410.8 194.4 411.6 193.9 412.2 193.5C413.5 192.7 416.2 190.6 418.3 189C424.5 184.1 431.9 178.4 438.8 176.8C443.4 175.7 444.2 175.7 449 175.2C452.4 174.9 455.6 174.5 458.5 173.5C464.9 171.3 470.5 166.5 476 161.5C483 155.8 489.8 153.4 499.3 153.4C503.4 153.4 504 152.9 509 148.2C510.1 147.2 511.4 146 513 144.5C518.4 139.5 525.3 137.4 532 135.3C535.4 134.2 538.9 133.2 542.2 131.7C546.4 130.3 550.3 127.8 554 125.4C556.2 124 558.5 122.5 560.8 121.3C564.2 119.8 568.3 119 572.5 119C575.8 119 579 119.5 581.7 120.5C585.9 122 587.7 122.8 593.5 126.8L622.8 151.1L623.2 151.5C623.7 152 624.4 152.6 624.9 153.2C625.8 154.1 642.1 173.1 648.9 184.2C651.1 187.9 652.9 193.6 653.1 196.3C654.4 213.4 659.6 228.8 664.4 241.8C664.6 242.3 665.6 243.2 666.7 244.2C668 245.3 669.4 246.6 670.3 247.9C671.6 249.7 672.8 251.7 673.9 253.6C676.8 258.5 679.9 263.6 685.1 266.6C685.1 266.6 687.5 267.8 689.5 268.8C690.2 269.3 690.3 269.8 690.2 270.4ZM583.5 163C582 160 580.5 158.1 579 157.4C578.6 157.2 578.1 157.1 577.6 157.1C576.6 157.1 575.6 157.5 575.3 158.1C574 160.2 575.2 161.7 576.5 163.5C577.1 164.4 577.8 165.3 578.4 166.5C580.2 170.1 581.1 174 582.6 181.8C582.7 182.5 583.2 182.6 583.3 182.6C583.7 182.6 584 182.2 584.2 181.7C584.3 181.6 587.3 170.7 583.5 163ZM632.8 254.9C631.4 254.2 629.9 254.7 629.9 254.7C625.3 255.9 623 260.7 622.7 261.2C622.7 261.2 622 262.5 622.4 263.2C622.8 263.8 623.5 264.1 625.5 264.2C627.5 264.3 631.2 263.8 632.2 262.8C633.2 261.9 633.5 259.6 633.5 259.6C633.5 259.2 634.2 255.6 632.8 254.9ZM646.6 222.8C646.1 220.5 644.1 216.7 642.3 214.8C640.5 212.9 639.9 211.9 639.3 210.9C638.7 209.9 639.2 210.2 637 207.5C635.1 205.2 633.4 205.4 632.9 205.4C632.9 205.4 630.9 205.3 629.4 207.5C628.8 208.3 627.4 211.7 627.4 211.7C626.7 213.4 626.1 213.9 625.5 216.4C624.9 218.8 625.1 219.8 625.4 221.1C625.6 222.4 626.3 222.5 626.8 222.2C627.3 221.9 627.3 221.6 628.9 219.5C630.3 217.7 632.1 216.6 632.8 216.6C635.6 216.3 640.4 222.6 641.4 224.8C642.3 226.8 642.5 231.6 642.5 231.6C642.5 231.8 642.4 233.6 643.9 233.6C645.2 233.6 645.7 232.6 645.9 232.2C646.1 231.8 646.6 230.9 646.9 229.1C647.1 227.1 647.2 225.1 646.6 222.8ZM352.2 280.5C352.8 281 353.6 281.6 354.9 281.6C355.6 281.6 356.4 281.4 357.1 281C361.2 279 365.4 271.4 365.5 271C365.9 269.8 364.5 268.7 362.8 267.3L362.6 267.1C361.8 266.5 360.4 266.6 359.5 267.2C358.8 267.6 358.2 268.1 357.5 268.5C355.4 269.9 353.2 271.3 350.9 273.3C350.1 274 349.6 275.3 349.5 276.3C349.4 277.1 349.6 277.8 349.9 278.2C350.2 278.4 351.8 280.2 352.2 280.5ZM399.9 341.1H402.3V334.6H408.7V332.5H402.3V327.8H408.9V325.6H399.8V341.1H399.9ZM425.4 340.8C426.4 340.4 427.2 339.8 428 339.1C428.7 338.4 429.3 337.5 429.7 336.5C430.1 335.5 430.3 334.5 430.3 333.3C430.3 332.2 430.1 331.1 429.7 330.1C429.3 329.1 428.7 328.3 428 327.6C427.3 326.9 426.4 326.3 425.4 325.9C424.4 325.5 423.3 325.3 422.2 325.3C421 325.3 419.9 325.5 419 325.9C418 326.3 417.2 326.9 416.4 327.6C415.7 328.3 415.1 329.2 414.7 330.1C414.3 331.1 414.1 332.1 414.1 333.3C414.1 334.4 414.3 335.5 414.7 336.5C415.1 337.5 415.7 338.3 416.4 339.1C417.1 339.8 418 340.4 419 340.8C420 341.2 421.1 341.4 422.2 341.4C423.3 341.4 424.4 341.2 425.4 340.8ZM419.9 338.7C419.2 338.4 418.6 338 418.1 337.5C417.6 337 417.2 336.4 416.9 335.7C416.6 335 416.5 334.2 416.5 333.4C416.5 332.6 416.6 331.8 416.9 331.1C417.2 330.4 417.6 329.8 418.1 329.3C418.6 328.8 419.2 328.4 419.9 328.1C420.6 327.8 421.3 327.7 422.2 327.7C423 327.7 423.7 327.8 424.4 328.1C425.1 328.4 425.7 328.8 426.2 329.3C426.7 329.8 427.1 330.4 427.4 331.1C427.7 331.8 427.8 332.6 427.8 333.4C427.8 334.2 427.7 335 427.4 335.7C427.1 336.4 426.7 337 426.2 337.5C425.7 338 425.1 338.4 424.4 338.7C423.7 339 423 339.1 422.2 339.1C421.3 339.2 420.6 339 419.9 338.7ZM436.6 341.1H439V335H441.1L445 341.1H447.8L443.7 334.8C444.7 334.5 445.4 333.9 446 333.1C446.5 332.3 446.8 331.4 446.8 330.3C446.8 328.8 446.3 327.7 445.4 326.9C444.5 326.1 443.2 325.6 441.6 325.6H436.5V341.1H436.6ZM439 333V327.7H441.6C442.5 327.7 443.1 327.9 443.6 328.4C444.1 328.9 444.3 329.5 444.3 330.3C444.3 331.1 444.1 331.8 443.6 332.3C443.1 332.8 442.4 333 441.6 333H439ZM466 325.6L461.5 338L457 325.6H453.7V341.1H456V329.2L460.4 341.1H462.5L466.9 329.2V341.1H469.3V325.6H466ZM485 341C485.7 340.7 486.4 340.3 486.9 339.7C487.4 339.2 487.8 338.5 488.1 337.7C488.4 336.9 488.5 336 488.5 335.1V325.6H486V335.1C486 336.4 485.7 337.4 485.1 338.1C484.5 338.8 483.6 339.2 482.5 339.2C481.4 339.2 480.5 338.8 479.9 338.1C479.3 337.4 479 336.4 479 335.1V325.6H476.6V335.1C476.6 336.1 476.7 336.9 477 337.7C477.3 338.5 477.7 339.2 478.2 339.7C478.7 340.2 479.4 340.7 480.1 341C480.8 341.3 481.7 341.5 482.6 341.5C483.4 341.4 484.2 341.3 485 341ZM495.6 341.1H504.1V338.9H498V325.6H495.6V341.1ZM519.9 341.1H522.5L516.7 325.6H514.1L508.2 341.1H510.8L512.1 337.4H518.6L519.9 341.1ZM515.4 328.1L518 335.5H512.8L515.4 328.1ZM548.3 340.8C549.3 340.4 550.1 339.8 550.9 339.1C551.6 338.4 552.2 337.5 552.6 336.5C553 335.5 553.2 334.5 553.2 333.3C553.2 332.2 553 331.1 552.6 330.1C552.2 329.1 551.6 328.3 550.9 327.6C550.2 326.9 549.3 326.3 548.3 325.9C547.3 325.5 546.2 325.3 545.1 325.3C543.9 325.3 542.8 325.5 541.9 325.9C540.9 326.3 540.1 326.9 539.3 327.6C538.6 328.3 538 329.2 537.6 330.1C537.2 331.1 537 332.1 537 333.3C537 334.4 537.2 335.5 537.6 336.5C538 337.5 538.6 338.3 539.3 339.1C540 339.8 540.9 340.4 541.9 340.8C542.9 341.2 544 341.4 545.1 341.4C546.2 341.4 547.3 341.2 548.3 340.8ZM542.8 338.7C542.1 338.4 541.5 338 541 337.5C540.5 337 540.1 336.4 539.8 335.7C539.5 335 539.4 334.2 539.4 333.4C539.4 332.6 539.5 331.8 539.8 331.1C540.1 330.4 540.5 329.8 541 329.3C541.5 328.8 542.1 328.4 542.8 328.1C543.5 327.8 544.2 327.7 545.1 327.7C545.9 327.7 546.6 327.8 547.3 328.1C548 328.4 548.6 328.8 549.1 329.3C549.6 329.8 550 330.4 550.3 331.1C550.6 331.8 550.7 332.6 550.7 333.4C550.7 334.2 550.6 335 550.3 335.7C550 336.4 549.6 337 549.1 337.5C548.6 338 548 338.4 547.3 338.7C546.6 339 545.9 339.1 545.1 339.1C544.3 339.2 543.5 339 542.8 338.7ZM569 325.6V337.1L562.1 325.6H559.4V341.1H561.8V329.4L568.8 341.1H571.4V325.6H569ZM578.7 341.1H588.1V339H581.1V334.1H587.6V332H581.1V327.7H587.8V325.6H578.7V341.1ZM607 341.1H609.4V327.8H614V325.6H602.6V327.8H607V341.1ZM620.1 341.1H629.5V339H622.5V334.1H629V332H622.5V327.7H629.2V325.6H620.1V341.1ZM646.1 341.1H648.7L642.9 325.6H640.3L634.4 341.1H637L638.3 337.4H644.8L646.1 341.1ZM641.5 328.1L644.1 335.5H639L641.5 328.1ZM666.8 325.6L662.3 338L657.8 325.6H654.5V341.1H656.8V329.2L661.2 341.1H663.3L667.7 329.2V341.1H670.1V325.6H666.8Z" fill="#8B8F91"/>
</g>
</svg>
