<svg width="800" height="700" viewBox="0 0 800 700" fill="none" xmlns="http://www.w3.org/2000/svg">
<g clip-path="url(#clip0_1_9)">
<path d="M367 59C369.254 62.3814 369.045 63.3435 368.305 67.1699C368.163 67.8357 368.021 68.5015 367.875 69.1875C367.625 70.4598 367.375 71.7321 367.117 73.043C366.089 77.7597 364.909 82.437 363.729 87.1176C362.194 93.2073 360.694 99.3053 359.203 105.406C358.962 106.392 358.722 107.377 358.474 108.392C357.732 111.428 356.991 114.464 356.25 117.5C355.738 119.595 355.227 121.69 354.715 123.785C353.476 128.857 352.238 133.928 351 139C351.953 138.823 352.905 138.647 353.886 138.465C357.459 137.804 361.032 137.147 364.605 136.491C366.144 136.208 367.683 135.924 369.222 135.639C402.314 129.506 402.314 129.506 410.188 133.812C413 136 413 136 415 139C414.426 149.66 404.527 159.123 398 167C397.475 167.683 396.951 168.366 396.41 169.07C395.924 169.686 395.438 170.303 394.938 170.937C394.534 171.462 394.131 171.987 393.715 172.527C388.635 176.89 382.006 177.739 375.625 178.812C363.289 181.014 351.157 183.98 339 187C335.277 199.532 331.602 212.045 328.546 224.759C327.902 227.403 327.235 230.041 326.566 232.68C316.653 262.137 316.653 262.137 317.75 291.25C318.075 291.915 318.4 292.58 318.734 293.266C320.277 295.38 321.572 296.068 324 297C336.368 298.484 351.697 288.519 361.875 282C365 280 365 280 367 280C367.026 279.042 367.052 278.084 367.078 277.098C368.169 248.275 379.662 223.153 399 202C399.69 201.239 400.379 200.479 401.09 199.695C415.326 184.731 436.161 173.333 456.938 172.375C461.563 172.5 464.601 172.73 468.188 175.75C469.161 176.801 470.104 177.882 471 179C476.08 184.371 480.225 184.109 487.438 184.312C488.188 184.322 488.939 184.332 489.713 184.342C493.482 184.484 495.606 184.765 498.91 186.73C503.923 192.174 503.333 198.159 503.188 205.184C502.937 210.285 502.092 215.02 501 220C500.537 222.292 500.085 224.587 499.631 226.881C498.407 233.066 497.156 239.246 495.887 245.422C495.707 246.304 495.527 247.187 495.341 248.096C495 249.769 494.655 251.441 494.307 253.113C491.61 266.376 488.732 284.463 495 297C501.204 297.428 503.931 296.917 509 293C509.743 292.67 510.485 292.34 511.25 292C513.544 290.689 513.911 289.383 515 287C517.098 284.323 519.25 281.704 521.445 279.105C524.971 274.127 525.856 268.51 527.063 262.625C527.574 260.275 528.086 257.924 528.598 255.574C528.839 254.439 529.08 253.304 529.329 252.134C530.167 248.222 531.074 244.329 532 240.438C532.44 238.578 532.44 238.578 532.89 236.681C537.366 217.798 541.972 198.95 546.688 180.125C547.138 178.323 547.138 178.323 547.598 176.485C552.121 158.404 556.695 140.337 561.36 122.291C564.386 110.561 567.231 98.7933 570 87C570.163 86.3077 570.326 85.6154 570.493 84.9022C571.975 78.5976 573.376 72.3101 574.473 65.9258C575 64 575 64 577 62C588.572 58.9909 602.071 58.1096 612.883 64.0312C617.879 67.7468 620.092 73.2772 622 79C622.365 86.3352 621.305 93.0671 619.875 100.25C619.645 101.406 619.416 102.562 619.179 103.754C616.315 117.785 612.321 131.216 607.68 144.754C607.376 145.639 607.073 146.524 606.761 147.435C605.226 151.902 603.68 156.363 602.114 160.819C598.176 172.091 594.864 183.408 592 195C611.337 183 627.522 168.524 643.646 152.529C644.698 151.485 645.752 150.443 646.807 149.402C652.953 143.33 658.701 137.172 664.054 130.377C665.934 128.08 667.766 125.957 670 124C678.682 124.285 686.956 128.672 693 134.75C695.713 139.159 696.108 141.977 695 147C690.883 155.195 684.952 161.657 678.438 168C677.556 168.87 676.674 169.74 675.765 170.637C669.891 176.358 663.846 181.604 657.281 186.504C653.745 189.147 650.443 192.028 647.125 194.938C640.258 200.924 633.023 206.354 625.679 211.738C624.139 212.896 622.646 214.117 621.16 215.344C619 217 619 217 617 217C618.439 230.34 620.085 243.136 624 256C624.442 257.707 624.879 259.416 625.313 261.125C626.836 266.684 628.634 272.152 630.438 277.625C630.87 278.95 630.87 278.95 631.312 280.301C640.766 308.635 657.261 337.834 684.395 352.273C706.686 362.948 734.9 361.187 757.875 353.25C769.745 348.887 780.271 342.88 789.742 334.449C793.648 331 793.648 331 798 331C800.38 338.139 800.346 349.376 797.094 356.211C792.299 364.054 786.863 369.241 779 374C778.299 374.44 777.598 374.879 776.875 375.332C749.985 390.458 709.823 391.16 680.745 383.398C656.218 376.213 635.544 361.176 620 341C619.367 340.229 618.734 339.458 618.082 338.664C595.685 310.125 585.461 271.444 582 236C581.34 236 580.68 236 580 236C579.951 236.583 579.902 237.165 579.852 237.766C579.441 242.269 578.9 246.68 578.063 251.125C575.762 264.726 575.133 278.585 574.5 292.348C574.458 293.249 574.416 294.15 574.373 295.078C574.163 299.628 573.965 304.178 573.785 308.729C573.711 310.42 573.637 312.11 573.563 313.801C573.535 314.584 573.508 315.368 573.48 316.175C573.307 319.927 573.13 321.805 571 325C559.794 330.892 546.655 334.394 534.086 331.277C529.128 329.471 525.626 327.746 523 323C521.535 319.374 520.223 315.714 519 312C518.105 312.953 517.211 313.905 516.289 314.887C500.994 330.881 500.994 330.881 490.563 331.562C482.785 331.053 475.245 328.136 469.559 322.777C467.197 320.085 465.254 317.182 463.359 314.148C462.006 312.01 460.543 310.005 459 308C457.909 308.961 457.909 308.961 456.797 309.941C442.111 322.672 425.954 331.404 406 331C393.785 330.084 384.417 324.743 376 316C373.544 313.047 372 310.973 372 307C371.38 307.34 370.76 307.681 370.121 308.031C368.214 309.075 366.305 310.115 364.395 311.152C362.053 312.427 359.718 313.71 357.387 315.004C336.341 326.591 312.364 334.484 288.312 328.375C279.103 325.287 273.851 321.034 269.188 312.492C255.688 284.161 275.696 229.806 284 201C283.159 201.287 282.319 201.574 281.452 201.87C278.269 202.955 275.083 204.033 271.897 205.108C270.53 205.57 269.164 206.034 267.798 206.501C241.913 215.345 241.913 215.345 233 213C222.023 207.399 216.741 196.223 213 185C212.96 182.667 212.956 180.333 213 178C213.726 177.76 214.451 177.52 215.198 177.272C232.084 171.678 248.937 165.995 265.755 160.2C269.16 159.027 272.567 157.858 275.974 156.693C277.359 156.219 278.743 155.744 280.127 155.268C282.199 154.555 284.273 153.849 286.348 153.145C287.556 152.732 288.764 152.319 290.008 151.894C293 151 293 151 296 151C296.094 150.394 296.187 149.789 296.284 149.165C297.727 140.528 300.025 132.172 302.375 123.75C302.961 121.634 303.545 119.517 304.13 117.4C304.516 116.002 304.904 114.605 305.292 113.208C306.25 109.758 307.187 106.304 308.082 102.838C308.256 102.168 308.43 101.498 308.609 100.807C309.081 98.9796 309.547 97.1504 310.013 95.321C313.637 83.1261 320.445 73.2792 331.375 66.6758C336.152 64.4675 341 62.9767 346.062 61.5625C347.445 61.1736 347.445 61.1736 348.856 60.7768C354.7 59.2627 360.972 57.8444 367 59ZM441.871 214.105C441.382 214.598 440.894 215.091 440.39 215.599C439.167 216.832 437.915 218.038 436.66 219.238C421.543 234.629 407.667 260.951 406.5 282.938C406.809 288.566 409.046 293.214 413.188 297C419.415 299.214 425.636 298.398 431.742 296.09C444.005 290.171 450.366 278.312 455 266C462.022 245.793 465.112 223.351 464 202C454.738 202 448.127 207.945 441.871 214.105Z" fill="white"/>
<path d="M147.562 -0.25C148.304 -0.250675 149.046 -0.251349 149.811 -0.252045C178.051 -0.211479 204.863 4.87634 228 22C229.011 22.7425 230.021 23.485 231.062 24.25C231.702 24.8275 232.341 25.405 233 26C233 26.66 233 27.32 233 28C233.868 28.348 233.868 28.348 234.754 28.7031C244.229 34.1737 247.709 47.0857 250.542 56.8721C254.048 73.1617 251.144 92.2766 242.687 106.504C235.606 116.979 226.732 123.571 214.605 127.305C203.7 129.408 189.724 130.075 180 124C177.542 121.919 175.492 119.87 174 117C174 115.68 174 114.36 174 113C175.723 111.324 175.723 111.324 178.062 109.688C188.84 101.727 198.038 91.037 202 78C203.368 68.8928 201.626 61.8615 197 54C196.577 53.2691 196.154 52.5382 195.719 51.7852C189.123 41.7964 178.182 37.7302 167 35C166.083 34.7744 165.167 34.5488 164.223 34.3164C139.475 29.0471 108.816 35.4058 87.0234 47.9766C72.2604 57.8567 61.2047 72.7496 57.5083 90.3398C56.415 96.198 55.6301 102.076 55 108C54.8827 109.079 54.7654 110.158 54.6445 111.27C54.0424 122.384 59.1158 132.163 66.3203 140.324C77.0526 151.041 89.9355 158.481 103 166C104.366 166.801 105.732 167.603 107.098 168.406C115.198 173.117 123.514 177.222 131.998 181.195C140.422 185.153 148.642 189.45 156.842 193.849C158.85 194.92 160.866 195.973 162.887 197.02C191.2 211.739 223.964 230.617 234.605 262.633C236.185 268.04 236.461 273.081 236.375 278.688C236.362 280.125 236.362 280.125 236.349 281.591C236.183 289.687 235.141 297.167 233 305C232.733 305.996 232.466 306.993 232.191 308.02C227.387 323.971 219 336.666 208 349C207.188 349.926 206.376 350.851 205.539 351.805C180.405 378.654 141.369 391.489 106 397C105.245 397.119 104.49 397.237 103.712 397.359C76.4199 401.422 45.2672 402.74 22.0625 385.625C8.96175 374.491 1.9028 361.057 -2.04742e-05 344C-1.4154 324.005 1.42106 304.149 9.99998 286C10.486 284.955 10.9719 283.909 11.4726 282.832C19.3362 267.302 32.6094 254.062 49.3047 248.484C62.1983 244.487 75.4967 241.34 88.4844 246.609C94.0917 249.709 97.5584 254.373 99.9375 260.25C101 264 101 264 101 268C99.863 268.461 98.7261 268.923 97.5547 269.398C76.9777 277.989 60.7655 289.865 51.75 311C47.9414 321.236 45.7325 333.297 48.875 343.973C53.0858 353.156 59.7876 357.519 69 361C80.7071 364.902 96.3941 362.119 108 359C109.257 358.671 110.514 358.343 111.809 358.004C126.22 353.992 140.347 347.813 152.066 338.434C154 337 154 337 156 337C156 336.34 156 335.68 156 335C156.969 334.237 157.939 333.474 158.937 332.688C169.057 324.186 174.249 312.355 178 300C178.289 299.052 178.289 299.052 178.584 298.086C181.327 288.247 182.344 275.133 177.562 265.875C175.91 263.347 175.91 263.347 174 261C173.37 260.166 172.739 259.332 172.09 258.473C163.407 247.94 151.97 241.358 140.121 234.969C139.078 234.405 138.035 233.842 136.961 233.261C125.176 226.949 113.163 221.122 101.125 215.312C19.5031 175.91 19.5031 175.91 3.99998 136C-3.79533 111.418 1.13114 81.6757 12.6875 59.125C16.8411 51.335 21.6053 45.126 28 39C28.8417 38.157 29.6835 37.3139 30.5508 36.4453C61.1004 5.94438 106.157 -0.215724 147.562 -0.25Z" fill="white"/>
<path d="M786.656 183.133C792.334 187.656 797.349 191.724 798.484 199.18C799.803 217.517 796.388 232.758 784.313 247C778.9 252.529 772.797 256.374 766 260C765.117 260.482 764.234 260.964 763.324 261.461C746.548 269.862 729.349 269.527 711 269C711.077 282.328 711.077 282.328 717.492 293.551C725.154 300.317 736.377 298.51 746 298C755.408 296.754 763.336 292.231 770.5 286.125C773 284 773 284 775 284C775 283.34 775 282.68 775 282C777.63 279.293 779.122 278.056 782.938 277.812C788.031 279.787 790.721 283.368 793.078 288.219C794.912 293.087 795.476 296.884 794 302C791.016 306.323 787.446 309.257 783.25 312.312C782.597 312.789 781.944 313.265 781.271 313.756C761.527 327.755 738.252 335.206 714.016 331.465C698.233 328.312 684.52 321.424 675 308C667.708 295.75 664.432 283.871 664.625 269.562C664.635 268.466 664.645 267.369 664.656 266.239C665.085 243.868 674.839 225.898 689 209C689.565 208.3 690.129 207.6 690.711 206.879C695.217 201.453 700.367 197.218 706 193C706.759 192.413 707.519 191.827 708.301 191.223C730.647 174.66 762.108 165.904 786.656 183.133ZM734 216C732.084 218.763 730.289 221.56 728.551 224.437C727.638 225.947 726.69 227.437 725.668 228.875C721.21 235.215 716 246.176 716 254C728.938 254.626 739.285 250.234 749.063 241.875C757.994 233.47 763.162 224.597 767 213C767.495 211.515 767.495 211.515 768 210C768.119 208.003 768.175 206.001 768.188 204C768.202 202.948 768.216 201.896 768.23 200.812C768.212 197.792 768.212 197.792 766 195C753.681 192.387 740.621 207.681 734 216Z" fill="#F7F7F7"/>
<path d="M284 610C284.356 612.781 284.356 612.781 284.328 616.285C284.323 617.537 284.318 618.79 284.313 620.08C284.292 621.394 284.271 622.708 284.25 624.062C284.245 625.381 284.24 626.699 284.234 628.057C284.154 637.846 284.154 637.846 283 639C281.481 639.072 279.958 639.084 278.438 639.062C277.611 639.053 276.785 639.044 275.934 639.035C274.976 639.018 274.976 639.018 274 639C274.012 639.638 274.023 640.276 274.035 640.934C274.044 641.76 274.053 642.586 274.063 643.438C274.074 644.261 274.086 645.085 274.098 645.934C274 648 274 648 273 649C271.481 649.072 269.958 649.084 268.438 649.062C267.611 649.053 266.785 649.044 265.934 649.035C265.296 649.024 264.657 649.012 264 649C264.495 652.96 264.495 652.96 265 657C266.671 656.969 266.671 656.969 268.375 656.938C272 657 272 657 274 658C274 660.97 274 663.94 274 667C276.97 667 279.94 667 283 667C284.403 669.806 284.13 672.15 284.133 675.285C284.134 676.537 284.135 677.79 284.137 679.08C284.133 680.394 284.129 681.708 284.125 683.062C284.129 684.381 284.133 685.699 284.137 687.057C284.135 688.308 284.134 689.559 284.133 690.848C284.132 692.003 284.131 693.158 284.129 694.348C284 697 284 697 283 698C280.781 698.088 278.56 698.107 276.34 698.098C275.343 698.096 275.343 698.096 274.326 698.093C272.197 698.088 270.067 698.075 267.938 698.062C266.497 698.057 265.056 698.053 263.615 698.049C260.077 698.038 256.538 698.021 253 698C252.505 693.545 252.505 693.545 252 689C249.03 688.67 246.06 688.34 243 688C243 685.03 243 682.06 243 679C240.03 679 237.06 679 234 679C234 685.27 234 691.54 234 698C229.746 698.023 225.492 698.043 221.238 698.055C219.789 698.06 218.341 698.067 216.893 698.075C214.815 698.088 212.738 698.093 210.66 698.098C209.409 698.103 208.157 698.108 206.867 698.114C204 698 204 698 203 697C202.9 694.297 202.864 691.62 202.871 688.916C202.869 688.069 202.867 687.222 202.865 686.349C202.861 683.535 202.864 680.721 202.867 677.906C202.867 675.96 202.866 674.013 202.864 672.066C202.863 667.98 202.865 663.895 202.87 659.809C202.875 654.56 202.872 649.31 202.866 644.06C202.862 640.039 202.864 636.017 202.866 631.996C202.867 630.06 202.866 628.123 202.864 626.187C202.861 623.486 202.865 620.785 202.871 618.084C202.869 617.276 202.867 616.467 202.864 615.634C202.886 610.114 202.886 610.114 204 609C206.219 608.912 208.44 608.893 210.66 608.902C211.657 608.904 211.657 608.904 212.674 608.907C214.803 608.912 216.933 608.925 219.063 608.938C220.503 608.943 221.944 608.947 223.385 608.951C226.923 608.961 230.462 608.981 234 609C234 615.27 234 621.54 234 628C236.97 628 239.94 628 243 628C242.979 626.536 242.959 625.071 242.938 623.562C242.916 622.042 242.928 620.519 243 619C244 618 244 618 246.066 617.902C249.533 617.951 249.533 617.951 253 618C253 615.03 253 612.06 253 609C256.932 608.807 260.865 608.629 264.798 608.463C266.793 608.376 268.788 608.278 270.783 608.18C272.664 608.102 272.664 608.102 274.582 608.023C275.739 607.971 276.897 607.919 278.089 607.865C281 608 281 608 284 610Z" fill="white"/>
<path d="M38 610C38.3406 611.879 38.3406 611.879 38.293 614.133C38.2833 614.938 38.2736 615.744 38.2637 616.574C38.2385 617.416 38.2134 618.258 38.1875 619.125C38.1672 620.399 38.1672 620.399 38.1465 621.699C38.1111 623.8 38.0573 625.9 38 628C40.64 628 43.28 628 46 628C45.9884 627.362 45.9768 626.724 45.9648 626.066C45.9558 625.24 45.9468 624.414 45.9375 623.562C45.9259 622.739 45.9143 621.915 45.9023 621.066C46 619 46 619 47 618C50.0033 617.858 52.9922 617.958 56 618C56 615.03 56 612.06 56 609C60.0932 608.832 64.1866 608.672 68.2803 608.518C69.6733 608.464 71.0662 608.409 72.459 608.352C74.4594 608.27 76.4602 608.195 78.4609 608.121C80.2676 608.05 80.2676 608.05 82.1108 607.978C85 608 85 608 87 609C87 618.9 87 628.8 87 639C83.7 639 80.4 639 77 639C77 642.3 77 645.6 77 649C73.7 649 70.4 649 67 649C67.495 652.96 67.495 652.96 68 657C69.6706 656.969 69.6706 656.969 71.375 656.938C75 657 75 657 77 658C77 660.97 77 663.94 77 667C78.4644 666.979 79.9288 666.959 81.4375 666.938C82.9583 666.916 84.4807 666.928 86 667C87 668 87 668 87.1135 670.867C87.1057 672.745 87.1057 672.745 87.0977 674.66C87.0952 675.876 87.0927 677.091 87.0901 678.344C87.081 679.901 87.0719 681.458 87.0625 683.062C87.0419 687.992 87.0213 692.921 87 698C76.77 698 66.54 698 56 698C55.505 693.545 55.505 693.545 55 689C52.03 688.67 49.06 688.34 46 688C46 685.03 46 682.06 46 679C43.36 679 40.72 679 38 679C38.0116 680.288 38.0232 681.576 38.0352 682.902C38.0445 684.581 38.0536 686.259 38.0625 687.938C38.0709 688.788 38.0793 689.638 38.0879 690.514C38.0927 691.727 38.0927 691.727 38.0977 692.965C38.1055 694.088 38.1055 694.088 38.1135 695.234C38 697 38 697 37 698C27.1 698 17.2 698 7 698C7 668.63 7 639.26 7 609C35 608 35 608 38 610Z" fill="white"/>
<path d="M148.011 607.753C149.248 607.755 149.248 607.755 150.51 607.757C151.444 607.754 152.379 607.751 153.341 607.748C154.353 607.755 155.364 607.762 156.406 607.77C157.442 607.77 158.478 607.77 159.545 607.771C161.737 607.774 163.929 607.782 166.122 607.794C169.486 607.812 172.85 607.815 176.215 607.814C178.341 607.819 180.467 607.825 182.594 607.832C183.605 607.833 184.617 607.834 185.659 607.835C186.593 607.842 187.528 607.848 188.49 607.855C189.315 607.859 190.139 607.862 190.989 607.866C193 608 193 608 195 609C195 618.9 195 628.8 195 639C185.43 639.33 175.86 639.66 166 640C165.67 648.91 165.34 657.82 165 667C167.082 666.988 169.164 666.977 171.309 666.965C173.317 666.958 175.326 666.951 177.335 666.945C178.735 666.94 180.135 666.933 181.534 666.925C183.542 666.912 185.551 666.907 187.559 666.902C189.373 666.894 189.373 666.894 191.224 666.886C194 667 194 667 195 668C195.088 670.219 195.107 672.44 195.098 674.66C195.096 675.325 195.095 675.989 195.093 676.674C195.088 678.803 195.075 680.933 195.062 683.062C195.057 684.503 195.053 685.944 195.049 687.385C195.038 690.923 195.021 694.462 195 698C187.898 698.025 180.795 698.043 173.693 698.055C171.274 698.06 168.856 698.067 166.438 698.075C162.97 698.087 159.503 698.093 156.035 698.098C154.947 698.103 153.858 698.108 152.737 698.113C151.235 698.113 151.235 698.113 149.703 698.114C148.374 698.117 148.374 698.117 147.018 698.12C145 698 145 698 144 697C143.858 693.997 143.958 691.008 144 688C141.03 688 138.06 688 135 688C135 664.9 135 641.8 135 618C137.97 618 140.94 618 144 618C143.959 616.721 143.918 615.442 143.875 614.125C143.805 611.945 143.805 611.945 144 610C146 608 146 608 148.011 607.753Z" fill="white"/>
<path d="M606 609C611.408 608.925 616.815 608.871 622.223 608.835C624.06 608.82 625.897 608.8 627.734 608.774C630.385 608.737 633.036 608.72 635.688 608.707C636.499 608.692 637.311 608.676 638.147 608.66C644.868 608.658 650.035 610.155 655.812 613.75C660.293 618.359 661.199 622.628 661.438 628.875C661.167 637.89 658.004 643.606 651.586 649.785C650 651 650 651 648 651C648.632 651.814 648.632 651.814 649.277 652.645C649.825 653.36 650.373 654.075 650.938 654.812C651.483 655.52 652.028 656.228 652.59 656.957C655.939 661.809 655.521 667.344 655 673C652.804 682.033 649.101 688.197 641.188 693.25C633.8 697.733 626.443 698.294 618.031 698.195C616.65 698.191 616.65 698.191 615.241 698.187C612.327 698.176 609.414 698.151 606.5 698.125C604.513 698.115 602.526 698.106 600.539 698.098C595.693 698.076 590.846 698.041 586 698C586.733 690.371 588.499 683.015 590.238 675.562C590.564 674.155 590.889 672.747 591.214 671.34C591.895 668.394 592.579 665.449 593.264 662.504C594.132 658.779 594.995 655.052 595.856 651.324C596.528 648.415 597.202 645.507 597.877 642.598C598.195 641.227 598.512 639.856 598.83 638.485C601.113 628.629 603.52 618.808 606 609ZM622 625C620.143 629.158 619.21 633.36 618.375 637.812C618.241 638.505 618.107 639.198 617.969 639.912C617.641 641.607 617.32 643.303 617 645C619.543 645.109 622.081 645.188 624.625 645.25C625.338 645.284 626.051 645.317 626.785 645.352C631.997 645.447 634.87 644.448 639 641C641.167 637.749 641.272 636.708 641.25 632.937C641.255 632.06 641.26 631.182 641.266 630.277C641.216 627.802 641.216 627.802 639 626C635.211 624.945 631.603 624.894 627.688 624.937C626.619 624.947 625.55 624.956 624.449 624.965C623.641 624.976 622.833 624.988 622 625ZM613 661C612.329 663.77 611.663 666.541 611 669.312C610.809 670.098 610.618 670.884 610.422 671.693C610.241 672.451 610.061 673.208 609.875 673.988C609.624 675.033 609.624 675.033 609.367 676.099C608.905 678.168 608.905 678.168 609 681C612.063 681.108 615.123 681.187 618.188 681.25C619.052 681.284 619.916 681.317 620.807 681.352C624.957 681.415 627.35 681.384 630.988 679.234C634.126 675.749 635.302 673.131 635.438 668.437C635.477 667.673 635.517 666.909 635.559 666.121C635.16 663.816 635.16 663.816 633.023 662.234C628.973 660.581 625.511 660.671 621.188 660.812C620.005 660.833 620.005 660.833 618.799 660.854C616.866 660.889 614.933 660.942 613 661Z" fill="white"/>
<path d="M611.375 454.625C612.048 454.601 612.721 454.576 613.414 454.551C616.539 454.532 618.524 454.63 621.027 456.576C623.456 459.56 624.793 462.699 626.164 466.25C626.442 466.945 626.72 467.64 627.007 468.356C627.889 470.567 628.758 472.783 629.625 475C630.503 477.215 631.383 479.43 632.265 481.644C632.811 483.018 633.354 484.394 633.894 485.771C635.136 488.922 636.414 492.005 638 495C642.113 486.463 645.75 477.805 649.195 468.981C654.119 456.441 654.119 456.441 657 455C659.512 454.902 661.989 454.861 664.5 454.875C665.19 454.871 665.879 454.867 666.59 454.863C671.747 454.873 671.747 454.873 674 456C674.023 465.092 674.041 474.185 674.052 483.277C674.057 487.499 674.064 491.72 674.075 495.942C674.086 500.014 674.092 504.086 674.095 508.158C674.097 509.713 674.1 511.269 674.106 512.825C674.113 514.999 674.114 517.173 674.114 519.347C674.116 520.586 674.118 521.825 674.12 523.102C674 526 674 526 673 528C670.521 528.027 668.042 528.047 665.563 528.062C664.855 528.071 664.148 528.079 663.42 528.088C661.613 528.097 659.806 528.052 658 528C656.088 526.088 656.756 522.664 656.684 520.121C656.663 519.434 656.642 518.748 656.621 518.04C656.555 515.839 656.496 513.639 656.438 511.437C656.394 509.949 656.351 508.46 656.307 506.971C656.199 503.314 656.098 499.657 656 496C655.784 496.548 655.568 497.097 655.345 497.661C644.249 525.751 644.249 525.751 642 528C635.475 528.237 635.475 528.237 633 527C631.922 524.805 631.922 524.805 630.75 521.875C630.316 520.799 629.881 519.722 629.434 518.613C628.961 517.421 628.487 516.229 628 515C627.471 513.681 626.941 512.362 626.41 511.043C624.933 507.365 623.465 503.683 622 500C621.334 498.333 620.667 496.667 620 495C619.975 495.964 619.95 496.928 619.924 497.922C619.83 501.487 619.73 505.052 619.628 508.617C619.584 510.162 619.543 511.707 619.503 513.253C619.445 515.469 619.381 517.686 619.316 519.902C619.291 520.945 619.291 520.945 619.266 522.008C619.114 526.886 619.114 526.886 618 528C615.489 528.1 613.011 528.139 610.5 528.125C609.797 528.129 609.095 528.133 608.371 528.137C603.127 528.127 603.127 528.127 602 527C601.895 524.833 601.861 522.662 601.855 520.492C601.851 519.813 601.848 519.133 601.845 518.433C601.835 516.175 601.833 513.918 601.832 511.66C601.829 510.097 601.825 508.534 601.822 506.971C601.816 503.689 601.814 500.408 601.815 497.127C601.815 492.916 601.801 488.704 601.784 484.493C601.773 481.263 601.771 478.033 601.771 474.804C601.77 473.251 601.766 471.698 601.758 470.145C601.748 467.975 601.751 465.806 601.757 463.637C601.756 462.401 601.754 461.165 601.753 459.891C602.267 453.88 606.449 454.634 611.375 454.625Z" fill="#FFFEFE"/>
<path d="M737 609C741.783 608.9 746.565 608.828 751.349 608.78C752.972 608.76 754.594 608.733 756.217 608.698C777.524 608.251 777.524 608.251 784.986 614.722C790.218 620.208 791.375 626.319 791.312 633.75C791.307 634.455 791.301 635.159 791.295 635.885C791.041 646.89 787.732 654.396 779.902 662.051C774.437 667 774.437 667 772 667C772.182 667.726 772.364 668.452 772.551 669.2C773.374 672.506 774.187 675.816 775 679.125C775.429 680.838 775.429 680.838 775.867 682.586C776.138 683.695 776.409 684.803 776.688 685.945C776.939 686.961 777.19 687.977 777.449 689.024C778 692 778 692 778 698C772.06 698 766.12 698 760 698C758.647 694.616 757.66 691.958 756.93 688.496C756.756 687.673 756.582 686.85 756.402 686.002C756.228 685.156 756.054 684.309 755.875 683.438C755.693 682.587 755.511 681.737 755.324 680.861C754.539 677.097 754 673.877 754 670C748.555 670.495 748.555 670.495 743 671C742.823 671.747 742.647 672.494 742.465 673.263C741.667 676.634 740.865 680.005 740.062 683.375C739.785 684.551 739.507 685.726 739.221 686.938C738.953 688.059 738.686 689.18 738.41 690.336C738.164 691.373 737.918 692.41 737.664 693.478C737 696 737 696 736 698C729.73 698 723.46 698 717 698C718.543 687.858 720.775 677.959 723.133 667.984C723.534 666.275 723.935 664.566 724.335 662.857C725.38 658.398 726.43 653.94 727.481 649.482C728.557 644.917 729.628 640.351 730.699 635.785C732.795 626.856 734.896 617.928 737 609ZM753 625C750.467 634.295 748.094 643.595 746 653C756.799 654.197 756.799 654.197 766.375 650.313C770.378 646.171 771.291 641.558 771.312 635.938C771.329 634.915 771.346 633.893 771.363 632.84C770.941 629.537 770.495 628.211 768 626C764.882 625.298 764.882 625.298 761.438 625.25C759.703 625.165 759.703 625.165 757.934 625.078C756.289 625.034 754.645 625 753 625Z" fill="white"/>
<path d="M484.051 608.886C485.4 608.887 486.749 608.892 488.098 608.902C489.161 608.904 489.161 608.904 490.246 608.907C492.518 608.912 494.79 608.925 497.062 608.938C498.6 608.943 500.137 608.947 501.674 608.951C505.449 608.962 509.225 608.979 513 609C513.192 624.93 512.681 640.843 512.2 656.764C512.084 660.641 511.973 664.519 511.864 668.397C511.779 671.406 511.69 674.416 511.599 677.425C511.557 678.856 511.516 680.288 511.476 681.719C511.421 683.707 511.359 685.694 511.297 687.681C511.247 689.372 511.247 689.372 511.196 691.097C511 694 511 694 510 698C503.73 698 497.46 698 491 698C490.875 685.25 490.875 685.25 492 683C479.625 683.495 479.625 683.495 467 684C464.69 688.62 462.38 693.24 460 698C454.06 698 448.12 698 442 698C442.838 692.973 444.017 689.273 446.141 684.777C446.459 684.087 446.778 683.398 447.106 682.687C447.791 681.205 448.48 679.725 449.171 678.246C450.635 675.114 452.083 671.975 453.532 668.837C454.273 667.233 455.015 665.629 455.758 664.025C459.231 656.522 462.627 648.986 466 641.438C466.528 640.258 467.056 639.079 467.6 637.864C469.927 632.66 472.245 627.453 474.547 622.238C474.925 621.384 475.302 620.529 475.691 619.649C476.373 618.103 477.053 616.557 477.73 615.01C480.369 609.023 480.369 609.023 484.051 608.886ZM492 626C490.104 630.104 488.208 634.208 486.312 638.312C485.517 640.034 485.517 640.034 484.705 641.791C483.647 644.082 482.591 646.374 481.538 648.667C480.53 650.85 479.515 653.03 478.49 655.205C478.033 656.183 477.576 657.16 477.105 658.168C476.495 659.462 476.495 659.462 475.872 660.782C474.817 663.068 474.817 663.068 475 666C480.61 666 486.22 666 492 666C492.722 660.947 493.193 656.165 493.316 651.098C493.337 650.375 493.358 649.653 493.379 648.908C493.444 646.626 493.503 644.344 493.562 642.062C493.606 640.505 493.649 638.947 493.693 637.389C493.8 633.593 493.901 629.796 494 626C493.34 626 492.68 626 492 626Z" fill="white"/>
<path d="M532 609C538.27 609 544.54 609 551 609C549.876 619.12 549.876 619.12 548.785 623.636C548.545 624.645 548.305 625.653 548.057 626.691C547.671 628.281 547.671 628.281 547.277 629.902C546.733 632.197 546.19 634.492 545.646 636.787C544.793 640.367 543.936 643.946 543.072 647.523C542.235 651.001 541.411 654.483 540.59 657.965C540.33 659.022 540.071 660.08 539.804 661.17C538.306 667.559 537.661 673.44 538 680C544.901 682.693 551.088 682.846 558 680C560.125 675.852 561.097 671.225 562.262 666.73C562.476 665.908 562.691 665.086 562.912 664.238C565.734 653.308 568.264 642.309 570.812 631.312C571.319 629.135 571.827 626.957 572.334 624.779C573.559 619.52 574.78 614.26 576 609C582.27 609 588.54 609 595 609C593.874 619.13 593.874 619.13 592.864 623.589C592.64 624.587 592.416 625.586 592.185 626.614C591.944 627.665 591.702 628.715 591.453 629.797C591.2 630.908 590.947 632.018 590.686 633.162C590.151 635.503 589.613 637.843 589.072 640.182C588.256 643.723 587.456 647.267 586.656 650.812C578.555 686.284 578.555 686.284 564.941 695.816C555.956 701.294 544.059 700.711 534 699C527.379 696.913 522.866 693.737 519 688C513.985 672.955 520.859 654.885 524.438 640.25C525.059 637.66 525.675 635.068 526.291 632.477C528.159 624.642 530.047 616.813 532 609Z" fill="white"/>
<path d="M676 609C693.49 609 710.98 609 729 609C728 617 728 617 725 626C708.665 626.495 708.665 626.495 692 627C690.68 632.94 689.36 638.88 688 645C696.58 645 705.16 645 714 645C712 656 712 656 710 662C701.09 662 692.18 662 683 662C682.67 664.97 682.34 667.94 682 671C681.34 673.97 680.68 676.94 680 680C695.84 680.495 695.84 680.495 712 681C713.575 684.15 712.373 686.69 711.625 690.062C711.349 691.332 711.073 692.602 710.789 693.91C710 697 710 697 709 698C707.343 698.093 705.681 698.117 704.021 698.114C702.96 698.113 701.899 698.113 700.806 698.113C699.075 698.106 699.075 698.106 697.309 698.098C695.546 698.096 695.546 698.096 693.748 698.093C689.978 698.088 686.208 698.075 682.438 698.062C679.889 698.057 677.34 698.053 674.791 698.049C668.527 698.038 662.264 698.021 656 698C657.621 688.19 659.883 678.542 662.133 668.863C662.534 667.13 662.934 665.397 663.335 663.664C664.381 659.138 665.431 654.612 666.481 650.087C667.745 644.638 669.005 639.189 670.266 633.739C672.174 625.492 674.088 617.246 676 609Z" fill="white"/>
<path d="M456 613C455.525 614.98 455.045 616.959 454.562 618.938C454.296 620.04 454.029 621.142 453.754 622.277C453 625 453 625 452 626C450.122 625.906 448.247 625.747 446.375 625.563C441.221 625.13 436.107 624.858 430.938 624.813C429.709 624.798 428.481 624.784 427.215 624.77C424.163 624.988 422.514 625.322 420 627C417.7 630.22 417.447 633.126 418 637C421.738 641.507 425.736 643.542 430.938 645.875C438.413 649.432 443.166 652.5 446.375 660.375C448.008 669.847 447.031 678.615 442 687C435.041 694.925 427.761 698.938 417.188 699.813C411.269 700.146 405.834 699.773 400 698.75C399.307 698.629 398.613 698.507 397.899 698.382C393.251 697.469 389.268 695.978 385 694C385.421 691.851 385.863 689.706 386.312 687.563C386.556 686.368 386.8 685.173 387.051 683.941C387.364 682.971 387.677 682 388 681C391.92 679.693 395.247 680.387 399.25 680.938C409.609 682.441 409.609 682.441 419.812 680.688C420.561 680.444 421.31 680.2 422.082 679.949C424.341 679.03 424.341 679.03 426 676C426.427 673.857 426.427 673.857 426.438 671.563C426.477 670.801 426.517 670.039 426.559 669.254C425.714 665.844 423.884 664.916 421 663C418.677 661.774 416.375 660.611 414 659.5C406.787 656.125 401.02 652.751 398 645C397.452 642.204 397.378 639.531 397.438 636.688C397.448 635.941 397.459 635.195 397.471 634.426C397.806 625.848 400.605 619.955 406.875 614.063C419.381 604.128 442.751 604.167 456 613Z" fill="white"/>
<path d="M429.575 454.855C430.449 454.848 431.323 454.842 432.224 454.835C433.619 454.834 433.619 454.834 435.043 454.832C436.49 454.827 436.49 454.827 437.967 454.822C440 454.817 442.033 454.815 444.066 454.815C447.187 454.812 450.307 454.794 453.428 454.775C455.404 454.772 457.38 454.77 459.355 454.77C460.292 454.762 461.228 454.755 462.193 454.748C463.058 454.751 463.922 454.754 464.813 454.757C465.575 454.756 466.338 454.754 467.123 454.753C469 455 469 455 471 457C471.23 460.004 471.23 460.004 471.188 463.562C471.181 464.739 471.175 465.916 471.168 467.129C471 470 471 470 470 471C467.552 471.088 465.132 471.115 462.684 471.098C461.953 471.096 461.221 471.095 460.468 471.093C458.125 471.088 455.781 471.075 453.438 471.062C451.852 471.057 450.267 471.053 448.682 471.049C444.788 471.038 440.894 471.02 437 471C437 474.96 437 478.92 437 483C438.446 482.992 438.446 482.992 439.922 482.984C443.487 482.966 447.052 482.955 450.617 482.945C452.162 482.94 453.707 482.933 455.253 482.925C457.469 482.912 459.686 482.907 461.902 482.902C462.597 482.897 463.292 482.892 464.008 482.887C465.672 482.886 467.337 482.938 469 483C470 484 470 484 470.133 487.125C470.13 488.404 470.128 489.682 470.125 491C470.129 492.918 470.129 492.918 470.133 494.875C470 498 470 498 469 499C466.624 499.088 464.278 499.115 461.902 499.098C460.839 499.096 460.839 499.096 459.754 499.093C457.482 499.088 455.21 499.075 452.938 499.062C451.4 499.057 449.863 499.053 448.326 499.049C444.551 499.038 440.775 499.02 437 499C437 503.29 437 507.58 437 512C437.994 511.995 438.989 511.99 440.013 511.984C443.69 511.966 447.367 511.955 451.044 511.945C452.638 511.94 454.232 511.933 455.825 511.925C458.112 511.912 460.398 511.907 462.684 511.902C463.4 511.897 464.117 511.892 464.855 511.887C466.571 511.886 468.286 511.938 470 512C471 513 471 513 471.133 516.125C471.13 517.404 471.128 518.682 471.125 520C471.129 521.918 471.129 521.918 471.133 523.875C471 527 471 527 470 528C468.471 528.098 466.937 528.128 465.404 528.129C463.938 528.134 463.938 528.134 462.442 528.139C461.378 528.137 460.315 528.135 459.219 528.133C457.593 528.134 457.593 528.134 455.934 528.136C453.638 528.136 451.341 528.135 449.044 528.13C445.515 528.125 441.986 528.13 438.457 528.137C436.232 528.136 434.007 528.135 431.781 528.133C430.718 528.135 429.654 528.137 428.558 528.139C427.581 528.136 426.603 528.133 425.596 528.129C424.73 528.129 423.865 528.128 422.974 528.127C421 528 421 528 420 527C419.906 524.791 419.883 522.58 419.886 520.369C419.886 519.676 419.886 518.984 419.886 518.27C419.887 515.97 419.895 513.671 419.902 511.371C419.904 509.781 419.906 508.19 419.907 506.6C419.91 502.406 419.92 498.212 419.931 494.018C419.942 489.742 419.946 485.466 419.951 481.189C419.962 472.793 419.979 464.396 420 456C423.242 455.281 426.256 454.871 429.575 454.855Z" fill="white"/>
<path d="M105.668 607.867C106.726 607.866 107.783 607.865 108.873 607.863C109.967 607.867 111.061 607.871 112.188 607.875C113.293 607.871 114.398 607.867 115.537 607.863C117.118 607.865 117.118 607.865 118.73 607.867C119.694 607.868 120.657 607.869 121.649 607.871C124 608 124 608 126 609C126 638.37 126 667.74 126 698C115.77 698 105.54 698 95 698C95 668.63 95 639.26 95 609C98.8507 608.23 101.819 607.872 105.668 607.867Z" fill="white"/>
<path d="M537.062 454.75C537.92 454.724 538.777 454.698 539.66 454.672C542.635 455.089 543.123 455.67 545 458C546.113 460.334 547.118 462.631 548.074 465.027C548.502 466.072 548.502 466.072 548.938 467.139C549.862 469.402 550.775 471.67 551.688 473.938C552.32 475.494 552.954 477.05 553.588 478.606C555.402 483.066 557.204 487.532 559 492C559.447 493.111 559.894 494.222 560.354 495.367C561.741 498.82 563.126 502.274 564.497 505.734C566.622 511.1 568.855 516.408 571.188 521.688C572 524 572 524 572 528C566.39 528 560.78 528 555 528C550.125 517.375 550.125 517.375 549 514C540.42 514 531.84 514 523 514C520.03 520.93 520.03 520.93 517 528C511.39 528 505.78 528 500 528C500.774 523.357 501.599 520.052 503.293 515.781C503.756 514.609 504.218 513.436 504.695 512.228C505.192 510.985 505.69 509.742 506.188 508.5C506.694 507.224 507.2 505.947 507.706 504.671C510.576 497.448 513.542 490.28 516.668 483.164C518.27 479.358 519.7 475.501 521.125 471.625C525.26 460.476 525.26 460.476 528 456C530.962 454.889 533.919 454.807 537.062 454.75ZM535 479C532.69 485.27 530.38 491.54 528 498C532.95 498 537.9 498 543 498C542.144 492.862 541.136 489.709 538.938 485.125C538.39 483.973 537.842 482.82 537.277 481.633C536.856 480.764 536.434 479.895 536 479C535.67 479 535.34 479 535 479Z" fill="white"/>
<path d="M132.51 454.855C133.444 454.848 134.379 454.842 135.341 454.835C136.353 454.834 137.364 454.833 138.406 454.832C139.442 454.829 140.478 454.825 141.545 454.822C143.737 454.817 145.929 454.815 148.122 454.815C151.486 454.812 154.85 454.794 158.215 454.775C160.341 454.772 162.467 454.77 164.594 454.77C166.111 454.759 166.111 454.759 167.659 454.748C168.593 454.751 169.528 454.754 170.49 454.757C171.315 454.756 172.139 454.754 172.989 454.753C175 455 175 455 177 457C177.195 460.039 177.195 460.039 177.125 463.625C177.107 464.814 177.089 466.002 177.07 467.227C177.047 468.142 177.024 469.057 177 470C173.988 471.506 170.887 471.122 167.586 471.098C166.856 471.096 166.127 471.095 165.375 471.093C163.042 471.088 160.708 471.075 158.375 471.062C156.794 471.057 155.214 471.053 153.633 471.049C149.755 471.038 145.878 471.021 142 471C142 474.96 142 478.92 142 483C143.492 482.992 143.492 482.992 145.013 482.984C148.69 482.966 152.367 482.955 156.044 482.945C157.638 482.94 159.232 482.933 160.825 482.925C163.112 482.912 165.398 482.907 167.684 482.902C168.4 482.897 169.117 482.892 169.855 482.887C171.571 482.886 173.286 482.938 175 483C176 484 176 484 176.133 487.125C176.13 488.404 176.128 489.682 176.125 491C176.129 492.918 176.129 492.918 176.133 494.875C176 498 176 498 175 499C172.552 499.088 170.132 499.115 167.684 499.098C166.953 499.096 166.221 499.095 165.468 499.093C163.125 499.088 160.781 499.075 158.438 499.062C156.852 499.057 155.267 499.053 153.682 499.049C149.788 499.038 145.894 499.02 142 499C142.008 500.264 142.008 500.264 142.016 501.554C142.033 504.672 142.045 507.79 142.055 510.908C142.06 512.259 142.067 513.61 142.075 514.962C142.088 516.9 142.093 518.839 142.098 520.777C142.106 522.529 142.106 522.529 142.114 524.316C142 527 142 527 141 528C136.05 528 131.1 528 126 528C126 504.24 126 480.48 126 456C128.381 454.81 129.853 454.867 132.51 454.855Z" fill="white"/>
<path d="M337.152 454.741C338.227 454.735 339.301 454.729 340.408 454.722C342.155 454.728 342.155 454.728 343.937 454.734C345.129 454.732 346.32 454.731 347.547 454.729C350.069 454.727 352.59 454.731 355.112 454.739C358.984 454.75 362.855 454.739 366.727 454.727C369.172 454.728 371.617 454.73 374.062 454.734C375.227 454.73 376.392 454.726 377.592 454.722C379.203 454.732 379.203 454.732 380.848 454.741C382.271 454.744 382.271 454.744 383.723 454.746C386 455 386 455 388 457C388.266 459.75 388.266 459.75 388.25 463C388.258 464.609 388.258 464.609 388.266 466.25C388 469 388 469 386 471C384.029 471.227 384.029 471.227 381.648 471.195C380.798 471.189 379.947 471.182 379.07 471.176C377.736 471.151 377.736 471.151 376.375 471.125C375.029 471.111 375.029 471.111 373.656 471.098C371.437 471.074 369.219 471.041 367 471C367.002 471.699 367.004 472.399 367.007 473.119C367.027 479.697 367.042 486.275 367.052 492.853C367.057 496.235 367.064 499.617 367.075 502.999C367.088 506.883 367.093 510.768 367.098 514.652C367.103 515.872 367.108 517.092 367.113 518.349C367.113 519.47 367.113 520.591 367.114 521.746C367.116 522.738 367.118 523.731 367.12 524.754C367 527 367 527 366 528C361.05 528 356.1 528 351 528C351 509.19 351 490.38 351 471C344.4 471 337.8 471 331 471C329.128 469.128 329.826 466.063 329.812 463.562C329.798 462.388 329.784 461.214 329.77 460.004C330.172 454.761 332.508 454.749 337.152 454.741Z" fill="white"/>
<path d="M231.691 455.27C234 456 234 456 235 457C235.1 459.173 235.128 461.349 235.129 463.523C235.131 464.205 235.133 464.886 235.135 465.588C235.139 467.85 235.136 470.113 235.133 472.375C235.133 473.941 235.134 475.506 235.136 477.072C235.137 480.357 235.135 483.642 235.13 486.928C235.125 491.148 235.128 495.369 235.134 499.589C235.138 502.823 235.136 506.057 235.134 509.291C235.133 510.848 235.134 512.405 235.136 513.961C235.139 516.133 235.135 518.305 235.129 520.477C235.129 521.715 235.128 522.953 235.127 524.229C235 527 235 527 234 528C231.489 528.1 229.011 528.139 226.5 528.125C225.797 528.129 225.095 528.133 224.371 528.137C219.127 528.127 219.127 528.127 218 527C217.878 525.589 217.822 524.172 217.795 522.756C217.775 521.855 217.755 520.954 217.734 520.026C217.718 519.047 217.701 518.067 217.684 517.059C217.663 516.061 217.642 515.064 217.621 514.036C217.555 510.837 217.496 507.637 217.438 504.437C217.394 502.274 217.351 500.111 217.307 497.947C217.199 492.632 217.098 487.316 217 482C216.588 482.66 216.175 483.32 215.75 484C215.173 484.66 214.595 485.32 214 486C210 486 210 486 208.078 484.391C207.173 483.331 207.173 483.331 206.25 482.25C205.636 481.554 205.023 480.858 204.391 480.141C203 478 203 478 203 474C209.678 464.272 219.138 453.436 231.691 455.27Z" fill="white"/>
<path d="M342 609C342 638.37 342 667.74 342 698C339.36 698 336.72 698 334 698C334 668.63 334 639.26 334 609C336 608 336 608 342 609Z" fill="#303030"/>
<path d="M429.575 454.855C430.449 454.848 431.323 454.842 432.224 454.835C433.619 454.834 433.619 454.834 435.043 454.832C436.49 454.827 436.49 454.827 437.967 454.822C440 454.817 442.033 454.815 444.066 454.815C447.187 454.812 450.307 454.794 453.428 454.775C455.404 454.772 457.38 454.77 459.355 454.77C460.292 454.762 461.228 454.755 462.193 454.748C463.058 454.751 463.922 454.754 464.813 454.757C465.575 454.756 466.338 454.754 467.123 454.753C469 455 469 455 471 457C471.23 460.004 471.23 460.004 471.188 463.562C471.181 464.739 471.175 465.916 471.168 467.129C471 470 471 470 470 471C467.552 471.088 465.132 471.115 462.684 471.098C461.953 471.096 461.221 471.095 460.468 471.093C458.125 471.088 455.781 471.075 453.438 471.062C451.852 471.057 450.267 471.053 448.682 471.049C444.788 471.038 440.894 471.02 437 471C437 474.96 437 478.92 437 483C438.446 482.992 438.446 482.992 439.922 482.984C443.487 482.966 447.052 482.955 450.617 482.945C452.162 482.94 453.707 482.933 455.253 482.925C457.469 482.912 459.686 482.907 461.902 482.902C462.597 482.897 463.292 482.892 464.008 482.887C465.672 482.886 467.337 482.938 469 483C470 484 470 484 470.133 487.125C470.13 488.404 470.128 489.682 470.125 491C470.129 492.918 470.129 492.918 470.133 494.875C470 498 470 498 469 499C466.624 499.088 464.278 499.115 461.902 499.098C460.839 499.096 460.839 499.096 459.754 499.093C457.482 499.088 455.21 499.075 452.938 499.062C451.4 499.057 449.863 499.053 448.326 499.049C444.551 499.038 440.775 499.02 437 499C437 503.29 437 507.58 437 512C437.994 511.995 438.989 511.99 440.013 511.984C443.69 511.966 447.367 511.955 451.044 511.945C452.638 511.94 454.232 511.933 455.825 511.925C458.112 511.912 460.398 511.907 462.684 511.902C463.4 511.897 464.117 511.892 464.855 511.887C466.571 511.886 468.286 511.938 470 512C471 513 471 513 471.133 516.125C471.13 517.404 471.128 518.682 471.125 520C471.129 521.918 471.129 521.918 471.133 523.875C471 527 471 527 470 528C468.471 528.098 466.937 528.128 465.404 528.129C463.938 528.134 463.938 528.134 462.442 528.139C461.378 528.137 460.315 528.135 459.219 528.133C457.593 528.134 457.593 528.134 455.934 528.136C453.638 528.136 451.341 528.135 449.044 528.13C445.515 528.125 441.986 528.13 438.457 528.137C436.232 528.136 434.007 528.135 431.781 528.133C430.718 528.135 429.654 528.137 428.558 528.139C427.581 528.136 426.603 528.133 425.596 528.129C424.73 528.129 423.865 528.128 422.974 528.127C421 528 421 528 420 527C419.906 524.791 419.883 522.58 419.886 520.369C419.886 519.676 419.886 518.984 419.886 518.27C419.887 515.97 419.895 513.671 419.902 511.371C419.904 509.781 419.906 508.19 419.907 506.6C419.91 502.406 419.92 498.212 419.931 494.018C419.942 489.742 419.946 485.466 419.951 481.189C419.962 472.793 419.979 464.396 420 456C423.242 455.281 426.256 454.871 429.575 454.855ZM421 457C421 480.1 421 503.2 421 527C436.84 527 452.68 527 469 527C469 522.71 469 518.42 469 514C458.11 514 447.22 514 436 514C436 508.39 436 502.78 436 497C446.56 497 457.12 497 468 497C468 493.04 468 489.08 468 485C457.44 484.67 446.88 484.34 436 484C436 479.38 436 474.76 436 470C446.89 469.67 457.78 469.34 469 469C469 465.04 469 461.08 469 457C453.16 457 437.32 457 421 457Z" fill="#A1A2A2"/>
<path d="M132.51 454.855C133.444 454.848 134.379 454.842 135.341 454.835C136.353 454.834 137.364 454.833 138.406 454.832C139.442 454.829 140.478 454.825 141.545 454.822C143.737 454.817 145.929 454.815 148.122 454.815C151.486 454.812 154.85 454.794 158.215 454.775C160.341 454.772 162.467 454.77 164.594 454.77C166.111 454.759 166.111 454.759 167.659 454.748C168.593 454.751 169.528 454.754 170.49 454.757C171.315 454.756 172.139 454.754 172.989 454.753C175 455 175 455 177 457C177.195 460.039 177.195 460.039 177.125 463.625C177.107 464.814 177.089 466.002 177.07 467.227C177.047 468.142 177.024 469.057 177 470C173.988 471.506 170.887 471.122 167.586 471.098C166.856 471.096 166.127 471.095 165.375 471.093C163.042 471.088 160.708 471.075 158.375 471.062C156.794 471.057 155.214 471.053 153.633 471.049C149.755 471.038 145.878 471.021 142 471C142 474.96 142 478.92 142 483C143.492 482.992 143.492 482.992 145.013 482.984C148.69 482.966 152.367 482.955 156.044 482.945C157.638 482.94 159.232 482.933 160.825 482.925C163.112 482.912 165.398 482.907 167.684 482.902C168.4 482.897 169.117 482.892 169.855 482.887C171.571 482.886 173.286 482.938 175 483C176 484 176 484 176.133 487.125C176.13 488.404 176.128 489.682 176.125 491C176.129 492.918 176.129 492.918 176.133 494.875C176 498 176 498 175 499C172.552 499.088 170.132 499.115 167.684 499.098C166.953 499.096 166.221 499.095 165.468 499.093C163.125 499.088 160.781 499.075 158.438 499.062C156.852 499.057 155.267 499.053 153.682 499.049C149.788 499.038 145.894 499.02 142 499C142.008 500.264 142.008 500.264 142.016 501.554C142.033 504.672 142.045 507.79 142.055 510.908C142.06 512.259 142.067 513.61 142.075 514.962C142.088 516.9 142.093 518.839 142.098 520.777C142.106 522.529 142.106 522.529 142.114 524.316C142 527 142 527 141 528C136.05 528 131.1 528 126 528C126 504.24 126 480.48 126 456C128.381 454.81 129.853 454.867 132.51 454.855ZM127 457C127 480.1 127 503.2 127 527C131.62 527 136.24 527 141 527C141.33 517.43 141.66 507.86 142 498C152.56 497.67 163.12 497.34 174 497C174 493.04 174 489.08 174 485C163.11 485 152.22 485 141 485C141.33 480.05 141.66 475.1 142 470C152.89 469.67 163.78 469.34 175 469C175 465.04 175 461.08 175 457C159.16 457 143.32 457 127 457Z" fill="#9E9E9E"/>
<path d="M148.011 607.753C149.248 607.755 149.248 607.755 150.51 607.757C151.444 607.754 152.379 607.751 153.341 607.748C154.353 607.755 155.364 607.762 156.406 607.77C157.442 607.77 158.478 607.77 159.545 607.771C161.737 607.774 163.929 607.782 166.122 607.794C169.486 607.812 172.85 607.815 176.215 607.814C178.341 607.819 180.467 607.825 182.594 607.832C183.605 607.833 184.617 607.834 185.659 607.835C186.593 607.842 187.528 607.848 188.49 607.855C189.315 607.859 190.139 607.862 190.989 607.866C193 608 193 608 195 609C195 618.9 195 628.8 195 639C185.43 639.33 175.86 639.66 166 640C165.67 648.91 165.34 657.82 165 667C167.082 666.988 169.164 666.977 171.309 666.965C173.317 666.958 175.326 666.951 177.335 666.945C178.735 666.94 180.135 666.933 181.534 666.925C183.542 666.912 185.551 666.907 187.559 666.902C189.373 666.894 189.373 666.894 191.224 666.886C194 667 194 667 195 668C195.088 670.219 195.107 672.44 195.098 674.66C195.096 675.325 195.095 675.989 195.093 676.674C195.088 678.803 195.075 680.933 195.062 683.062C195.057 684.503 195.053 685.944 195.049 687.385C195.038 690.923 195.021 694.462 195 698C187.898 698.025 180.795 698.043 173.693 698.055C171.274 698.06 168.856 698.067 166.438 698.075C162.97 698.087 159.503 698.093 156.035 698.098C154.947 698.103 153.858 698.108 152.737 698.113C151.235 698.113 151.235 698.113 149.703 698.114C148.374 698.117 148.374 698.117 147.018 698.12C145 698 145 698 144 697C143.858 693.997 143.958 691.008 144 688C141.03 688 138.06 688 135 688C135 664.9 135 641.8 135 618C137.97 618 140.94 618 144 618C143.959 616.721 143.918 615.442 143.875 614.125C143.805 611.945 143.805 611.945 144 610C146 608 146 608 148.011 607.753ZM146 610C145.67 612.97 145.34 615.94 145 619C140.545 619.495 140.545 619.495 136 620C136 642.11 136 664.22 136 687C138.97 687.33 141.94 687.66 145 688C145.33 690.97 145.66 693.94 146 697C161.84 697 177.68 697 194 697C194 687.76 194 678.52 194 669C184.43 668.67 174.86 668.34 165 668C165 658.43 165 648.86 165 639C174.57 638.67 184.14 638.34 194 638C194 628.76 194 619.52 194 610C178.16 610 162.32 610 146 610Z" fill="#808080"/>
<path d="M264 453C269.137 454.813 271.565 457.13 274 462C274.62 466.338 274.334 468.379 272.25 472.25C269.668 475.406 267.722 477.659 263.633 478.469C259.311 478.523 256.005 478.549 252.5 475.813C249.592 472.541 248.082 470.507 247.938 466.082C248.179 462.052 248.735 460.321 251.375 457.125C255.919 453.447 258.128 452.502 264 453ZM254 459C252.039 461.941 251.688 462.681 251.625 466C251.597 466.681 251.568 467.361 251.539 468.063C251.927 470.612 251.927 470.612 256 473C256.33 468.38 256.66 463.76 257 459C259.31 459 261.62 459 264 459C266 461 266 461 266.125 464.125C266.084 465.074 266.043 466.023 266 467C265.01 467.495 265.01 467.495 264 468C265.32 469.65 266.64 471.3 268 473C270.684 468.975 270.675 465.728 270 461C267.875 457.599 266.431 457.117 262.562 456.063C258.57 455.992 257.081 456.535 254 459ZM259 461C259 462.32 259 463.64 259 465C260.65 464.67 262.3 464.34 264 464C263.67 463.01 263.34 462.02 263 461C261.68 461 260.36 461 259 461ZM259 468C259 469.65 259 471.3 259 473C258.01 473.33 257.02 473.66 256 474C258.763 475.381 260.947 475.191 264 475C264.66 474.34 265.32 473.68 266 473C265.01 473 264.02 473 263 473C262.34 471.35 261.68 469.7 261 468C260.34 468 259.68 468 259 468Z" fill="white"/>
<path d="M436 484C447.22 484 458.44 484 470 484C470 488.62 470 493.24 470 498C469 499 469 499 465.949 499.114C464.6 499.113 463.251 499.108 461.902 499.098C460.839 499.096 460.839 499.096 459.754 499.093C457.482 499.088 455.21 499.075 452.938 499.062C451.4 499.057 449.863 499.053 448.326 499.049C444.551 499.038 440.775 499.021 437 499C437 503.29 437 507.58 437 512C438.492 511.992 438.492 511.992 440.013 511.984C443.69 511.966 447.367 511.955 451.044 511.945C452.638 511.94 454.232 511.933 455.825 511.925C458.112 511.912 460.398 511.907 462.684 511.902C463.4 511.897 464.117 511.892 464.855 511.887C466.571 511.887 468.286 511.938 470 512C471 513 471 513 471.133 516.125C471.13 517.404 471.128 518.683 471.125 520C471.129 521.918 471.129 521.918 471.133 523.875C471 527 471 527 470 528C468.465 528.093 466.926 528.117 465.388 528.114C464.407 528.113 463.427 528.113 462.416 528.113C461.349 528.108 460.283 528.103 459.184 528.098C457.554 528.096 457.554 528.096 455.892 528.093C452.407 528.088 448.922 528.075 445.438 528.062C443.081 528.057 440.725 528.053 438.369 528.049C432.579 528.038 426.79 528.021 421 528C421 527.67 421 527.34 421 527C436.84 527 452.68 527 469 527C469 522.71 469 518.42 469 514C458.11 514 447.22 514 436 514C436 508.39 436 502.78 436 497C446.56 497 457.12 497 468 497C468 493.04 468 489.08 468 485C457.44 485 446.88 485 436 485C436 484.67 436 484.34 436 484Z" fill="#959595"/>
<path d="M221 456C223.146 455.973 225.292 455.954 227.438 455.938C228.632 455.926 229.827 455.914 231.059 455.902C234 456 234 456 235 457C235.1 459.173 235.128 461.349 235.129 463.523C235.131 464.205 235.133 464.886 235.135 465.588C235.139 467.85 235.136 470.113 235.133 472.375C235.133 473.941 235.136 477.072 235.136 477.072C235.136 477.072 235.135 483.642 235.13 486.928C235.125 491.148 235.128 495.369 235.134 499.589C235.138 502.823 235.136 506.057 235.134 509.291C235.133 510.848 235.134 512.405 235.136 513.961C235.139 516.133 235.135 518.305 235.129 520.477C235.129 521.715 235.128 522.953 235.127 524.229C235 527 235 527 234 528C231.489 528.1 229.011 528.139 226.5 528.125C225.797 528.129 225.095 528.133 224.371 528.137C219.127 528.127 219.127 528.127 218 527C217.878 525.497 217.822 523.988 217.795 522.48C217.775 521.519 217.755 520.558 217.734 519.568C217.718 518.524 217.701 517.479 217.684 516.402C217.663 515.338 217.642 514.274 217.621 513.178C217.555 509.765 217.496 506.351 217.438 502.938C217.394 500.63 217.351 498.322 217.307 496.014C217.199 490.343 217.098 484.671 217 479C217.99 479 218.98 479 220 479C220 494.51 220 510.02 220 526C224.29 526 228.58 526 233 526C233 503.23 233 480.46 233 457C229.04 457 225.08 457 221 457C221 456.67 221 456.34 221 456Z" fill="#8A8A8A"/>
<path d="M337.152 454.741C338.227 454.735 339.301 454.729 340.408 454.722C342.155 454.728 342.155 454.728 343.937 454.734C345.129 454.732 346.32 454.731 347.547 454.729C350.069 454.727 352.59 454.731 355.112 454.739C358.984 454.75 362.855 454.739 366.727 454.727C369.172 454.728 371.617 454.73 374.062 454.734C375.227 454.73 376.392 454.726 377.592 454.722C379.203 454.732 379.203 454.732 380.848 454.741C382.271 454.744 382.271 454.744 383.723 454.746C386 455 386 455 388 457C388.195 459.82 388.195 459.82 388.125 463.125C388.107 464.221 388.089 465.316 388.07 466.445C388.047 467.288 388.024 468.131 388 469C387.34 469.33 386.68 469.66 386 470C386 465.71 386 461.42 386 457C368.18 457 350.36 457 332 457C332 460.96 332 464.92 332 469C333.36 468.988 334.72 468.977 336.121 468.965C337.893 468.955 339.665 468.946 341.437 468.938C342.784 468.925 342.784 468.925 344.158 468.912C345.012 468.909 345.866 468.906 346.746 468.902C347.537 468.897 348.328 468.892 349.142 468.886C351 469 351 469 352 470C352.094 471.78 352.117 473.564 352.114 475.346C352.113 476.487 352.113 477.628 352.113 478.804C352.108 480.045 352.103 481.287 352.098 482.566C352.096 483.83 352.095 485.094 352.093 486.396C352.089 489.761 352.08 493.126 352.069 496.492C352.058 499.923 352.054 503.355 352.049 506.787C352.038 513.525 352.02 520.262 352 527C356.62 527 361.24 527 366 527C366 527.33 366 527.66 366 528C361.05 528 356.1 528 351 528C351 509.19 351 490.38 351 471C344.4 471 337.8 471 331 471C329.128 469.128 329.826 466.063 329.812 463.562C329.798 462.388 329.784 461.214 329.77 460.004C330.172 454.761 332.508 454.749 337.152 454.741Z" fill="#939393"/>
<path d="M604 457C604.33 457 604.66 457 605 457C605 479.77 605 502.54 605 526C608.96 526 612.92 526 617 526C617 513.79 617 501.58 617 489C617.99 489 618.98 489 620 489C620 490.32 620 491.64 620 493C620.66 493 621.32 493 622 493C622.698 494.934 623.383 496.872 624.062 498.812C624.445 499.891 624.828 500.97 625.223 502.082C626 505 626 505 625 508C622.525 501.565 622.525 501.565 620 495C619.67 505.56 619.34 516.12 619 527C614.05 527 609.1 527 604 527C604 503.9 604 480.8 604 457Z" fill="#525252"/>
<path d="M141 484C152.55 484 164.1 484 176 484C176 488.62 176 493.24 176 498C175 499 175 499 171.857 499.114C170.466 499.113 169.075 499.108 167.684 499.098C166.953 499.096 166.221 499.095 165.468 499.093C163.125 499.088 160.781 499.075 158.438 499.062C156.852 499.057 155.267 499.053 153.682 499.049C149.788 499.039 145.894 499.019 142 499C142 508.24 142 517.48 142 527C141.67 527 141.34 527 141 527C140.975 522.888 140.957 518.777 140.945 514.665C140.94 513.265 140.933 511.865 140.925 510.466C140.912 508.458 140.907 506.449 140.902 504.441C140.897 503.232 140.892 502.022 140.886 500.776C141 498 141 498 142 497C144.376 496.912 146.722 496.885 149.098 496.902C150.161 496.904 150.161 496.904 151.246 496.907C153.518 496.912 155.79 496.925 158.062 496.938C159.6 496.943 161.137 496.947 162.674 496.951C166.449 496.962 170.225 496.979 174 497C174 493.04 174 489.08 174 485C163.11 485 152.22 485 141 485C141 484.67 141 484.34 141 484Z" fill="#7F7F7F"/>
<path d="M510 665C510.33 665 510.66 665 511 665C511.025 669.057 511.043 673.114 511.055 677.17C511.06 678.55 511.067 679.929 511.075 681.308C511.088 683.294 511.093 685.28 511.098 687.266C511.103 688.46 511.108 689.654 511.114 690.884C511 694 511 694 510 698C503.73 698 497.46 698 491 698C490.875 685.25 490.875 685.25 492 683C483.42 683.33 474.84 683.66 466 684C466 683.34 466 682.68 466 682C474.91 682 483.82 682 493 682C493 686.62 493 691.24 493 696C498.28 696 503.56 696 509 696C508.979 694.226 508.959 692.452 508.938 690.625C508.928 682.064 509.463 673.542 510 665Z" fill="#848484"/>
<path d="M664.5 454.875C665.19 454.871 665.879 454.867 666.59 454.863C671.747 454.873 671.747 454.873 674 456C674 479.1 674 502.2 674 526C673.67 526 673.34 526 673 526C673 503.23 673 480.46 673 457C667.39 457 661.78 457 656 457C655.752 458.402 655.505 459.805 655.25 461.25C654.38 465.255 653.342 467.437 650 470C650.642 465.021 652.6 460.383 655 456C658.034 454.483 661.176 454.856 664.5 454.875Z" fill="#B7B7B7"/>
<path d="M656 489C656.99 489 657.98 489 659 489C659 501.21 659 513.42 659 526C663.62 526 668.24 526 673 526C673 526.66 673 527.32 673 528C670.521 528.027 668.042 528.047 665.562 528.062C664.855 528.071 664.148 528.079 663.42 528.088C661.613 528.097 659.806 528.052 658 528C656.088 526.088 656.756 522.664 656.684 520.121C656.663 519.434 656.642 518.748 656.621 518.04C656.555 515.839 656.496 513.639 656.438 511.438C656.394 509.949 656.351 508.46 656.307 506.971C656.199 503.314 656.098 499.657 656 496C655.34 496.99 654.68 497.98 654 499C654.458 495.531 654.891 492.326 656 489Z" fill="#919191"/>
<path d="M260.375 457.75C264 458 264 458 266 459.125C267.501 461.939 266.695 463.968 266 467C266 467.99 266 468.98 266 470C266 470.66 266 471.32 266 472C262.73 471.436 261.174 470.5 259 468C259 469.65 259 471.3 259 473C258.01 473 257.02 473 256 473C255.973 470.688 255.954 468.375 255.938 466.062C255.926 464.775 255.914 463.487 255.902 462.16C256.029 458.072 256.029 458.072 260.375 457.75ZM259 461C259 462.32 259 463.64 259 465C260.65 464.67 262.3 464.34 264 464C263.67 463.01 263.34 462.02 263 461C261.68 461 260.36 461 259 461Z" fill="white"/>
<path d="M135.776 30.8865C136.985 30.8917 138.195 30.8969 139.441 30.9023C140.747 30.9056 142.052 30.9088 143.396 30.9121C144.785 30.9205 146.174 30.9289 147.562 30.9375C148.955 30.9425 150.348 30.9471 151.74 30.9512C155.16 30.963 158.58 30.9795 162 31C162 31.66 162 32.32 162 33C160.869 32.9536 159.739 32.9072 158.574 32.8594C139.343 32.3297 119.899 34.5943 101.746 41.1445C99 42 99 42 97 41C104.783 36.976 111.972 34.942 120.625 33.75C122.763 33.4354 124.902 33.1179 127.039 32.7969C127.969 32.6664 128.9 32.5358 129.858 32.4014C132.69 31.8707 132.687 31.0128 135.776 30.8865Z" fill="#7E7E7E"/>
<path d="M234 263C234.33 263 234.66 263 235 263C238.61 279.308 235.578 296.254 231 312C230.67 312 230.34 312 230 312C230.467 307.455 230.975 302.952 231.754 298.449C233.798 286.529 234.347 275.082 234 263Z" fill="#8B8B8B"/>
<path d="M672.77 124.125C678.702 125.831 683.832 127.594 689 131C687 132 687 132 684.574 131.223C682.657 130.452 680.741 129.681 678.824 128.91C675.937 127.98 674.001 127.583 671 128C669.08 129.316 669.08 129.316 667.5 131.188C666.911 131.822 666.322 132.456 665.715 133.109C665.149 133.733 664.583 134.357 664 135C663.027 135.985 662.049 136.965 661.062 137.938C660.382 138.618 659.701 139.299 659 140C658.34 139.67 657.68 139.34 657 139C658.414 137.248 659.831 135.498 661.25 133.75C662.039 132.775 662.828 131.801 663.641 130.797C664.419 129.874 665.198 128.951 666 128C666.638 127.201 667.276 126.402 667.934 125.578C670 124 670 124 672.77 124.125Z" fill="#717272"/>
<path d="M268 273C268.33 273 268.66 273 269 273C268.992 274.354 268.992 274.354 268.984 275.735C268.967 279.11 268.955 282.485 268.945 285.86C268.94 287.316 268.933 288.772 268.925 290.227C268.912 292.33 268.907 294.432 268.902 296.535C268.894 298.428 268.894 298.428 268.886 300.36C268.999 303.977 269.419 307.431 270 311C270.66 311 271.32 311 272 311C272 312.65 272 314.3 272 316C265.022 307.361 265.146 296.527 266.209 285.909C266.709 281.591 267.326 277.294 268 273Z" fill="#7C7C7C"/>
<path d="M772 176C772 176.33 772 176.66 772 177C771.417 176.984 770.835 176.969 770.234 176.952C758.86 176.687 748.225 176.843 737.117 179.441C734.223 179.96 732.708 180.017 730 179C744.026 173.918 757.356 172.298 772 176Z" fill="#7E7E7E"/>
<path d="M330 208C330.66 208 331.32 208 332 208C330.916 215.787 329.194 223.174 326.953 230.707C325.775 234.776 324.858 238.853 324 243C323.67 243 323.34 243 323 243C322.848 238.102 323.308 233.931 324.531 229.191C324.847 227.951 325.163 226.71 325.488 225.432C325.989 223.516 325.989 223.516 326.5 221.562C326.838 220.246 327.175 218.929 327.512 217.611C328.334 214.406 329.163 211.202 330 208Z" fill="#7E7E7E"/>
<path d="M657 691C657.33 691 657.66 691 658 691C658 692.65 658 694.3 658 696C674.83 696.33 691.66 696.66 709 697C709 697.33 709 697.66 709 698C691.51 698 674.02 698 656 698C656.33 695.69 656.66 693.38 657 691Z" fill="#999999"/>
<path d="M256.848 453.902C258.898 453.935 260.949 453.967 263 454C261.68 454.33 260.36 454.66 259 455C259 455.66 259 456.32 259 457C257.345 458.019 255.677 459.018 254 460C253.67 460.66 253.34 461.32 253 462C252.34 462 251.68 462 251 462C251 464.64 251 467.28 251 470C250.01 469.34 249.02 468.68 248 468C248.369 460.741 248.369 460.741 251.5 457.062C252.325 456.382 253.15 455.701 254 455C255 454 255 454 256.848 453.902Z" fill="white"/>
<path d="M580 230C580.66 230 581.32 230 582 230C583.354 232.709 583.065 235.009 583 238C582.67 237.34 582.34 236.68 582 236C581.34 236 580.68 236 580 236C579.951 236.583 579.902 237.165 579.852 237.766C579.32 243.596 578.476 249.315 577.477 255.082C576.829 259.044 576.399 263.006 576 267C575.67 267 575.34 267 575 267C574.624 254.051 576.682 242.476 580 230Z" fill="#959595"/>
<path d="M626 508C629.025 510.555 630.206 513.37 631.688 517C632.124 518.052 632.561 519.104 633.012 520.188C634 523 634 523 634 526C636.64 526 639.28 526 642 526C642.124 525.423 642.248 524.845 642.375 524.25C643.006 521.977 643.889 520.075 645 518C645.33 518.66 645.66 519.32 646 520C643.486 526.514 643.486 526.514 642 528C635.475 528.237 635.475 528.237 633 527C630.011 520.926 627.641 514.565 626 508Z" fill="#858585"/>
<path d="M568 517C571.363 520.363 572 523.288 572 528C566.39 528 560.78 528 555 528C554.01 525.03 553.02 522.06 552 519C552.99 519.495 552.99 519.495 554 520C554.33 521.98 554.66 523.96 555 526C559.95 526 564.9 526 570 526C569.34 524.35 568.68 522.7 568 521C568 519.68 568 518.36 568 517Z" fill="#909090"/>
<path d="M56 88C56.33 88 56.66 88 57 88C56.0885 98.376 56.0885 98.376 55.4375 103.5C54.4949 112.014 54.8252 119.708 57 128C55 127 55 127 53.8867 123.918C51.4142 114.413 51.0249 96.6558 56 88Z" fill="#8A8B8B"/>
<path d="M703 195C703.66 195.33 704.32 195.66 705 196C703.13 198.067 701.254 200.129 699.375 202.188C698.853 202.766 698.331 203.344 697.793 203.939C694.413 207.633 690.916 210.878 687 214C687 208.496 692.308 204.768 696 201C698.275 198.902 700.591 196.947 703 195Z" fill="#696A6A"/>
<path d="M473 183C473.813 183.159 474.627 183.317 475.465 183.48C478.092 183.867 480.494 184.096 483.129 184.176C484.217 184.212 484.217 184.212 485.326 184.248C486.821 184.291 488.316 184.322 489.811 184.342C494.773 184.532 497.332 185.361 501 189C500.67 189.66 500.34 190.32 500 191C499.593 190.513 499.186 190.027 498.767 189.525C496.591 187.647 495.564 187.621 492.727 187.594C491.902 187.572 491.077 187.55 490.227 187.527C488.939 187.514 488.939 187.514 487.625 187.5C477.202 187.389 477.202 187.389 473 184C473 183.67 473 183.34 473 183Z" fill="#777777"/>
<path d="M38 29C38.66 29.33 39.32 29.66 40 30C34.3736 36.491 28.559 42.4489 22 48C22 42.7772 26.4908 39.5863 30 36C32.603 33.5861 35.2647 31.2624 38 29Z" fill="#525252"/>
<path d="M718 690C718.33 690 718.66 690 719 690C719 691.98 719 693.96 719 696C724.28 696 729.56 696 735 696C735.66 694.68 736.32 693.36 737 692C736.67 693.98 736.34 695.96 736 698C729.73 698 723.46 698 717 698C717.33 695.36 717.66 692.72 718 690Z" fill="#6A6A6A"/>
<path d="M504 514C505.529 518.586 503.626 521.513 502 526C506.95 526 511.9 526 517 526C517 526.66 517 527.32 517 528C511.39 528 505.78 528 500 528C500.884 522.695 502.055 518.904 504 514Z" fill="#8D8D8D"/>
<path d="M662.438 454.812C663.406 454.798 664.374 454.784 665.371 454.77C668 455 668 455 671 457C666.05 457 661.1 457 656 457C655.752 458.403 655.505 459.805 655.25 461.25C654.38 465.255 653.342 467.437 650 470C650.642 465.021 652.6 460.383 655 456C657.588 454.706 659.55 454.832 662.438 454.812Z" fill="#8D8D8D"/>
<path d="M33 257C33.66 257.33 34.32 257.66 35 258C30.2811 263.401 25.6964 268.618 20 273C20 268.936 21.5298 267.948 24.25 265C25.0389 264.134 25.8278 263.267 26.6406 262.375C28.6648 260.337 30.6502 258.638 33 257Z" fill="#5F5F5F"/>
<path d="M444 690C445.125 693.75 445.125 693.75 444 696C452.415 695.505 452.415 695.505 461 695C460.67 695.99 460.34 696.98 460 698C454.06 698 448.12 698 442 698C443 692 443 692 444 690Z" fill="#636363"/>
<path d="M520 307C520.66 307 521.32 307 522 307C522.11 307.797 522.219 308.593 522.332 309.414C523.466 317.612 523.466 317.612 527 325C527.99 325.33 528.98 325.66 530 326C530.33 326.99 530.66 327.98 531 329C527.248 328.142 525.433 326.648 523.312 323.562C520.501 318.737 519.409 313.542 519 308C519.33 307.67 519.66 307.34 520 307Z" fill="#888888"/>
<path d="M579.562 61.9375C580.769 61.9684 580.769 61.9684 582 62C580.855 63.0209 580.855 63.0209 579.688 64.0625C576.279 68.029 575.771 72.8791 574.989 77.8811C574.714 79.597 574.363 81.3004 574 83C573.34 83.33 572.68 83.66 572 84C572.283 81.4363 572.576 78.8744 572.875 76.3125C572.954 75.5913 573.032 74.87 573.113 74.127C574.546 62.0599 574.546 62.0599 579.562 61.9375Z" fill="#7C7D7D"/>
<path d="M489 270C489.66 270 490.32 270 491 270C491.66 278.25 492.32 286.5 493 295C487.936 287.404 488.778 278.79 489 270Z" fill="#838484"/>
<path d="M270 461C270.33 461 270.66 461 271 461C271 463.64 271 466.28 271 469C271.66 469 272.32 469 273 469C271.814 472.375 270.724 474.647 268 477C266.062 476.188 266.062 476.188 264 475C263.67 474.01 263.34 473.02 263 472C264.98 471.34 266.96 470.68 269 470C269.33 467.03 269.66 464.06 270 461Z" fill="white"/>
<path d="M410 263C411.213 266.638 410.619 267.99 409.562 271.625C407.709 278.624 407.176 284.931 409 292C407 291 407 291 406 288C405.558 279.103 405.556 270.922 410 263Z" fill="#7D7D7D"/>
<path d="M535 477C536.938 477.5 536.938 477.5 539 479C539.688 481.697 539.819 484.202 540 487C538.108 484.614 536.976 482.928 536 480C533.525 485.94 533.525 485.94 531 492C529.907 487.627 530.18 486.77 531.875 482.812C532.244 481.932 532.612 481.052 532.992 480.145C534 478 534 478 535 477Z" fill="#858585"/>
<path d="M459 248C459.33 248 459.66 248 460 248C460.394 255.228 459.353 261.427 455.312 267.562C454.879 268.037 454.446 268.511 454 269C455.525 261.962 457.229 254.98 459 248Z" fill="#7B7B7B"/>
<path d="M328 69C328.66 69.33 329.32 69.66 330 70C328.591 71.6317 327.173 73.2551 325.75 74.875C324.961 75.7799 324.172 76.6848 323.359 77.6172C321.253 79.7444 319.743 80.9051 317 82C319.279 76.6139 323.155 72.2298 328 69Z" fill="#666666"/>
<path d="M255 475C258.96 475 262.92 475 267 475C266.67 475.99 266.34 476.98 266 478C262.7 478 259.4 478 256 478C255.67 477.01 255.34 476.02 255 475Z" fill="white"/>
<path d="M257 458C263.36 457.64 263.36 457.64 266 459.125C267.497 461.931 266.733 464.002 266 467C265.34 466.67 264.68 466.34 264 466C263.876 465.361 263.752 464.721 263.625 464.062C263.202 461.823 263.202 461.823 261.062 460.875C260.382 460.586 259.701 460.297 259 460C258.34 459.34 257.68 458.68 257 458Z" fill="white"/>
<path d="M282 157C279.18 158.88 277.829 159.388 274.625 160C271.982 160.539 269.759 161.099 267.25 162.125C264.697 163.118 262.716 163.155 260 163C263.551 161.109 267.229 159.707 271 158.313C272.217 157.855 273.434 157.397 274.688 156.926C277.796 156.057 279.082 155.797 282 157Z" fill="#8D8E8E"/>
<path d="M338.062 321.938C339.517 321.968 339.517 321.968 341 322C338.272 324.728 335.191 325.242 331.562 326.188C330.881 326.378 330.2 326.568 329.498 326.764C326.138 327.655 324.365 328.122 321 327C324.042 325.669 327.03 324.708 330.25 323.938C333.93 323.017 334.471 322.011 338.062 321.938Z" fill="#848484"/>
<path d="M270 459C273 460 273 460 274 462C274.04 464.333 274.043 466.667 274 469C273.01 469 272.02 469 271 469C270.67 465.7 270.34 462.4 270 459Z" fill="white"/>
<path d="M410 135C413 136 413 136 415 139C414.736 143.225 414.1 145.192 411 148C411.017 146.844 411.017 146.844 411.035 145.664C411.044 144.661 411.053 143.658 411.062 142.625C411.074 141.627 411.086 140.63 411.098 139.602C411.18 137.016 411.18 137.016 410 135Z" fill="#7D7D7D"/>
<path d="M116 359C110.859 362.427 105.992 362.102 100 362C100 361.67 100 361.34 100 361C101.913 360.467 103.831 359.949 105.75 359.438C106.817 359.147 107.885 358.857 108.984 358.559C111.843 358.029 113.316 358.016 116 359Z" fill="#7E7E7E"/>
<path d="M528 259C528.33 259 528.66 259 529 259C529.077 263.516 529.102 267.591 528 272C527.34 272 526.68 272 526 272C526.141 270.395 526.288 268.791 526.438 267.188C526.519 266.294 526.6 265.401 526.684 264.48C527 262 527 262 528 259Z" fill="#878787"/>
<path d="M122.25 391.813C123.588 391.853 123.588 391.853 124.953 391.895C125.629 391.929 126.304 391.964 127 392C123.881 393.793 121.323 394.343 117.75 394.625C116.858 394.7 115.966 394.775 115.047 394.852C114.371 394.901 113.696 394.95 113 395C116.146 392.2 118.067 391.647 122.25 391.813Z" fill="#8B8C8C"/>
<path d="M255 454C257.64 454 260.28 454 263 454C261.68 454.33 260.36 454.66 259 455C259 455.66 259 456.32 259 457C257.02 457.33 255.04 457.66 253 458C253.66 456.68 254.32 455.36 255 454Z" fill="white"/>
<path d="M592 188C593.044 191.133 592.934 191.99 592 195C593.32 194.67 594.64 194.34 596 194C596 194.66 596 195.32 596 196C594.02 196.33 592.04 196.66 590 197C590.66 194.03 591.32 191.06 592 188Z" fill="#7A7A7A"/>
<path d="M410 613C408.715 615.867 407.429 617.976 405 620C404.34 620 403.68 620 403 620C406.138 613 406.138 613 410 613Z" fill="#5F5F5F"/>
<path d="M304 118C304.33 118 304.66 118 305 118C305.369 125.385 305.369 125.385 303.5 128.5C303.005 128.995 302.51 129.49 302 130C302.142 128.562 302.289 127.125 302.438 125.688C302.519 124.887 302.6 124.086 302.684 123.262C303 121 303 121 304 118Z" fill="#828282"/>
<path d="M644 311C648.429 316.143 648.429 316.143 649 320C648.34 320 647.68 320 647 320C644.568 316.633 644 315.266 644 311Z" fill="#7C7C7C"/>
<path d="M587 264C587.99 264.33 588.98 264.66 590 265C590 267.97 590 270.94 590 274C587.704 270.555 587.46 268.062 587 264Z" fill="#757676"/>
<path d="M135 231C138.735 231.498 140.812 231.875 144 234C144 234.66 144 235.32 144 236C140.225 234.909 137.53 234.092 135 231Z" fill="#7A7A7A"/>
<path d="M266 471C267.32 472.32 268.64 473.64 270 475C268.02 475.99 268.02 475.99 266 477C265.01 475.35 264.02 473.7 263 472C263.99 471.67 264.98 471.34 266 471Z" fill="white"/>
</g>
<defs>
<clipPath id="clip0_1_9">
<rect width="800" height="700" fill="white"/>
</clipPath>
</defs>
</svg>
