<svg xmlns="http://www.w3.org/2000/svg" xmlns:svg="http://www.w3.org/2000/svg" width="664.027591660954" height="150.59615181029864" viewBox="0 0 851 193" fill="none" color="#1868D8" style="height: 33px; width: 180px;" version="1.1" id="svg2">
  <g clip-path="url(#a)" id="g2">
    <path d="M244.38 131.42H257.94V191.15H244.38V131.42ZM191.42 131.41V191.14H230.77V180.33H204.96V131.41H191.41H191.42ZM374.27 163.56L345.34 130.73H343.53V191.18H356.6V169.19C356.6 162.44 356.17 159.07 356.17 159.07C356.17 159.07 358.47 162.59 360.73 165.37L373.32 180.87H375.22L387.81 165.37C390.07 162.59 392.37 159.07 392.37 159.07C392.37 159.07 391.94 162.45 391.94 169.19V191.18H405.01V130.73H403.2L374.27 163.56ZM450.07 155.33L446.99 154.01C442.98 152.31 439.42 150.4 439.42 146.7C439.42 143.71 441.12 141.76 444.73 141.76C448.34 141.76 451.46 144.03 452.91 146.97L463.06 140.92C458.78 133.47 451.87 130.5 444.42 130.5C433.42 130.5 426.56 137.72 426.37 146.95C426.16 157.22 433.47 161.85 442.36 165.63L445.44 166.95C451.07 169.41 453.72 171.28 453.61 175.01C453.51 178.53 451.16 181.08 446.05 181.08C439.98 181.08 436.4 177.74 434.26 173.17L423.53 179.31C426.44 186.04 434.48 192.23 445.97 192.23C457.46 192.23 466.73 186.21 467.12 175.13C467.46 165.58 461.06 159.66 450.07 155.32M99.29 191.15H112.84V131.42H99.29V191.15ZM151.57 131.41H138.02V191.14H177.37V180.34H151.56V131.41H151.57ZM328.63 191.06H315.61L311.72 181.5H290.26L286.37 191.06H273.35L300.01 130.8H301.96L328.62 191.06H328.63ZM307.74 171.11L302.6 157.99C301.62 155.53 300.99 153.42 300.99 153.42C300.99 153.42 300.35 155.53 299.38 157.99L294.24 171.11H300.99H307.74ZM685.75 191.15H699.3V131.42H685.75V191.15ZM659.05 171.16L658.7 171.69C654.88 177.53 650.53 180.01 644.16 180.01C634.25 180.01 627.06 172.17 627.06 161.36C627.06 150.55 634.09 142.88 644.16 142.88C650.05 142.88 654.91 145.5 657.83 150.24L658.17 150.8L668.4 143.54L668.08 143.04C662.79 134.8 654.96 130.8 644.16 130.8C626.64 130.8 613.42 143.94 613.42 161.36C613.42 178.78 626.63 192.01 644.16 192.01C654.95 192.01 663.58 187.45 669.12 178.82L669.45 178.32L659.05 171.16ZM850.33 159.27L850.3 158.68H821.73V170.42H836.17C834.65 175.35 829.44 180.1 820.81 180.1C810.75 180.1 803.45 172.22 803.45 161.37C803.45 150.52 810.55 142.89 820.72 142.89C826.76 142.89 831.26 145.41 834.48 150.6L834.83 151.16L845.31 143.72L844.99 143.22C839.59 134.87 831.65 130.81 820.72 130.81C803.1 130.81 789.82 143.95 789.82 161.37C789.82 178.79 802.89 192.02 820.9 192.02C830.09 192.02 837.65 189.19 842.76 183.82C848.23 178.08 850.85 169.6 850.34 159.28M760.16 131.46V156.6C760.16 159.23 760.03 161.69 760.25 163.98C758.82 162.18 756.94 160.56 755.09 158.81L725.58 131.11L725.4 130.94H723.33V191.21H735.84V166.07C735.84 163.36 735.98 160.88 735.73 158.61C737.17 160.4 739.01 162.07 740.9 163.85L770.41 191.55L770.59 191.72H772.66V131.46H760.15H760.16ZM540.89 191.16H525.67L513.8 170.86H507.12V191.16H493.84V131.42H516.14C530.16 131.42 538.53 138.86 538.53 151.31C538.53 159.47 534.57 165.64 527.37 168.73L540.9 191.16H540.89ZM524.88 151.31C524.88 145.8 521.99 143.24 515.78 143.24H507.11V159.46H515.78C521.99 159.46 524.88 156.87 524.88 151.3M605.6 191.06H592.58L588.69 181.5H567.23L563.34 191.06H550.32L576.98 130.8H578.93L605.59 191.06H605.6ZM584.71 171.11L579.57 157.99C578.6 155.53 577.96 153.42 577.96 153.42C577.96 153.42 577.32 155.53 576.35 157.99L571.21 171.11H577.96H584.71ZM14.08 131.41L23.63 157.09L15.75 173.8L0 131.41H14.08ZM42.2 131.41L64.39 178.55L59.72 191.14H57.52L40.97 156.02L24.42 191.14H22.22L17.54 178.55L39.73 131.41H42.21H42.2ZM81.92 131.41L66.17 173.8L58.29 157.09L67.83 131.41H81.91H81.92Z" fill="black" id="path1"/>
    <path d="M32.9 51.38C29.24 45.89 28.13 45.53 27.23 45.53C26.33 45.53 25.77 45.91 24.13 49.19L0.91 95.6C0.18 97.06 0 97.62 0 98.35C0 99.81 1.29 101.27 4.03 101.27H36.75C38.94 101.27 40.58 99.43 41.52 95.98C42.63 91.59 42.98 87.76 42.98 83.17C42.98 70.36 37.3 57.93 32.92 51.35L32.89 51.38H32.9ZM100.37 95.25L53.93 2.37C53.02 0.35 52.12 0 51 0C50.1 0 48.98 0.38 47.9 2.2C41.32 12.61 38.39 24.69 38.39 37.29C38.39 54.84 47.34 71.3 60.5 97.8C61.96 100.72 63.07 101.28 65.62 101.28H97.79C100.16 101.28 101.45 100.38 101.45 98.53C101.45 97.62 101.28 97.07 100.34 95.22L100.37 95.25ZM521.86 73.37C521.86 57.84 513.79 50.71 490.51 45.73C477.79 42.92 474.69 40.15 474.69 36.11C474.69 31.14 479.34 28.97 487.74 28.97C497.98 28.97 507.92 32.07 517.54 36.43V16.25C510.7 12.83 500.46 10.34 488.35 10.34C465.37 10.34 453.58 20.28 453.58 36.43M453.55 35.8C453.55 48.84 459.46 59.08 483.35 63.73C497.33 66.83 500.43 69 500.43 73.67C500.43 78.34 497.33 81.13 487.39 81.13C475.9 81.13 462.24 77.1 453.23 71.83V92.95C460.36 96.37 469.7 100.41 487.39 100.41C512.22 100.41 521.84 89.24 521.84 73.1M801.3 10.97L822.7 51.33L829.83 68.08V10.97H848.46V99.46H824.86L798.16 49.77L790.41 32.08V99.46H771.46V10.97H801.29H801.3ZM651.62 99.46H631.12V10.97H651.62V99.46ZM607.55 73.08C607.55 89.55 597.64 100.72 573.1 100.72C555.41 100.72 546.08 96.69 538.95 93.26V72.14C547.95 77.41 561.61 81.44 573.1 81.44C583.05 81.44 586.14 78.66 586.14 73.98C586.14 69.3 583.04 67.14 569.06 64.04C545.17 59.39 539.26 49.15 539.26 36.11C539.26 19.97 551.05 10.02 574.03 10.02C586.13 10.02 596.4 12.5 603.22 15.93V36.11C593.6 31.75 583.65 28.65 573.42 28.65C565.03 28.65 560.38 30.82 560.38 35.78C560.38 39.82 563.48 42.6 576.2 45.4C599.48 50.37 607.55 57.51 607.55 73.04V73.07V73.08ZM314.46 10.97V80.22H342.71L336.19 99.46H293.96V10.97H314.46ZM210.44 10.94H278.43V29.89H253.9V99.46H233.11V29.92H210.44V10.94ZM166.68 68.4C162.65 68.4 158.93 67.78 155.51 66.85L166.68 28.36L177.85 66.85C174.43 67.78 170.72 68.4 166.68 68.4ZM180.34 10.97H153.32L122.58 99.46H146.18L150.54 84.54C155.81 86.09 161.42 87.02 167.01 87.02C172.6 87.02 178.18 86.09 183.48 84.54L187.84 99.46H211.44C211.12 99.46 180.38 10.97 180.38 10.97H180.35H180.34ZM395.49 68.4C391.46 68.4 387.74 67.78 384.32 66.85L395.49 28.36L406.66 66.85C403.24 67.78 399.53 68.4 395.49 68.4ZM409.15 10.97H382.13L351.08 99.46H374.68L379.04 84.54C384.31 86.09 389.92 87.02 395.51 87.02C401.1 87.02 406.68 86.09 411.98 84.54L416.34 99.46H439.94L409.2 10.97H409.17H409.15ZM712.48 68.4C708.45 68.4 704.73 67.78 701.31 66.85L712.48 28.36L723.65 66.85C720.23 67.78 716.19 68.4 712.48 68.4ZM725.84 10.97H698.82L668.08 99.46H691.68L696.04 84.54C701.31 86.09 706.92 87.02 712.51 87.02C718.1 87.02 723.68 86.09 728.98 84.54L733.34 99.46H756.94L725.88 10.97H725.85H725.84Z" fill="#1868DB" id="path2"/>
  </g>
  <defs id="defs2">
    <clipPath id="a">
      <rect width="850.39" height="192.24" fill="white" id="rect2"/>
    </clipPath>
  </defs>
</svg>