<svg width="665" height="151" viewBox="0 0 665 151" fill="none" xmlns="http://www.w3.org/2000/svg">
<mask id="mask0_1_2" style="mask-type:luminance" maskUnits="userSpaceOnUse" x="0" y="0" width="664" height="151">
<path d="M663.552 0H0V150.003H663.552V0Z" fill="white"/>
</mask>
<g mask="url(#mask0_1_2)">
<path d="M190.688 102.546H201.268V149.153H190.688V102.546ZM149.363 102.538V149.145H180.068V140.71H159.928V102.538H149.355H149.363ZM292.039 127.624L269.466 102.007H268.053V149.176H278.252V132.017C278.252 126.75 277.916 124.121 277.916 124.121C277.916 124.121 279.711 126.868 281.474 129.037L291.298 141.131H292.781L302.605 129.037C304.368 126.868 306.163 124.121 306.163 124.121C306.163 124.121 305.827 126.758 305.827 132.017V149.176H316.026V102.007H314.613L292.039 127.624ZM351.186 121.203L348.782 120.173C345.653 118.846 342.875 117.356 342.875 114.469C342.875 112.136 344.202 110.614 347.019 110.614C349.836 110.614 352.27 112.385 353.402 114.679L361.322 109.959C357.982 104.145 352.59 101.828 346.777 101.828C338.194 101.828 332.841 107.462 332.693 114.664C332.529 122.677 338.233 126.29 345.169 129.24L347.573 130.27C351.966 132.189 354.034 133.648 353.948 136.559C353.87 139.305 352.036 141.295 348.049 141.295C343.312 141.295 340.519 138.689 338.849 135.123L330.477 139.914C332.747 145.165 339.021 149.995 347.986 149.995C356.952 149.995 364.185 145.298 364.49 136.652C364.755 129.201 359.761 124.581 351.186 121.195M77.4751 149.153H88.048V102.546H77.4751V149.153ZM118.269 102.538H107.696V149.145H138.4V140.718H118.261V102.538H118.269ZM256.427 149.082H246.268L243.232 141.623H226.487L223.452 149.082H213.293L234.095 102.062H235.617L256.419 149.082H256.427ZM240.127 133.516L236.116 123.278C235.351 121.359 234.86 119.712 234.86 119.712C234.86 119.712 234.36 121.359 233.604 123.278L229.593 133.516H234.86H240.127ZM535.085 149.153H545.657V102.546H535.085V149.153ZM514.251 133.555L513.978 133.968C510.997 138.525 507.603 140.46 502.632 140.46C494.9 140.46 489.289 134.343 489.289 125.908C489.289 117.473 494.775 111.488 502.632 111.488C507.228 111.488 511.02 113.532 513.299 117.231L513.564 117.668L521.546 112.003L521.297 111.613C517.169 105.183 511.059 102.062 502.632 102.062C488.962 102.062 478.646 112.315 478.646 125.908C478.646 139.5 488.954 149.824 502.632 149.824C511.052 149.824 517.785 146.266 522.108 139.532L522.366 139.141L514.251 133.555ZM663.505 124.277L663.481 123.817H641.188V132.977H652.456C651.27 136.824 647.205 140.53 640.471 140.53C632.621 140.53 626.925 134.382 626.925 125.916C626.925 117.449 632.465 111.496 640.4 111.496C645.113 111.496 648.625 113.462 651.137 117.512L651.41 117.949L659.588 112.143L659.338 111.753C655.124 105.238 648.929 102.07 640.4 102.07C626.652 102.07 616.289 112.323 616.289 125.916C616.289 139.508 626.488 149.831 640.541 149.831C647.712 149.831 653.611 147.623 657.598 143.433C661.866 138.954 663.911 132.337 663.513 124.285M593.146 102.577V122.194C593.146 124.246 593.045 126.165 593.216 127.952C592.1 126.548 590.633 125.284 589.19 123.918L566.164 102.304L566.023 102.171H564.408V149.199H574.169V129.583C574.169 127.468 574.279 125.533 574.083 123.762C575.207 125.159 576.643 126.462 578.118 127.851L601.144 149.465L601.284 149.597H602.9V102.577H593.138H593.146ZM422.052 149.16H410.176L400.913 133.321H395.701V149.16H385.339V102.546H402.739C413.679 102.546 420.21 108.351 420.21 118.066C420.21 124.433 417.12 129.247 411.502 131.658L422.059 149.16H422.052ZM409.559 118.066C409.559 113.766 407.304 111.769 402.458 111.769H395.693V124.425H402.458C407.304 124.425 409.559 122.404 409.559 118.058M472.544 149.082H462.385L459.349 141.623H442.604L439.569 149.082H429.41L450.212 102.062H451.734L472.536 149.082H472.544ZM456.244 133.516L452.233 123.278C451.476 121.359 450.977 119.712 450.977 119.712C450.977 119.712 450.478 121.359 449.721 123.278L445.71 133.516H450.977H456.244ZM10.9865 102.538L18.4383 122.576L12.2896 135.615L0 102.538H10.9865ZM32.9283 102.538L50.2429 139.321L46.599 149.145H44.8823L31.9685 121.741L19.0547 149.145H17.3381L13.6863 139.321L31.001 102.538H32.9361H32.9283ZM63.9214 102.538L51.6319 135.615L45.4832 122.576L52.9271 102.538H63.9136H63.9214Z" fill="white"/>
<path d="M25.6716 40.0914C22.8157 35.8076 21.9496 35.5266 21.2473 35.5266C20.5451 35.5266 20.1081 35.8232 18.8284 38.3825L0.710065 74.5958C0.140452 75.735 0 76.172 0 76.7416C0 77.8808 1.00658 79.0201 3.14457 79.0201H28.6757C30.3845 79.0201 31.6642 77.5843 32.3977 74.8923C33.2638 71.4669 33.5369 68.4783 33.5369 64.8968C33.5369 54.9013 29.1049 45.2023 25.6872 40.0679L25.6638 40.0914H25.6716ZM78.3178 74.3227L42.0811 1.84929C41.371 0.273102 40.6688 0 39.7948 0C39.0926 0 38.2187 0.296511 37.3759 1.71664C32.2416 9.83947 29.9554 19.2654 29.9554 29.0971C29.9554 42.7912 36.939 55.6347 47.2076 76.3125C48.3468 78.5909 49.213 79.0279 51.2027 79.0279H76.3047C78.1539 79.0279 79.1605 78.3256 79.1605 76.8821C79.1605 76.172 79.0279 75.7428 78.2944 74.2993L78.3178 74.3227ZM407.203 57.2499C407.203 45.132 400.906 39.5686 382.741 35.6827C372.815 33.4901 370.396 31.3287 370.396 28.1763C370.396 24.2983 374.025 22.605 380.579 22.605C388.569 22.605 396.325 25.0239 403.832 28.426V12.6797C398.495 10.0111 390.504 8.06821 381.055 8.06821C363.124 8.06821 353.924 15.8243 353.924 28.426M353.901 27.9344C353.901 38.1094 358.513 46.0996 377.154 49.7279C388.062 52.1468 390.481 53.8401 390.481 57.484C390.481 61.128 388.062 63.305 380.306 63.305C371.341 63.305 360.682 60.1604 353.651 56.0483V72.528C359.215 75.1966 366.503 78.349 380.306 78.349C399.681 78.349 407.187 69.6332 407.187 57.0393M625.247 8.55979L641.945 40.0523L647.509 53.1222V8.55979H662.046V77.6077H643.631L622.797 38.8351L616.75 25.0317V77.6077H601.963V8.55979H625.239H625.247ZM508.453 77.6077H492.457V8.55979H508.453V77.6077ZM474.066 57.0237C474.066 69.8751 466.333 78.5909 447.185 78.5909C433.381 78.5909 426.101 75.4463 420.538 72.7699V56.2902C427.56 60.4023 438.219 63.5469 447.185 63.5469C454.949 63.5469 457.36 61.3777 457.36 57.7259C457.36 54.0742 454.941 52.3887 444.032 49.9698C425.391 46.3415 420.78 38.3513 420.78 28.1763C420.78 15.5824 429.979 7.81852 447.91 7.81852C457.352 7.81852 465.366 9.75364 470.687 12.43V28.1763C463.181 24.7742 455.417 22.3553 447.434 22.3553C440.888 22.3553 437.259 24.0486 437.259 27.9188C437.259 31.0712 439.678 33.2404 449.604 35.4252C467.769 39.3033 474.066 44.8745 474.066 56.9925V57.0159V57.0237ZM245.37 8.55979V62.5949H267.414L262.326 77.6077H229.374V8.55979H245.37ZM164.204 8.53638H217.256V23.3229H198.116V77.6077H181.894V23.3463H164.204V8.53638ZM130.059 53.3719C126.914 53.3719 124.012 52.8881 121.343 52.1624L130.059 22.1291L138.775 52.1624C136.106 52.8881 133.211 53.3719 130.059 53.3719ZM140.718 8.55979H119.634L95.6481 77.6077H114.063L117.465 65.9658C121.577 67.1752 125.955 67.9009 130.316 67.9009C134.678 67.9009 139.032 67.1752 143.168 65.9658L146.57 77.6077H164.985C164.735 77.6077 140.749 8.55979 140.749 8.55979H140.725H140.718ZM308.597 53.3719C305.453 53.3719 302.55 52.8881 299.881 52.1624L308.597 22.1291L317.313 52.1624C314.645 52.8881 311.75 53.3719 308.597 53.3719ZM319.256 8.55979H298.173L273.945 77.6077H292.359L295.762 65.9658C299.874 67.1752 304.251 67.9009 308.613 67.9009C312.975 67.9009 317.329 67.1752 321.464 65.9658L324.866 77.6077H343.281L319.295 8.55979H319.272H319.256ZM555.942 53.3719C552.797 53.3719 549.894 52.8881 547.226 52.1624L555.942 22.1291L564.658 52.1624C561.989 52.8881 558.837 53.3719 555.942 53.3719ZM566.366 8.55979H545.283L521.297 77.6077H539.712L543.114 65.9658C547.226 67.1752 551.603 67.9009 555.965 67.9009C560.327 67.9009 564.681 67.1752 568.817 65.9658L572.219 77.6077H590.633L566.398 8.55979H566.374H566.366Z" fill="#1868DB"/>
</g>
</svg>
